<svg width="186" height="46" viewBox="0 0 186 46" fill="none" xmlns="http://www.w3.org/2000/svg">
<path d="M186 30.6656V10.2216H175.82V20.4433H165.639V30.6656H186ZM165.639 10.2216H155.458V20.4433H165.639V10.2216ZM165.639 10.2216H175.82V0H165.639V10.2216ZM185.725 5.11082C185.725 2.44106 183.569 0.276134 180.91 0.276134C178.25 0.276134 176.095 2.44106 176.095 5.11082C176.095 7.78124 178.25 9.94551 180.91 9.94551C183.569 9.94551 185.725 7.78124 185.725 5.11082ZM165.364 5.11082C165.364 2.44106 163.208 0.276134 160.549 0.276134C157.89 0.276134 155.733 2.44106 155.733 5.11082C155.733 7.78124 157.89 9.94551 160.549 9.94551C163.208 9.94551 165.364 7.78124 165.364 5.11082ZM145.731 25.8413C146.481 24.5204 146.856 22.8142 146.856 20.722C146.856 19.9885 146.792 19.062 146.664 17.9418C146.536 16.8223 146.38 15.6209 146.198 14.3364C146.015 13.0519 145.805 11.7401 145.567 10.3997C145.329 9.06057 145.082 7.80398 144.827 6.62925L136.494 9.54657L139.07 21.4926H130.407H123.115H122.95H122.732H120.205C119.84 18.8501 118.725 16.695 116.862 15.0245C114.997 13.3547 112.146 12.3911 108.308 12.1345C107.906 13.1994 107.494 14.2903 107.075 15.4098C106.654 16.5293 106.271 17.6488 105.923 18.7676C105.575 19.8871 105.293 20.9884 105.073 22.0709C104.854 23.1533 104.745 24.1721 104.745 25.1259C104.745 26.7041 105.211 28.0439 106.142 29.1446C107.075 30.2452 108.473 30.7962 110.336 30.7962H110.501C110.574 30.7962 110.72 30.7871 110.94 30.7689C111.159 30.7507 111.497 30.7325 111.955 30.7137C112.411 30.6961 113.059 30.6682 113.901 30.6311C112.84 31.9521 111.533 32.9793 109.98 33.7135C108.426 34.4477 106.846 34.8148 105.238 34.8148C104.433 34.8148 103.584 34.6952 102.688 34.4568C101.793 34.2177 100.925 33.7869 100.084 33.1632L97.3968 38.7782C99.2255 40.3564 100.861 41.5396 102.304 42.3296C103.748 43.1178 105.201 43.5128 106.664 43.5128C108.418 43.5128 110.008 43.1457 111.433 42.4122C112.859 41.6773 114.12 40.7228 115.217 39.5488C116.314 38.3741 117.245 37.0252 118.012 35.5029C118.78 33.9799 119.383 32.4108 119.822 30.7962H122.95H123.115H132.71C134.648 30.7962 136.474 30.6682 138.194 30.4109C139.91 30.1542 141.409 29.6591 142.688 28.9243C143.968 28.1907 144.982 27.1629 145.731 25.8413ZM99.7827 25.8413C100.532 24.5204 100.907 22.8142 100.907 20.722C100.907 19.9885 100.843 19.062 100.715 17.9418C100.587 16.8223 100.431 15.6209 100.249 14.3364C100.065 13.0519 99.8558 11.7401 99.6183 10.3997C99.3808 9.06057 99.1336 7.80398 98.878 6.62925L90.5452 9.54657L93.1213 21.4926H84.4585H77.1669H77.0032H77.0025H72.4333C71.6277 21.4926 71.0071 21.1625 70.569 20.5018C70.1303 19.841 69.7646 18.9327 69.4722 17.7768C69.179 16.6209 68.9325 15.2448 68.7312 13.6477C68.5306 12.0519 68.2841 10.3367 67.9916 8.5005L59.6581 12.4645L61.8512 20.1165C61.4124 20.4102 60.9193 20.6395 60.3712 20.8045C59.8225 20.9696 59.2375 21.1073 58.6163 21.2171C57.9938 21.3276 57.3732 21.401 56.752 21.4374C56.1301 21.4744 55.5276 21.4926 54.9427 21.4926H47.6504H47.4873H47.486H36.3674H36.2024C36.1461 21.4926 36.095 21.5063 36.0394 21.5076C35.9831 21.5063 35.9319 21.4926 35.8756 21.4926H34.3769H34.2126H33.9932H22.808C22.443 18.8501 21.3274 16.695 19.4637 15.0245C17.5994 13.3547 14.7482 12.3911 10.9109 12.1345C10.5084 13.1994 10.0968 14.2903 9.67685 15.4098C9.25623 16.5293 8.8725 17.6488 8.52565 18.7676C8.17751 19.8871 7.89472 20.9884 7.67535 22.0709C7.45663 23.1533 7.34663 24.1721 7.34663 25.1259C7.34663 26.7041 7.81253 28.0439 8.74501 29.1446C9.67685 30.2452 11.0753 30.7962 12.9389 30.7962H13.1039C13.177 30.7962 13.3233 30.7871 13.542 30.7689C13.7614 30.7507 14.0992 30.7325 14.5567 30.7137C15.0136 30.6961 15.662 30.6682 16.5032 30.6311C15.4426 31.9521 14.1361 32.9793 12.583 33.7135C11.0287 34.4477 9.44779 34.8148 7.84037 34.8148C7.03602 34.8148 6.18636 34.6952 5.29077 34.4568C4.39582 34.2177 3.52803 33.7869 2.68614 33.1632L0 38.7782C1.82808 40.3564 3.46332 41.5396 4.90702 42.3296C6.35072 43.1178 7.80347 43.5128 9.26593 43.5128C11.0202 43.5128 12.6102 43.1457 14.0358 42.4122C15.4613 41.6773 16.7226 40.7228 17.8188 39.5488C18.9156 38.3741 19.8474 37.0252 20.6149 35.5029C21.3824 33.9799 21.9855 32.4108 22.4242 30.7962H34.2126H34.3769H35.6563H35.8756C35.9319 30.7962 35.9831 30.7832 36.0394 30.7812C36.095 30.7832 36.1461 30.7962 36.2024 30.7962H36.3674H47.2673H47.486H47.4873H47.6504H54.9427C57.6838 30.7962 59.8497 30.5759 61.4396 30.1354C63.0295 29.6949 64.2079 28.9613 64.9761 27.9334C65.8529 29.0718 66.9588 29.8326 68.2925 30.2179C69.6275 30.6032 71.0071 30.7962 72.4333 30.7962H76.7838H77.0025H77.0032H77.1669H86.7616C88.699 30.7962 90.5258 30.6682 92.2445 30.4109C93.9619 30.1542 95.4606 29.6591 96.74 28.9243C98.0193 28.1907 99.0333 27.1629 99.7827 25.8413ZM78.5582 7.99825H84.1706V2.36309H78.5582V7.99825ZM48.0626 7.99825H53.6743V2.36374H48.0626H42.4503V7.99825H48.0626ZM130.597 34.7297H124.984V40.3655V46H130.597V40.3655H136.208V34.7297H130.597ZM155.733 25.5548C155.733 28.2245 157.89 30.3894 160.549 30.3894C163.208 30.3894 165.364 28.2245 165.364 25.5548C165.364 22.8843 163.208 20.7201 160.549 20.7201C157.89 20.7201 155.733 22.8843 155.733 25.5548Z" fill="#12499F"/>
</svg>
