<svg id="Layer_1" data-name="Layer 1" xmlns="http://www.w3.org/2000/svg" viewBox="0 0 220 90"><defs><style>.cls-1{fill:#12499f;}</style></defs><title>PUNTO_l_rgb</title><polygon class="cls-1" points="40 50 30 50 30 40 40 40 40 30 20 30 20 70 30 70 30 60 50 60 50 40 40 40 40 50"/><path class="cls-1" d="M45,39.73A4.73,4.73,0,1,0,40.27,35,4.73,4.73,0,0,0,45,39.73Z"/><rect class="cls-1" x="60" y="30" width="10" height="20"/><polygon class="cls-1" points="80 50 70 50 70 60 90 60 90 30 80 30 80 50"/><circle class="cls-1" cx="65" cy="55" r="4.73"/><polygon class="cls-1" points="100 30 100 60 110 60 110 40 120 40 120 30 100 30"/><rect class="cls-1" x="120" y="40" width="10" height="20"/><path class="cls-1" d="M125,39.73A4.73,4.73,0,1,0,120.27,35,4.73,4.73,0,0,0,125,39.73Z"/><polygon class="cls-1" points="150 20 140 20 140 50 150 50 150 40 160 40 160 30 150 30 150 20"/><rect class="cls-1" x="150" y="50" width="10" height="10"/><circle class="cls-1" cx="145" cy="55" r="4.73"/><rect class="cls-1" x="180" y="30" width="10" height="10"/><rect class="cls-1" x="170" y="40" width="10" height="10"/><polygon class="cls-1" points="190 40 190 50 180 50 180 60 200 60 200 40 190 40"/><circle class="cls-1" cx="175" cy="55" r="4.73"/><circle class="cls-1" cx="175" cy="35" r="4.73"/><path class="cls-1" d="M195,39.73A4.73,4.73,0,1,0,190.27,35,4.73,4.73,0,0,0,195,39.73Z"/></svg>