<svg id="Layer_1" data-name="Layer 1" xmlns="http://www.w3.org/2000/svg" viewBox="0 0 220 90"><title>PUNTO_l_la</title><polygon points="40 50 30 50 30 40 40 40 40 30 20 30 20 70 30 70 30 60 50 60 50 40 40 40 40 50"/><path d="M45,39.73A4.73,4.73,0,1,0,40.27,35,4.73,4.73,0,0,0,45,39.73Z"/><rect x="60" y="30" width="10" height="20"/><polygon points="80 50 70 50 70 60 90 60 90 30 80 30 80 50"/><circle cx="65" cy="55" r="4.73"/><polygon points="100 30 100 60 110 60 110 40 120 40 120 30 100 30"/><rect x="120" y="40" width="10" height="20"/><path d="M125,39.73A4.73,4.73,0,1,0,120.27,35,4.73,4.73,0,0,0,125,39.73Z"/><polygon points="150 20 140 20 140 50 150 50 150 40 160 40 160 30 150 30 150 20"/><rect x="150" y="50" width="10" height="10"/><circle cx="145" cy="55" r="4.73"/><rect x="180" y="30" width="10" height="10"/><rect x="170" y="40" width="10" height="10"/><polygon points="190 40 190 50 180 50 180 60 200 60 200 40 190 40"/><circle cx="175" cy="55" r="4.73"/><circle cx="175" cy="35" r="4.73"/><path d="M195,39.73A4.73,4.73,0,1,0,190.27,35,4.73,4.73,0,0,0,195,39.73Z"/></svg>