<svg width="90" height="90" viewBox="0 0 90 90" fill="none" xmlns="http://www.w3.org/2000/svg">
<path d="M27.2918 0.0196362L0.428711 26.8753L17.2844 43.7266L23.6224 37.3706L13.0852 26.8557L27.2918 12.6529L37.8095 23.1875L44.1671 16.8512L27.3114 0L27.2918 0.0196362ZM73.9343 0.0196362C72.7765 0.0196362 71.6385 0.451059 70.7751 1.33383L63.1223 8.98478L81.0376 26.8949L88.6903 19.2445C90.4367 17.4986 90.4367 14.6737 88.6903 12.9082L77.1131 1.33383C76.2301 0.451059 75.1116 0.0196362 73.9539 0.0196362H73.9343ZM56.4115 15.6937L4.92232 67.1689V85.079H22.8376L74.3266 33.6038L56.4115 15.6937ZM73.1297 45.8449L66.8113 52.2013L77.3289 62.7158L63.1223 76.9185L52.6047 66.404L46.2471 72.7207L63.1027 89.5714L89.9658 62.7158L73.11 45.8645L73.1297 45.8449Z" fill="#84B5BF"/>
</svg>
