<svg width="54" height="54" viewBox="0 0 54 54" fill="none" xmlns="http://www.w3.org/2000/svg">
<path d="M27.0007 0.333984C12.2807 0.333984 0.333984 12.2807 0.333984 27.0007C0.333984 41.7207 12.2807 53.6673 27.0007 53.6673C41.7207 53.6673 53.6673 41.7207 53.6673 27.0007C53.6673 12.2807 41.7207 0.333984 27.0007 0.333984ZM27.0007 48.334C15.2407 48.334 5.66732 38.7607 5.66732 27.0007C5.66732 15.2407 15.2407 5.66732 27.0007 5.66732C38.7607 5.66732 48.334 15.2407 48.334 27.0007C48.334 38.7607 38.7607 48.334 27.0007 48.334ZM39.2407 15.214L21.6673 32.7873L14.7607 25.9073L11.0007 29.6673L21.6673 40.334L43.0007 19.0007L39.2407 15.214Z" fill="#616161"/>
</svg>
