<svg width="144" height="40" viewBox="0 0 144 40" fill="none" xmlns="http://www.w3.org/2000/svg">
<path d="M16 24H8V16H16V8H0V40H8V32H24V16H16V24Z" fill="#12499F"/>
<path d="M19.9988 15.7838C22.0868 15.7838 23.7828 14.0878 23.7828 11.9998C23.7828 9.91182 22.0868 8.21582 19.9988 8.21582C17.9108 8.21582 16.2148 9.91182 16.2148 11.9998C16.2148 14.0878 17.9108 15.7838 19.9988 15.7838Z" fill="#12499F"/>
<path d="M40 8H32V24H40V8Z" fill="#12499F"/>
<path d="M48 24H40V32H56V8H48V24Z" fill="#12499F"/>
<path d="M35.9988 31.7838C38.0887 31.7838 39.7828 30.0897 39.7828 27.9998C39.7828 25.91 38.0887 24.2158 35.9988 24.2158C33.909 24.2158 32.2148 25.91 32.2148 27.9998C32.2148 30.0897 33.909 31.7838 35.9988 31.7838Z" fill="#12499F"/>
<path d="M64 8V32H72V16H80V8H64Z" fill="#12499F"/>
<path d="M88 16H80V32H88V16Z" fill="#12499F"/>
<path d="M83.9988 15.7838C86.0868 15.7838 87.7829 14.0878 87.7829 11.9998C87.7829 9.91182 86.0868 8.21582 83.9988 8.21582C81.9108 8.21582 80.2148 9.91182 80.2148 11.9998C80.2148 14.0878 81.9108 15.7838 83.9988 15.7838Z" fill="#12499F"/>
<path d="M104 0H96V24H104V16H112V8H104V0Z" fill="#12499F"/>
<path d="M112 24H104V32H112V24Z" fill="#12499F"/>
<path d="M99.9988 31.7838C102.089 31.7838 103.783 30.0897 103.783 27.9998C103.783 25.91 102.089 24.2158 99.9988 24.2158C97.909 24.2158 96.2148 25.91 96.2148 27.9998C96.2148 30.0897 97.909 31.7838 99.9988 31.7838Z" fill="#12499F"/>
<path d="M136 8H128V16H136V8Z" fill="#12499F"/>
<path d="M136 24H128V32H136V24Z" fill="#12499F"/>
<path d="M128 16H120V24H128V16Z" fill="#12499F"/>
<path d="M144 16H136V24H144V16Z" fill="#12499F"/>
<path d="M123.999 31.7838C126.089 31.7838 127.783 30.0897 127.783 27.9998C127.783 25.91 126.089 24.2158 123.999 24.2158C121.909 24.2158 120.215 25.91 120.215 27.9998C120.215 30.0897 121.909 31.7838 123.999 31.7838Z" fill="#12499F"/>
<path d="M139.999 31.7838C142.089 31.7838 143.783 30.0897 143.783 27.9998C143.783 25.91 142.089 24.2158 139.999 24.2158C137.909 24.2158 136.215 25.91 136.215 27.9998C136.215 30.0897 137.909 31.7838 139.999 31.7838Z" fill="#12499F"/>
<path d="M123.999 15.7838C126.089 15.7838 127.783 14.0897 127.783 11.9998C127.783 9.90997 126.089 8.21582 123.999 8.21582C121.909 8.21582 120.215 9.90997 120.215 11.9998C120.215 14.0897 121.909 15.7838 123.999 15.7838Z" fill="#12499F"/>
<path d="M139.999 15.7838C142.087 15.7838 143.783 14.0878 143.783 11.9998C143.783 9.91182 142.087 8.21582 139.999 8.21582C137.911 8.21582 136.215 9.91182 136.215 11.9998C136.215 14.0878 137.911 15.7838 139.999 15.7838Z" fill="#12499F"/>
</svg>
