<svg width="91" height="87" viewBox="0 0 91 87" fill="none" xmlns="http://www.w3.org/2000/svg">
<path d="M45.4906 0L0.713867 19.8969V86.783H90.2853V19.8969L45.5085 0H45.4906ZM30.559 74.3162H20.6106V64.3677H30.559V74.3162ZM30.559 54.4193H20.6106V44.4709H30.559V54.4193ZM30.559 34.5229H20.6106V24.5744H30.559V34.5229ZM50.4557 74.3342H40.5074V64.3857H50.4557V74.3342ZM50.4557 54.4373H40.5074V44.4889H50.4557V54.4373ZM50.4557 34.5409H40.5074V24.5924H50.4557V34.5409ZM70.3525 74.3522H60.4042V64.4037H70.3525V74.3522ZM70.3525 54.4553H60.4042V44.5069H70.3525V54.4553ZM70.3525 34.5584H60.4042V24.6104H70.3525V34.5584Z" fill="#84B5BF"/>
</svg>
