<svg width="223" height="222" viewBox="0 0 223 222" fill="none" xmlns="http://www.w3.org/2000/svg">
<path d="M222.66 111C222.66 172.305 172.964 222 111.661 222C50.3574 222 0.660156 172.305 0.660156 111C0.660156 49.697 50.3559 0 111.661 0C172.963 0 222.66 49.6955 222.66 111Z" fill="#90B0B2"/>
<path d="M215.111 111.414C215.111 168.32 168.979 214.452 112.074 214.452C55.1676 214.452 9.03711 168.32 9.03711 111.414C9.03711 54.508 55.1676 8.37744 112.074 8.37744C168.979 8.37744 215.111 54.508 215.111 111.414Z" stroke="#FEFEFE" strokeWidth="0.66624" strokeMiterlimit="2.61313"/>
<path d="M161.25 86.6998V47.6353L141.409 53.9949V90.6592L161.25 86.6998Z" stroke="#FEFEFE" strokeWidth="0.66624" strokeMiterlimit="2.61313"/>
<path d="M196.679 170.183H158.849V19.5989C182.466 31.6627 200.81 52.5717 209.521 77.9563V144.87C206.405 153.946 202.058 162.45 196.679 170.181V170.183Z" stroke="#FEFEFE" strokeWidth="0.66624" strokeMiterlimit="2.61313"/>
<path d="M164.424 51.4583L180.235 46.1372V127.518H164.424V51.4583Z" stroke="#FEFEFE" strokeWidth="0.66624" strokeMiterlimit="2.61313"/>
<path d="M164.424 51.4583H180.235V46.1372L164.424 51.4583Z" stroke="#FEFEFE" strokeWidth="0.66624" strokeMiterlimit="2.61313"/>
<path d="M131.49 140.236H161.437V79.8853H131.49V140.236Z" stroke="#FEFEFE" strokeWidth="0.66624" strokeMiterlimit="2.61313"/>
<path d="M164.424 126.098L180.235 127.518V135.017L164.424 133.598V126.098Z" stroke="#FEFEFE" strokeWidth="0.66624" strokeMiterlimit="2.61313"/>
<path d="M166.072 133.7H161.436V135.017H180.235L166.072 133.7Z" stroke="#FEFEFE" strokeWidth="0.66624" strokeMiterlimit="2.61313"/>
<path d="M180.235 143.76H161.436V151.186H180.235H189.412V143.76H180.235Z" stroke="#FEFEFE" strokeWidth="0.66624" strokeMiterlimit="2.61313"/>
<path d="M189.412 152.504H180.235H161.436V159.931H180.235H189.412H198.591V152.504H189.412Z" stroke="#FEFEFE" strokeWidth="0.66624" strokeMiterlimit="2.61313"/>
<path d="M198.591 159.931H189.412H180.235H161.436V161.248H180.235H189.412H198.591H202.242C202.378 161.003 202.519 160.76 202.652 160.513L198.591 159.931Z" stroke="#FEFEFE" strokeWidth="0.66624" strokeMiterlimit="2.61313"/>
<path d="M180.235 142.443H161.436V143.76H180.235H189.412L180.235 142.443Z" stroke="#FEFEFE" strokeWidth="0.66624" strokeMiterlimit="2.61313"/>
<path d="M189.412 151.186H180.235H161.436V152.505H180.235H189.412H198.591L189.412 151.186Z" stroke="#FEFEFE" strokeWidth="0.66624" strokeMiterlimit="2.61313"/>
<path d="M198.591 161.248H189.412H180.235H161.436V168.675H180.235H189.412H197.714C199.324 166.27 200.834 163.79 202.242 161.248H198.591Z" stroke="#FEFEFE" strokeWidth="0.66624" strokeMiterlimit="2.61313"/>
<path d="M180.235 135.016H161.436V142.443H180.235V135.016Z" stroke="#FEFEFE" strokeWidth="0.66624" strokeMiterlimit="2.61313"/>
<path d="M196.813 169.991H189.413H180.236H161.437V177.418H180.236H189.413H191.162C193.154 175.033 195.04 172.553 196.813 169.991Z" stroke="#FEFEFE" strokeWidth="0.66624" strokeMiterlimit="2.61313"/>
<path d="M197.714 168.675H189.412H180.235H161.436V169.991H180.235H189.412H196.812C197.114 169.554 197.416 169.116 197.713 168.675H197.714Z" stroke="#FEFEFE" strokeWidth="0.66624" strokeMiterlimit="2.61313"/>
<path d="M141.409 113.633H112.485V63.7244H141.409V113.633Z" stroke="#FEFEFE" strokeWidth="0.66624" strokeMiterlimit="2.61313"/>
<path d="M157.825 129.77V122.308H149.578V114.845H141.332V107.383H133.085V99.9204V76.7502H124.838L105.266 82.2286V99.9204V107.383V114.845V122.308V129.77V206.87H119.707H133.085H141.332H149.578H150.892C156.186 204.713 161.26 202.129 166.073 199.16V129.77H157.826H157.825Z" stroke="#FEFEFE" strokeWidth="0.66624" strokeMiterlimit="2.61313"/>
<path d="M150.604 129.77V122.308H142.358V114.845H134.111V107.383H125.864V99.9206V76.7504L112.487 79.3856V63.7261L98.0452 68.2944V82.2302V99.922V107.384V114.847V122.309V129.772V206.871H112.487H125.864H134.111H142.358H150.604H150.891C153.603 205.766 156.261 204.555 158.851 203.231V129.772H150.604V129.77Z" stroke="#FEFEFE" strokeWidth="0.66624" strokeMiterlimit="2.61313"/>
<path d="M119.212 187.164L104.138 179.616V187.7L146.749 208.454C149.561 207.449 152.315 206.325 155.009 205.088L119.212 187.164Z" stroke="#FEFEFE" strokeWidth="0.66624" strokeMiterlimit="2.61313"/>
<path d="M124.722 178.886L104.16 179.616L119.235 187.164L155.021 205.081C169.414 198.466 182.02 188.632 191.918 176.5L124.722 178.884V178.886Z" stroke="#FEFEFE" strokeWidth="0.66624" strokeMiterlimit="2.61313"/>
<path d="M196.814 169.991H166.073V177.418H191.162C193.154 175.033 195.039 172.553 196.813 169.991H196.814Z" stroke="#FEFEFE" strokeWidth="0.66624" strokeMiterlimit="2.61313"/>
<path d="M180.235 127.518L164.424 126.098H180.235V127.518Z" stroke="#FEFEFE" strokeWidth="0.66624" strokeMiterlimit="2.61313"/>
<path d="M42.78 187.7H104.136L146.747 208.454C146.566 208.519 146.384 208.582 146.201 208.646H77.8838C64.7665 204.037 52.8597 196.857 42.7786 187.698L42.78 187.7Z" stroke="#FEFEFE" strokeWidth="0.66624" strokeMiterlimit="2.61313"/>
<path d="M57.0977 120.146C53.8457 120.146 51.3945 119.502 49.7441 118.213C48.1035 116.914 47.2832 114.878 47.2832 112.104C47.2832 111.226 47.3516 110.288 47.4883 109.292C47.6348 108.296 47.8447 107.251 48.1182 106.157L50.9453 106.655C50.8086 107.349 50.7012 107.993 50.623 108.589C50.5449 109.185 50.4961 109.761 50.4766 110.317C50.5352 111.001 50.7988 111.548 51.2676 111.958C51.7363 112.368 52.4785 112.666 53.4941 112.852C54.5098 113.027 55.8574 113.115 57.5371 113.115C59.3535 113.115 60.9307 113.027 62.2686 112.852C63.6064 112.666 64.7734 112.363 65.7695 111.943C66.7656 111.523 67.6543 110.957 68.4355 110.244C69.2168 109.521 69.959 108.618 70.6621 107.534L72.874 108.779C72.3857 109.922 71.7998 111.035 71.1162 112.119C71.4482 112.422 71.8828 112.637 72.4199 112.764C72.9668 112.881 73.6992 112.939 74.6172 112.939H74.6318V120H74.6172C73.0156 120 71.7168 119.619 70.7207 118.857C69.7344 118.086 69.0654 117.021 68.7139 115.664C67.3857 117.178 65.7842 118.306 63.9092 119.048C62.0439 119.78 59.7734 120.146 57.0977 120.146ZM54.9004 122.065C55.9062 122.788 56.8438 123.618 57.7129 124.556L55.208 127.412C54.29 126.445 53.3574 125.62 52.4102 124.937L54.9004 122.065ZM60.1152 122.065C61.1211 122.788 62.0586 123.618 62.9277 124.556L60.4229 127.412C59.5049 126.445 58.5723 125.62 57.625 124.937L60.1152 122.065ZM57.4932 126.943C58.4111 127.607 59.2705 128.374 60.0713 129.243L57.7861 131.851C56.9463 130.962 56.0918 130.205 55.2227 129.58L57.4932 126.943ZM74.6465 112.939C75.9258 112.939 76.9268 112.798 77.6494 112.515C78.3721 112.231 78.9092 111.729 79.2607 111.006C79.6123 110.273 79.8613 109.243 80.0078 107.915L82.5566 107.71C82.5078 108.442 82.4443 109.126 82.3662 109.761C82.2881 110.396 82.1953 110.986 82.0879 111.533C82.5859 112.051 83.1963 112.417 83.9189 112.632C84.6416 112.837 85.5449 112.939 86.6289 112.939H86.7607V120H86.585C83.6162 120 81.7363 118.662 80.9453 115.986C80.1445 118.662 78.0449 120 74.6465 120C74.2949 120 74.041 119.727 73.8848 119.18C73.7285 118.623 73.6504 117.72 73.6504 116.47C73.6504 115.229 73.7285 114.331 73.8848 113.774C74.041 113.218 74.2949 112.939 74.6465 112.939ZM74.2363 122.007C75.2422 122.729 76.1797 123.56 77.0488 124.497L74.5439 127.354C73.626 126.387 72.6934 125.562 71.7461 124.878L74.2363 122.007ZM79.4512 122.007C80.457 122.729 81.3945 123.56 82.2637 124.497L79.7588 127.354C78.8408 126.387 77.9082 125.562 76.9609 124.878L79.4512 122.007ZM86.7754 112.939C87.5859 112.939 88.2549 112.886 88.7822 112.778C89.3096 112.661 89.7441 112.437 90.0859 112.104C90.4277 111.763 90.7256 111.27 90.9795 110.625C91.2334 109.98 91.4922 109.126 91.7559 108.062L94.0996 108.384C93.9629 109.351 93.8311 110.146 93.7041 110.771C93.5869 111.387 93.4648 111.904 93.3379 112.324C94.0312 112.852 94.9395 113.115 96.0625 113.115C96.7363 113.115 97.2881 112.993 97.7178 112.749C98.1475 112.505 98.5039 112.075 98.7871 111.46C99.0703 110.845 99.3242 109.98 99.5488 108.867L101.98 108.984C101.775 110.537 101.57 111.646 101.365 112.31C102.156 112.856 103.221 113.13 104.559 113.13C105.584 113.13 106.492 112.969 107.283 112.646C107.059 111.924 106.795 111.211 106.492 110.508C106.189 109.795 105.872 109.116 105.54 108.472L109.114 106.084C109.651 108.203 109.92 110.371 109.92 112.588C109.92 115.01 109.456 116.875 108.528 118.184C107.61 119.492 106.302 120.146 104.603 120.146C102.493 120.146 101.004 119.014 100.135 116.748C99.2656 119.014 97.8984 120.146 96.0332 120.146C94.998 120.146 94.1436 119.839 93.4697 119.224C92.8057 118.608 92.3076 117.725 91.9756 116.572C91.458 117.783 90.7744 118.657 89.9248 119.194C89.085 119.731 88.0352 120 86.7754 120C86.4238 120 86.1699 119.727 86.0137 119.18C85.8574 118.623 85.7793 117.725 85.7793 116.484C85.7793 115.244 85.8574 114.346 86.0137 113.789C86.1699 113.223 86.4238 112.939 86.7754 112.939ZM99.6074 96.2402C100.525 96.9043 101.385 97.6709 102.186 98.54L99.9004 101.147C99.0605 100.269 98.2061 99.5117 97.3369 98.877L99.6074 96.2402ZM97 100.693C98.0059 101.416 98.9434 102.246 99.8125 103.184L97.3076 106.04C96.3896 105.073 95.457 104.248 94.5098 103.564L97 100.693ZM102.215 100.693C103.221 101.416 104.158 102.246 105.027 103.184L102.522 106.04C101.604 105.073 100.672 104.248 99.7246 103.564L102.215 100.693ZM122.034 119.604C121.37 119.78 120.667 119.917 119.925 120.015C119.192 120.112 118.45 120.161 117.698 120.161C115.882 120.161 114.495 119.761 113.538 118.96C112.591 118.159 112.117 116.992 112.117 115.459C112.117 113.574 112.376 111.865 112.894 110.332C113.421 108.799 114.144 107.578 115.062 106.67C115.979 105.762 117.034 105.308 118.226 105.308C119.856 105.308 121.229 106.006 122.342 107.402C123.465 108.789 124.251 110.635 124.7 112.939H126.736V120H124.92C124.607 122.617 123.738 124.634 122.312 126.05C120.887 127.476 118.895 128.193 116.336 128.203L110.887 126.899L111.722 123.34C113.831 123.379 115.687 123.228 117.288 122.886C118.899 122.544 120.496 122.065 122.078 121.45C122.078 120.835 122.063 120.22 122.034 119.604ZM121.243 113.657C120.53 111.265 119.236 110.068 117.361 110.068C116.521 110.068 115.853 110.332 115.354 110.859C114.866 111.387 114.622 112.051 114.622 112.852C114.622 113.262 114.847 113.56 115.296 113.745C115.755 113.921 116.473 114.009 117.449 114.009C118.104 114.009 118.758 113.979 119.412 113.921C120.066 113.853 120.677 113.765 121.243 113.657ZM126.736 112.939C128.016 112.939 129.017 112.798 129.739 112.515C130.462 112.231 130.999 111.729 131.351 111.006C131.702 110.273 131.951 109.243 132.098 107.915L134.646 107.71C134.598 108.442 134.534 109.126 134.456 109.761C134.378 110.396 134.285 110.986 134.178 111.533C134.676 112.051 135.286 112.417 136.009 112.632C136.731 112.837 137.635 112.939 138.719 112.939H138.851V120H138.675C135.706 120 133.826 118.662 133.035 115.986C132.234 118.662 130.135 120 126.736 120C126.385 120 126.131 119.727 125.975 119.18C125.818 118.623 125.74 117.72 125.74 116.47C125.74 115.229 125.818 114.331 125.975 113.774C126.131 113.218 126.385 112.939 126.736 112.939ZM128.377 99.7998C129.383 100.522 130.32 101.353 131.189 102.29L128.685 105.146C127.767 104.18 126.834 103.354 125.887 102.671L128.377 99.7998ZM133.592 99.7998C134.598 100.522 135.535 101.353 136.404 102.29L133.899 105.146C132.981 104.18 132.049 103.354 131.102 102.671L133.592 99.7998ZM138.865 112.939C140.125 112.939 141.146 112.915 141.927 112.866C142.718 112.808 143.362 112.715 143.86 112.588C143.655 111.699 143.406 110.83 143.113 109.98C142.83 109.131 142.479 108.281 142.059 107.432L146.438 104.297C146.79 105.781 147.059 107.188 147.244 108.516C147.439 109.834 147.537 110.981 147.537 111.958C147.537 114.585 146.893 116.582 145.604 117.949C144.324 119.316 142.449 120 139.979 120H138.865C138.514 120 138.26 119.727 138.104 119.18C137.947 118.623 137.869 117.72 137.869 116.47C137.869 115.229 137.947 114.331 138.104 113.774C138.26 113.218 138.514 112.939 138.865 112.939ZM141.429 97.8369C142.435 98.5596 143.372 99.3896 144.241 100.327L141.736 103.184C140.818 102.217 139.886 101.392 138.938 100.708L141.429 97.8369ZM160.003 119.604C159.339 119.78 158.636 119.917 157.894 120.015C157.161 120.112 156.419 120.161 155.667 120.161C153.851 120.161 152.464 119.761 151.507 118.96C150.56 118.159 150.086 116.992 150.086 115.459C150.086 113.574 150.345 111.865 150.862 110.332C151.39 108.799 152.112 107.578 153.03 106.67C153.948 105.762 155.003 105.308 156.194 105.308C157.825 105.308 159.197 106.006 160.311 107.402C161.434 108.789 162.22 110.635 162.669 112.939H164.705V120H162.889C162.576 122.617 161.707 124.634 160.281 126.05C158.855 127.476 156.863 128.193 154.305 128.203L148.855 126.899L149.69 123.34C151.8 123.379 153.655 123.228 155.257 122.886C156.868 122.544 158.465 122.065 160.047 121.45C160.047 120.835 160.032 120.22 160.003 119.604ZM159.212 113.657C158.499 111.265 157.205 110.068 155.33 110.068C154.49 110.068 153.821 110.332 153.323 110.859C152.835 111.387 152.591 112.051 152.591 112.852C152.591 113.262 152.815 113.56 153.265 113.745C153.724 113.921 154.441 114.009 155.418 114.009C156.072 114.009 156.727 113.979 157.381 113.921C158.035 113.853 158.646 113.765 159.212 113.657ZM164.705 112.939H167.649C168.86 112.939 169.866 112.915 170.667 112.866C171.468 112.817 172.127 112.725 172.645 112.588C172.244 110.791 171.644 109.072 170.843 107.432L175.237 104.297C175.579 105.771 175.843 107.168 176.028 108.486C176.224 109.805 176.321 110.962 176.321 111.958C176.321 114.585 175.682 116.582 174.402 117.949C173.133 119.316 171.292 120 168.88 120H164.705C164.354 120 164.1 119.727 163.943 119.18C163.787 118.623 163.709 117.72 163.709 116.47C163.709 115.22 163.787 114.321 163.943 113.774C164.1 113.218 164.354 112.939 164.705 112.939ZM167.254 122.007C168.26 122.729 169.197 123.56 170.066 124.497L167.562 127.354C166.644 126.387 165.711 125.562 164.764 124.878L167.254 122.007ZM172.469 122.007C173.475 122.729 174.412 123.56 175.281 124.497L172.776 127.354C171.858 126.387 170.926 125.562 169.979 124.878L172.469 122.007ZM169.847 126.885C170.765 127.549 171.624 128.315 172.425 129.185L170.14 131.792C169.3 130.903 168.445 130.146 167.576 129.521L169.847 126.885Z" fill="#3A3D81"/>
</svg>
