<svg width="220" height="220" viewBox="0 0 220 220" fill="none" xmlns="http://www.w3.org/2000/svg">
<path d="M219.906 110C219.906 170.726 170.678 219.953 109.954 219.953C49.2272 219.953 0 170.726 0 110C0 49.2752 49.2272 0.0471191 109.954 0.0471191C170.678 0.0471191 219.906 49.2738 219.906 110Z" fill="#90B0B2"/>
<path d="M211.431 110.188C211.431 166.183 166.04 211.574 110.048 211.574C54.053 211.574 8.66211 166.183 8.66211 110.188C8.66211 54.1934 54.053 8.80249 110.048 8.80249C166.04 8.80249 211.431 54.1948 211.431 110.188Z" fill="#90B0B2" stroke="#B6DBDE" strokeWidth="0.66624" stroke-miterlimit="10"/>
<path d="M102.09 97.7869V175.67H187.443C198.53 162.579 206.352 146.638 209.664 129.102V99.636L154.981 56.2036L102.091 97.7885L102.09 97.7869Z" stroke="#E8EFF0" strokeWidth="0.66624" stroke-miterlimit="2.61313"/>
<path d="M116.766 100.218V125.329L139.589 107.711V82.8694L116.766 100.218Z" stroke="#E8EFF0" strokeWidth="0.66624" stroke-miterlimit="2.61313"/>
<path d="M154.979 123.572V56.2009L209.663 99.6333V129.101C207.679 139.608 204.081 149.544 199.126 158.636L154.979 123.571V123.572Z" stroke="#E8EFF0" strokeWidth="0.66624" stroke-miterlimit="2.61313"/>
<path d="M49.1704 164.641V191.268C66.1228 204.017 87.2013 211.575 110.045 211.575C148.71 211.575 182.315 189.931 199.416 158.098L133.213 105.517L49.1719 164.644L49.1704 164.641Z" stroke="#E8EFF0" strokeWidth="0.66624" stroke-miterlimit="2.61313"/>
<path d="M49.2305 177.259V191.316C66.1728 204.037 87.2282 211.574 110.045 211.574C144.929 211.574 175.695 193.954 193.938 167.132L133.213 118.9L49.2305 177.259Z" stroke="#E8EFF0" strokeWidth="0.66624" stroke-miterlimit="2.61313"/>
<path d="M133.211 118.902V105.515L199.414 158.097C197.742 161.208 195.915 164.225 193.938 167.132L133.211 118.9V118.902Z" stroke="#E8EFF0" strokeWidth="0.66624" stroke-miterlimit="2.61313"/>
<path d="M137.933 177.438L162.369 197.043C156.864 200.366 151.018 203.184 144.896 205.426L137.933 177.439V177.438Z" stroke="#E8EFF0" strokeWidth="0.66624" stroke-miterlimit="2.61313"/>
<path d="M148.551 186.239V203.998C139.72 207.628 130.266 210.05 120.391 211.053V186.239C120.391 183.42 121.95 180.821 124.457 179.531C130.729 176.302 138.211 176.302 144.486 179.531C146.992 180.82 148.551 183.42 148.551 186.239Z" stroke="#E8EFF0" strokeWidth="0.66624" stroke-miterlimit="2.61313"/>
<path d="M118.089 50.6479H110.248V42.8081H118.089V50.6479Z" stroke="#E8EFF0" strokeWidth="0.66624" stroke-miterlimit="10"/>
<path d="M118.089 63.0163H110.248V55.1763H118.089V63.0163Z" stroke="#E8EFF0" strokeWidth="0.66624" stroke-miterlimit="10"/>
<path d="M133.419 50.6479H125.579V42.8081H133.419V50.6479Z" stroke="#E8EFF0" strokeWidth="0.66624" stroke-miterlimit="10"/>
<path d="M60.5176 119.604C59.8535 119.78 59.1504 119.917 58.4082 120.015C57.6758 120.112 56.9336 120.161 56.1816 120.161C54.3652 120.161 52.9785 119.761 52.0215 118.96C51.0742 118.159 50.6006 116.992 50.6006 115.459C50.6006 113.574 50.8594 111.865 51.377 110.332C51.9043 108.799 52.627 107.578 53.5449 106.67C54.4629 105.762 55.5176 105.308 56.709 105.308C58.3398 105.308 59.7119 106.006 60.8252 107.402C61.9482 108.789 62.7344 110.635 63.1836 112.939H65.2197V120H63.4033C63.0908 122.617 62.2217 124.634 60.7959 126.05C59.3701 127.476 57.3779 128.193 54.8193 128.203L49.3701 126.899L50.2051 123.34C52.3145 123.379 54.1699 123.228 55.7715 122.886C57.3828 122.544 58.9795 122.065 60.5615 121.45C60.5615 120.835 60.5469 120.22 60.5176 119.604ZM59.7266 113.657C59.0137 111.265 57.7197 110.068 55.8447 110.068C55.0049 110.068 54.3359 110.332 53.8379 110.859C53.3496 111.387 53.1055 112.051 53.1055 112.852C53.1055 113.262 53.3301 113.56 53.7793 113.745C54.2383 113.921 54.9561 114.009 55.9326 114.009C56.5869 114.009 57.2412 113.979 57.8955 113.921C58.5498 113.853 59.1602 113.765 59.7266 113.657ZM65.2197 112.939H68.2227C69.4727 112.939 70.4541 112.798 71.167 112.515C71.8896 112.222 72.4268 111.714 72.7783 110.991C73.1299 110.259 73.3789 109.233 73.5254 107.915L76.0742 107.71C75.9961 109.087 75.835 110.361 75.5908 111.533C76.1279 112.061 76.7578 112.427 77.4805 112.632C78.2031 112.837 79.0918 112.939 80.1465 112.939H80.2637V120H80.1025C78.6865 120 77.4951 119.683 76.5283 119.048C75.5713 118.403 74.8828 117.383 74.4629 115.986C73.6621 118.662 71.582 120 68.2227 120H65.2197C64.8682 120 64.6143 119.727 64.458 119.18C64.3018 118.623 64.2236 117.72 64.2236 116.47C64.2236 115.22 64.3018 114.321 64.458 113.774C64.6143 113.218 64.8682 112.939 65.2197 112.939ZM67.7686 122.007C68.7744 122.729 69.7119 123.56 70.5811 124.497L68.0762 127.354C67.1582 126.387 66.2256 125.562 65.2783 124.878L67.7686 122.007ZM72.9834 122.007C73.9893 122.729 74.9268 123.56 75.7959 124.497L73.291 127.354C72.373 126.387 71.4404 125.562 70.4932 124.878L72.9834 122.007ZM80.2783 112.939C82.4756 112.939 83.9697 112.686 84.7607 112.178L83.0615 98.3789L88.3936 95.4492L88.0859 110.332C88.0078 113.662 87.3486 116.108 86.1084 117.671C84.8682 119.224 82.9248 120 80.2783 120C79.9268 120 79.6729 119.727 79.5166 119.18C79.3604 118.623 79.2822 117.72 79.2822 116.47C79.2822 115.22 79.3604 114.321 79.5166 113.774C79.6729 113.218 79.9268 112.939 80.2783 112.939ZM100.859 119.604C100.195 119.78 99.4922 119.917 98.75 120.015C98.0176 120.112 97.2754 120.161 96.5234 120.161C94.707 120.161 93.3203 119.761 92.3633 118.96C91.416 118.159 90.9424 116.992 90.9424 115.459C90.9424 113.574 91.2012 111.865 91.7188 110.332C92.2461 108.799 92.9688 107.578 93.8867 106.67C94.8047 105.762 95.8594 105.308 97.0508 105.308C98.6816 105.308 100.054 106.006 101.167 107.402C102.29 108.789 103.076 110.635 103.525 112.939H105.562V120H103.745C103.433 122.617 102.563 124.634 101.138 126.05C99.7119 127.476 97.7197 128.193 95.1611 128.203L89.7119 126.899L90.5469 123.34C92.6562 123.379 94.5117 123.228 96.1133 122.886C97.7246 122.544 99.3213 122.065 100.903 121.45C100.903 120.835 100.889 120.22 100.859 119.604ZM100.068 113.657C99.3555 111.265 98.0615 110.068 96.1865 110.068C95.3467 110.068 94.6777 110.332 94.1797 110.859C93.6914 111.387 93.4473 112.051 93.4473 112.852C93.4473 113.262 93.6719 113.56 94.1211 113.745C94.5801 113.921 95.2979 114.009 96.2744 114.009C96.9287 114.009 97.583 113.979 98.2373 113.921C98.8916 113.853 99.502 113.765 100.068 113.657ZM105.562 112.939H107.437C107.095 112.432 106.924 111.865 106.924 111.24C106.924 110.273 107.119 109.282 107.51 108.267C107.9 107.241 108.408 106.299 109.033 105.439C109.668 104.57 110.352 103.867 111.084 103.33C111.826 102.793 112.549 102.524 113.252 102.524C114.189 102.524 115.034 102.832 115.786 103.447C116.548 104.053 117.148 104.878 117.588 105.923C118.037 106.958 118.262 108.12 118.262 109.409C118.262 110.63 117.856 111.812 117.046 112.954C117.349 112.944 117.681 112.939 118.042 112.939C118.413 112.939 118.931 112.939 119.595 112.939H119.609V120H119.58C116.68 120 114.229 119.121 112.227 117.363C111.289 118.242 110.259 118.901 109.136 119.341C108.013 119.78 106.821 120 105.562 120C105.21 120 104.956 119.727 104.8 119.18C104.644 118.623 104.565 117.72 104.565 116.47C104.565 115.22 104.644 114.321 104.8 113.774C104.956 113.218 105.21 112.939 105.562 112.939ZM111.978 107.197C111.538 107.441 111.128 107.749 110.747 108.12C110.366 108.491 110.054 108.877 109.81 109.277C109.575 109.678 109.458 110.034 109.458 110.347C109.458 111.128 110.581 111.826 112.827 112.441C113.687 112.256 114.355 111.978 114.834 111.606C115.312 111.235 115.552 110.801 115.552 110.303C115.552 109.912 115.391 109.507 115.068 109.087C114.756 108.667 114.326 108.286 113.779 107.944C113.242 107.603 112.642 107.354 111.978 107.197ZM112.725 94.2188C113.73 94.9414 114.668 95.7715 115.537 96.709L113.032 99.5654C112.114 98.5986 111.182 97.7734 110.234 97.0898L112.725 94.2188ZM119.624 112.939C120.903 112.939 121.904 112.798 122.627 112.515C123.35 112.231 123.887 111.729 124.238 111.006C124.59 110.273 124.839 109.243 124.985 107.915L127.534 107.71C127.485 108.442 127.422 109.126 127.344 109.761C127.266 110.396 127.173 110.986 127.065 111.533C127.563 112.051 128.174 112.417 128.896 112.632C129.619 112.837 130.522 112.939 131.606 112.939H131.738V120H131.562C128.594 120 126.714 118.662 125.923 115.986C125.122 118.662 123.022 120 119.624 120C119.272 120 119.019 119.727 118.862 119.18C118.706 118.623 118.628 117.72 118.628 116.47C118.628 115.229 118.706 114.331 118.862 113.774C119.019 113.218 119.272 112.939 119.624 112.939ZM121.265 99.7998C122.271 100.522 123.208 101.353 124.077 102.29L121.572 105.146C120.654 104.18 119.722 103.354 118.774 102.671L121.265 99.7998ZM126.479 99.7998C127.485 100.522 128.423 101.353 129.292 102.29L126.787 105.146C125.869 104.18 124.937 103.354 123.989 102.671L126.479 99.7998ZM131.753 112.939C133.013 112.939 134.033 112.915 134.814 112.866C135.605 112.808 136.25 112.715 136.748 112.588C136.543 111.699 136.294 110.83 136.001 109.98C135.718 109.131 135.366 108.281 134.946 107.432L139.326 104.297C139.678 105.781 139.946 107.188 140.132 108.516C140.327 109.834 140.425 110.981 140.425 111.958C140.425 114.585 139.78 116.582 138.491 117.949C137.212 119.316 135.337 120 132.866 120H131.753C131.401 120 131.147 119.727 130.991 119.18C130.835 118.623 130.757 117.72 130.757 116.47C130.757 115.229 130.835 114.331 130.991 113.774C131.147 113.218 131.401 112.939 131.753 112.939ZM134.316 97.8369C135.322 98.5596 136.26 99.3896 137.129 100.327L134.624 103.184C133.706 102.217 132.773 101.392 131.826 100.708L134.316 97.8369ZM152.891 119.604C152.227 119.78 151.523 119.917 150.781 120.015C150.049 120.112 149.307 120.161 148.555 120.161C146.738 120.161 145.352 119.761 144.395 118.96C143.447 118.159 142.974 116.992 142.974 115.459C142.974 113.574 143.232 111.865 143.75 110.332C144.277 108.799 145 107.578 145.918 106.67C146.836 105.762 147.891 105.308 149.082 105.308C150.713 105.308 152.085 106.006 153.198 107.402C154.321 108.789 155.107 110.635 155.557 112.939H157.593V120H155.776C155.464 122.617 154.595 124.634 153.169 126.05C151.743 127.476 149.751 128.193 147.192 128.203L141.743 126.899L142.578 123.34C144.688 123.379 146.543 123.228 148.145 122.886C149.756 122.544 151.353 122.065 152.935 121.45C152.935 120.835 152.92 120.22 152.891 119.604ZM152.1 113.657C151.387 111.265 150.093 110.068 148.218 110.068C147.378 110.068 146.709 110.332 146.211 110.859C145.723 111.387 145.479 112.051 145.479 112.852C145.479 113.262 145.703 113.56 146.152 113.745C146.611 113.921 147.329 114.009 148.306 114.009C148.96 114.009 149.614 113.979 150.269 113.921C150.923 113.853 151.533 113.765 152.1 113.657ZM157.593 112.939H160.537C161.748 112.939 162.754 112.915 163.555 112.866C164.355 112.817 165.015 112.725 165.532 112.588C165.132 110.791 164.531 109.072 163.73 107.432L168.125 104.297C168.467 105.771 168.73 107.168 168.916 108.486C169.111 109.805 169.209 110.962 169.209 111.958C169.209 114.585 168.569 116.582 167.29 117.949C166.021 119.316 164.18 120 161.768 120H157.593C157.241 120 156.987 119.727 156.831 119.18C156.675 118.623 156.597 117.72 156.597 116.47C156.597 115.22 156.675 114.321 156.831 113.774C156.987 113.218 157.241 112.939 157.593 112.939ZM160.142 122.007C161.147 122.729 162.085 123.56 162.954 124.497L160.449 127.354C159.531 126.387 158.599 125.562 157.651 124.878L160.142 122.007ZM165.356 122.007C166.362 122.729 167.3 123.56 168.169 124.497L165.664 127.354C164.746 126.387 163.813 125.562 162.866 124.878L165.356 122.007ZM162.734 126.885C163.652 127.549 164.512 128.315 165.312 129.185L163.027 131.792C162.188 130.903 161.333 130.146 160.464 129.521L162.734 126.885Z" fill="#3A3D81"/>
</svg>
