<svg width="223" height="222" viewBox="0 0 223 222" fill="none" xmlns="http://www.w3.org/2000/svg">
<path d="M111.042 222C172.345 222 222.042 172.304 222.042 111C222.042 49.6964 172.345 0 111.042 0C49.738 0 0.0415649 49.6964 0.0415649 111C0.0415649 172.304 49.738 222 111.042 222Z" fill="#12499F"/>
<mask id="mask0_73_41" style="mask-type:luminance" maskUnits="userSpaceOnUse" x="0" y="0" width="222" height="222">
<path d="M111 222C172.304 222 222 172.304 222 111C222 49.6964 172.304 0 111 0C49.6964 0 0 49.6964 0 111C0 172.304 49.6964 222 111 222Z" fill="white"/>
</mask>
<g mask="url(#mask0_73_41)">
<path d="M164.002 84.3741V42.2808L142.643 49.1297V88.6417" fill="#12499F"/>
<path d="M216.004 6.62012H161.42V174.307H216.004V6.62012Z" fill="white"/>
<path d="M167.437 46.4026L184.466 40.6777V128.341H167.437V46.4026Z" fill="#FFDE9C"/>
<path d="M167.437 46.4026H184.466V40.6777L167.437 46.4026Z" fill="#1C3945"/>
<path d="M164.21 77.0254H131.943V142.039H164.21V77.0254Z" fill="#E2E2E2"/>
<path d="M167.437 126.801L184.466 128.341V136.418L167.437 134.899V126.801Z" fill="#12499F"/>
<path d="M169.206 135.003H164.21V136.418H184.466L169.206 135.003Z" fill="#1C3945"/>
<path d="M184.466 145.828H164.21V153.843H184.466H194.354V145.828H184.466Z" fill="#12499F"/>
<path d="M194.354 155.258H184.466H164.21V163.252H184.466H194.354H204.243V155.258H194.354Z" fill="#12499F"/>
<path d="M204.243 163.252H194.354H184.466H164.21V164.668H184.466H194.354H204.243H214.131L204.243 163.252Z" fill="#1C3945"/>
<path d="M184.466 144.412H164.21V145.828H184.466H194.354L184.466 144.412Z" fill="#1C3945"/>
<path d="M194.354 153.843H184.466H164.21V155.258H184.466H194.354H204.243L194.354 153.843Z" fill="#1C3945"/>
<path d="M204.243 164.668H194.354H184.466H164.21V172.683H184.466H194.354H204.243H214.131V164.668H204.243Z" fill="#12499F"/>
<path d="M184.466 136.418H164.21V144.412H184.466V136.418Z" fill="#12499F"/>
<path d="M204.243 174.099H194.354H184.466H164.21V182.093H184.466H194.354H204.243H214.131V174.099H204.243Z" fill="#CCE0DE"/>
<path d="M204.243 172.683H194.354H184.466H164.21V174.099H184.466H194.354H204.243H214.131V172.683H204.243Z" fill="#1C3945"/>
<path d="M142.643 59.6216H111.479V113.394H142.643V59.6216Z" fill="#E2E2E2"/>
<path d="M160.317 130.756V122.72H151.428V114.685H142.56V106.649H133.67V98.6135V73.6531H124.781L103.693 79.5444V98.6135V106.649V114.685V122.72V130.756V213.819H119.265H133.67H142.56H151.428H160.317H169.206V130.756H160.317Z" fill="#FFDE9C"/>
<path d="M152.552 130.756V122.72H143.663V114.684H134.774V106.649H125.885V98.6132V73.6528L111.479 76.484V59.6216L95.9279 64.5347V79.5441V98.6132V106.649V114.684V122.72V130.756V213.818H111.479H125.885H134.774H143.663H152.552H161.42V130.756H152.552Z" fill="white"/>
<path d="M118.723 192.585L102.485 184.466V193.167L148.805 215.734L161.129 213.819L118.723 192.585Z" fill="#E2E2E2"/>
<path d="M124.656 183.675L102.506 184.466L118.744 192.585L161.15 213.819H217.566V189.087V180.385L124.656 183.675Z" fill="#84B5BF"/>
<path d="M214.131 174.099H169.206V182.093H214.131V174.099Z" fill="#12499F"/>
<path d="M184.466 128.341L167.437 126.801H184.466V128.341Z" fill="#1C3945"/>
<path d="M32.3088 193.167H102.485L148.805 215.734H44.8828L32.3088 193.167Z" fill="#FFDE9C"/>
</g>
</svg>
