<?xml version="1.0" encoding="UTF-8" standalone="no"?>
<!-- Created with Inkscape (http://www.inkscape.org/) -->

<svg
   version="1.1"
   id="svg2"
   width="294.66666"
   height="121.33333"
   viewBox="0 0 294.66666 121.33333"
   sodipodi:docname="PUNTO_l_la_rev.eps"
   xmlns:inkscape="http://www.inkscape.org/namespaces/inkscape"
   xmlns:sodipodi="http://sodipodi.sourceforge.net/DTD/sodipodi-0.dtd"
   xmlns="http://www.w3.org/2000/svg"
   xmlns:svg="http://www.w3.org/2000/svg">
  <defs
     id="defs6" />
  <sodipodi:namedview
     id="namedview4"
     pagecolor="#ffffff"
     bordercolor="#000000"
     borderopacity="0.25"
     inkscape:showpageshadow="2"
     inkscape:pageopacity="0.0"
     inkscape:pagecheckerboard="0"
     inkscape:deskcolor="#d1d1d1" />
  <g
     id="g8"
     inkscape:groupmode="layer"
     inkscape:label="ink_ext_XXXXXX"
     transform="matrix(1.3333333,0,0,-1.3333333,0,121.33333)">
    <g
       id="g10"
       transform="scale(0.1)">
      <path
         d="M 2210,10 H 10 V 910 H 2210 V 10"
         style="fill:#050606;fill-opacity:1;fill-rule:nonzero;stroke:none"
         id="path12" />
      <path
         d="M 410.004,410 H 310 V 510 H 410.004 V 610 H 210 V 210 H 310 V 310 H 510 V 510 H 410.004 V 410"
         style="fill:#ffffff;fill-opacity:1;fill-rule:nonzero;stroke:none"
         id="path14" />
      <path
         d="m 460.004,512.703 c 26.117,0 47.297,21.176 47.297,47.297 0,26.125 -21.18,47.297 -47.297,47.297 -26.121,0 -47.301,-21.172 -47.301,-47.297 0,-26.121 21.18,-47.297 47.301,-47.297"
         style="fill:#ffffff;fill-opacity:1;fill-rule:nonzero;stroke:none"
         id="path16" />
      <path
         d="M 710,610 H 610 V 410 h 100 v 200"
         style="fill:#ffffff;fill-opacity:1;fill-rule:nonzero;stroke:none"
         id="path18" />
      <path
         d="M 810.004,410 H 710 V 310 h 200.004 v 300 h -100 V 410"
         style="fill:#ffffff;fill-opacity:1;fill-rule:nonzero;stroke:none"
         id="path20" />
      <path
         d="m 660,407.297 c -26.121,0 -47.293,-21.176 -47.293,-47.297 0,-26.121 21.172,-47.297 47.293,-47.297 26.121,0 47.297,21.176 47.297,47.297 0,26.121 -21.176,47.297 -47.297,47.297"
         style="fill:#ffffff;fill-opacity:1;fill-rule:nonzero;stroke:none"
         id="path22" />
      <path
         d="M 1010,610 V 310 h 100 v 200 h 100 v 100 h -200"
         style="fill:#ffffff;fill-opacity:1;fill-rule:nonzero;stroke:none"
         id="path24" />
      <path
         d="m 1210,310 h 100 V 510 H 1210 V 310"
         style="fill:#ffffff;fill-opacity:1;fill-rule:nonzero;stroke:none"
         id="path26" />
      <path
         d="m 1260,512.703 c 26.12,0 47.29,21.176 47.29,47.297 0,26.125 -21.17,47.297 -47.29,47.297 -26.12,0 -47.29,-21.172 -47.29,-47.297 0,-26.121 21.17,-47.297 47.29,-47.297"
         style="fill:#ffffff;fill-opacity:1;fill-rule:nonzero;stroke:none"
         id="path28" />
      <path
         d="M 1510,710 H 1410 V 410 h 100 v 100 h 100 v 100 h -100 v 100"
         style="fill:#ffffff;fill-opacity:1;fill-rule:nonzero;stroke:none"
         id="path30" />
      <path
         d="M 1610,310 V 410 H 1510 V 310 h 100"
         style="fill:#ffffff;fill-opacity:1;fill-rule:nonzero;stroke:none"
         id="path32" />
      <path
         d="m 1460,407.297 c -26.12,0 -47.29,-21.176 -47.29,-47.297 0,-26.121 21.17,-47.297 47.29,-47.297 26.12,0 47.29,21.176 47.29,47.297 0,26.121 -21.17,47.297 -47.29,47.297"
         style="fill:#ffffff;fill-opacity:1;fill-rule:nonzero;stroke:none"
         id="path34" />
      <path
         d="M 1910,610 H 1810 V 510 h 100 v 100"
         style="fill:#ffffff;fill-opacity:1;fill-rule:nonzero;stroke:none"
         id="path36" />
      <path
         d="M 1710,510 V 410 h 100 v 100 h -100"
         style="fill:#ffffff;fill-opacity:1;fill-rule:nonzero;stroke:none"
         id="path38" />
      <path
         d="m 1760,407.297 c -26.12,0 -47.29,-21.176 -47.29,-47.297 0,-26.121 21.17,-47.297 47.29,-47.297 26.12,0 47.29,21.176 47.29,47.297 0,26.121 -21.17,47.297 -47.29,47.297"
         style="fill:#ffffff;fill-opacity:1;fill-rule:nonzero;stroke:none"
         id="path40" />
      <path
         d="m 1760,512.703 c 26.12,0 47.29,21.176 47.29,47.297 0,26.125 -21.17,47.297 -47.29,47.297 -26.12,0 -47.29,-21.172 -47.29,-47.297 0,-26.121 21.17,-47.297 47.29,-47.297"
         style="fill:#ffffff;fill-opacity:1;fill-rule:nonzero;stroke:none"
         id="path42" />
      <path
         d="m 1960,512.703 c 26.12,0 47.29,21.176 47.29,47.297 0,26.125 -21.17,47.297 -47.29,47.297 -26.12,0 -47.29,-21.172 -47.29,-47.297 0,-26.121 21.17,-47.297 47.29,-47.297"
         style="fill:#ffffff;fill-opacity:1;fill-rule:nonzero;stroke:none"
         id="path44" />
      <path
         d="M 1910,410 H 1810 V 310 h 100 v 100"
         style="fill:#ffffff;fill-opacity:1;fill-rule:nonzero;stroke:none"
         id="path46" />
      <path
         d="M 2010,510 H 1910 V 410 h 100 v 100"
         style="fill:#ffffff;fill-opacity:1;fill-rule:nonzero;stroke:none"
         id="path48" />
      <path
         d="m 1959.99,407.309 c -26.12,0 -47.29,-21.18 -47.29,-47.301 0,-26.121 21.17,-47.297 47.29,-47.297 26.12,0 47.29,21.176 47.29,47.297 0,26.121 -21.17,47.301 -47.29,47.301"
         style="fill:#ffffff;fill-opacity:1;fill-rule:nonzero;stroke:none"
         id="path50" />
    </g>
  </g>
</svg>
