<svg width="222" height="222" viewBox="0 0 222 222" fill="none" xmlns="http://www.w3.org/2000/svg">
<path d="M111 222C172.304 222 222 172.304 222 111C222 49.6964 172.304 0 111 0C49.6964 0 0 49.6964 0 111C0 172.304 49.6964 222 111 222Z" fill="#E2E2E2"/>
<mask id="mask0_73_133" style="mask-type:luminance" maskUnits="userSpaceOnUse" x="0" y="0" width="222" height="222">
<path d="M111 222C172.304 222 222 172.304 222 111C222 49.6964 172.304 0 111 0C49.6964 0 0 49.6964 0 111C0 172.304 49.6964 222 111 222Z" fill="white"/>
</mask>
<g mask="url(#mask0_73_133)">
<path d="M102.278 97.406V182.675H220.043V99.4461L160.192 51.8777L102.278 97.406Z" fill="white"/>
<path d="M118.349 100.07V127.571L143.33 108.273V81.0847L118.349 100.07Z" fill="#051A25"/>
<path d="M160.192 125.635V51.8777L220.043 99.4461V173.203L160.192 125.635Z" fill="#84B5BF"/>
<path d="M44.3418 170.601V224.894L220.376 224.727V172.6L136.356 105.879L44.3418 170.601Z" fill="white"/>
<path d="M44.4043 184.424V224.727H220.376V187.255L136.356 120.534L44.4043 184.424Z" fill="#84B5BF"/>
<path d="M136.356 120.534V105.879L220.376 172.6V187.255L136.356 120.534Z" fill="#12499F"/>
<path d="M141.519 184.611L191.565 224.769H151.511L141.519 184.611Z" fill="#12499F"/>
<path d="M153.156 194.25V224.727H122.325V194.25C122.325 191.169 124.032 188.317 126.78 186.901C133.65 183.362 141.831 183.362 148.701 186.901C151.449 188.317 153.156 191.169 153.156 194.25Z" fill="white"/>
</g>
<path d="M119.785 37.2222H111.208V45.7991H119.785V37.2222Z" fill="#84B5BF"/>
<path d="M119.785 50.7744H111.208V59.3514H119.785V50.7744Z" fill="#84B5BF"/>
<path d="M136.585 37.2222H128.008V45.7991H136.585V37.2222Z" fill="#84B5BF"/>
</svg>
