<svg width="223" height="222" viewBox="0 0 223 222" fill="none" xmlns="http://www.w3.org/2000/svg">
<path d="M111.042 222C172.345 222 222.042 172.304 222.042 111C222.042 49.6964 172.345 0 111.042 0C49.7382 0 0.041748 49.6964 0.041748 111C0.041748 172.304 49.7382 222 111.042 222Z" fill="#E2E2E2"/>
<mask id="mask0_73_4" style="mask-type:luminance" maskUnits="userSpaceOnUse" x="0" y="0" width="223" height="222">
<path d="M111.042 222C172.345 222 222.042 172.304 222.042 111C222.042 49.6964 172.345 0 111.042 0C49.7382 0 0.041748 49.6964 0.041748 111C0.041748 172.304 49.7382 222 111.042 222Z" fill="white"/>
</mask>
<g mask="url(#mask0_73_4)">
<path d="M122.096 43.2593H37.472V187.88H122.096V43.2593Z" fill="white"/>
<path d="M42.5307 -12.7197H-22.5038V271.962H42.5307V-12.7197Z" fill="#12499F"/>
<path d="M117.454 43.2383H123.866C146.64 43.2383 165.126 61.7244 165.126 84.499V202.994H76.1929V84.499C76.1929 61.7244 94.6791 43.2383 117.454 43.2383Z" fill="#84B5BF"/>
<path d="M147.119 167.166H94.2004V88.3502C94.2004 73.7362 106.046 61.8909 120.66 61.8909C135.274 61.8909 147.119 73.7362 147.119 88.3502V167.166Z" fill="#12499F"/>
<path d="M140.624 167.166H100.633V83.1874C100.633 72.1332 109.585 63.1816 120.639 63.1816C131.693 63.1816 140.645 72.1332 140.645 83.1874V167.166H140.624Z" fill="#FFDE9C"/>
<path d="M151.949 89.0581H89.2248V98.2803H151.949V89.0581Z" fill="white"/>
<path d="M26.4178 83.479H-6.43262V202.994H26.4178V83.479Z" fill="#FFDE9C"/>
<path d="M-6.43262 83.479V85.7482H20.2974V202.994H26.4178V83.479H-6.43262Z" fill="#12499F"/>
<path d="M26.4178 39.054H-6.43262V73.757H26.4178V39.054Z" fill="#FFDE9C"/>
<path d="M-6.43262 39.054V41.1564H20.0683V73.757H26.4178V39.054H-6.43262Z" fill="#12499F"/>
<path d="M26.4178 -6.57837H-6.43262V28.1249H26.4178V-6.57837Z" fill="#FFDE9C"/>
<path d="M-6.43262 -6.57837V-4.47576H20.0683V28.1249H26.4178V-6.57837H-6.43262Z" fill="#12499F"/>
<path d="M68.7609 163.669H150.679V150.575H68.7609V163.669Z" fill="#12499F"/>
<path d="M55.6667 176.784H137.584V163.69H55.6667V176.784Z" fill="#84B5BF"/>
<path d="M42.5722 189.878H124.49V176.784H42.5722V189.878Z" fill="#12499F"/>
<path d="M29.478 202.973H111.396V189.878H29.478V202.973Z" fill="#84B5BF"/>
<path d="M100.05 202.994H-22.5038V214.485H100.05V202.994Z" fill="#12499F"/>
<path d="M77.213 214.485H-22.5038V225.976H77.213V214.485Z" fill="#84B5BF"/>
<path d="M150.679 150.595V163.669H137.584V176.763H124.49V189.858H111.396V202.993H100.071V214.485H77.2338V225.997H87.8716V237.488H97.989V248.98H107.565V260.471H111.396V273.461H182.447V150.595H150.679Z" fill="#FFDE9C"/>
</g>
</svg>
