<svg  viewBox="0 0 1920 2263" fill="none" xmlns="http://www.w3.org/2000/svg" preserveAspectRatio="none">
<g clip-path="url(#clip0_89_5520)">
<path d="M1093.98 2169.86H1162.74V2154.84H1093.98V2169.86Z" fill="#12499F"/>
<path d="M1180.64 2169.86H1195.66V2154.84H1180.64V2169.86Z" fill="#12499F"/>
<path d="M1152.16 566.975H1141.65V556.463H1152.16V566.975Z" fill="#12499F"/>
<path d="M1124.73 890.116C1124.73 959.674 1068.34 1016.06 998.78 1016.06C929.221 1016.06 872.832 959.673 872.832 890.116C872.832 820.557 929.22 764.168 998.78 764.168C1068.34 764.168 1124.73 820.557 1124.73 890.116Z" fill="#FFDE9C"/>
<path d="M1608 834H1329V424.973L1608 302V834Z" fill="#3A3D81"/>
<path d="M1442.25 741.009L1376.21 760.777V582.858L1442.25 563.09V741.009Z" fill="#F6EBE2"/>
<path d="M1389.69 589.149L1442.25 573.415V563.09L1376.21 582.858V760.777L1389.69 756.742V589.149Z" fill="#151F28"/>
<path d="M1608 834H1751V406.753L1608 302V834Z" fill="white"/>
<path d="M1919.46 974.41L1724.95 867.588V694.022L1919.46 855.617V974.41Z" fill="white"/>
<path d="M1405.75 935.508L1724.95 867.588V694.022L1405.75 816.715V935.508Z" fill="#90B0B2"/>
<path d="M1405.75 935.508L1724.95 867.588L1919.46 974.41C1643.5 1003.31 1675.9 1015.43 1405.75 935.508Z" fill="#FFDE9C"/>
<path d="M1148.39 1039.16L1399.76 955.458V781.892L1148.39 890.349V1039.16Z" fill="#90B0B2"/>
<path d="M1369.84 819.787L1169.34 906.294V945.197L1369.84 858.689V819.787Z" fill="#151F28"/>
<path d="M1179.57 912.778L1369.84 830.681V819.787L1169.34 906.294V945.197L1179.57 940.785V912.778Z" fill="#435190"/>
<path d="M1815.97 1102.31L1399.76 955.458V781.892L1815.97 983.516V1102.31Z" fill="white"/>
<path d="M1598.02 1041.64V994.506L1731.19 965.328L1876.32 1027.42V1074.57L1598.02 1041.64Z" fill="#FFDE9C"/>
<path d="M1731.19 965.328L1598.02 994.506V1041.64L1731.19 1057.27V965.328Z" fill="#3A3D81"/>
<path d="M1815.97 1102.31L1399.76 955.457L1148.39 1039.16C1313.48 1072.98 1647.42 1104 1815.97 1102.31Z" fill="#3A3D81"/>
<path d="M1891.53 1159.86V1052.03L1724.95 989.283V1159.86H1891.53Z" fill="white"/>
<path d="M1724.95 1159.86V989.283L1338.67 1068.09V1159.86H1724.95Z" fill="#CD6266"/>
<path d="M1724.95 1159.86V989.283L1338.67 1068.09V1159.86H1724.95Z" fill="#90B0B2"/>
<path d="M1449.14 1082.11V1140.18L1488.79 1137.96V1076.4L1449.14 1082.11Z" fill="#3A3D81"/>
<path d="M1453.01 1085.6L1488.79 1080.45V1076.4L1449.14 1082.11V1140.18L1453.01 1139.97V1085.6Z" fill="#151F28"/>
<path d="M1503.75 1074.24V1137.12L1547.89 1134.64V1067.89L1503.75 1074.24Z" fill="#3A3D81"/>
<path d="M1507.99 1077.86L1547.89 1072.11V1067.89L1503.75 1074.24V1137.12L1507.99 1136.88V1077.86Z" fill="#151F28"/>
<path d="M1564.85 1065.45V1133.68L1615.72 1130.83V1058.12L1564.85 1065.45Z" fill="#3A3D81"/>
<path d="M1569.34 1069.44L1615.72 1063.77V1058.12L1564.85 1065.45V1133.68L1569.34 1133.43V1069.44Z" fill="#151F28"/>
<path d="M1635.67 1055.25V1129.71L1695.02 1126.37V1046.71L1635.67 1055.25Z" fill="#3A3D81"/>
<path d="M1642.03 1060.49L1695.02 1052.86V1046.71L1635.67 1055.25V1129.71L1642.03 1129.35V1060.49Z" fill="#151F28"/>
<path d="M1750.88 1039.19V1159.86H1763.85V1042.81L1750.88 1039.19Z" fill="#151F28"/>
<path d="M1773.7 1045.56V1159.86H1786.67V1049.19L1773.7 1045.56Z" fill="#151F28"/>
<path d="M1796.52 1051.94V1159.86H1809.49V1055.56L1796.52 1051.94Z" fill="#151F28"/>
<path d="M1819.34 1058.31V1159.86H1832.31V1061.94L1819.34 1058.31Z" fill="#151F28"/>
<path d="M1919.58 1200.71H1148.39V1169.67H1919.58V1200.71Z" fill="#3A3D81"/>
<path d="M1148.39 1039.5H414.827L624.609 890.457H1148.39V1039.5Z" fill="#3A3D81"/>
<path d="M508 1696.5C508 1842.58 626.197 1961 772 1961C917.803 1961 1036 1842.58 1036 1696.5C1036 1550.42 917.803 1432 772 1432C626.197 1432 508 1550.42 508 1696.5Z" fill="#FFDE9C"/>
<path d="M866.285 2202.08C866.285 2195.11 872.057 2191.3 877.063 2191.3C877.227 2191.3 877.39 2191.3 877.551 2191.31C878.085 2190.57 878.753 2189.93 879.513 2189.42C879.212 2190.1 879.009 2190.83 878.917 2191.6C879.386 2190.81 880.128 2190.21 881.012 2189.93C880.578 2190.66 880.262 2191.47 880.092 2192.34C880.828 2193.03 881.289 2194.01 881.289 2195.1C881.289 2197.19 879.592 2198.89 877.502 2198.89C877.204 2198.89 876.916 2198.86 876.639 2198.79C876.797 2201.94 878.304 2204.73 880.597 2206.6C880.037 2206.92 879.386 2207.11 878.693 2207.11C877.379 2207.11 876.22 2206.44 875.54 2205.42C875.559 2206.05 875.729 2206.63 876.013 2207.14C875.998 2207.14 875.981 2207.14 875.965 2207.14C874.131 2207.14 872.6 2205.84 872.251 2204.1C872.164 2204.42 872.118 2204.75 872.118 2205.1C872.118 2205.35 872.142 2205.58 872.186 2205.81C870.68 2205.33 869.585 2203.93 869.554 2202.27C868.539 2203.57 867.933 2205.2 867.933 2206.98C867.933 2207.28 867.951 2207.59 867.985 2207.88C866.91 2206.2 866.283 2204.21 866.283 2202.07L866.285 2202.08Z" fill="#151F28"/>
<path d="M881.192 2166.42C881.192 2164.01 881.182 2163.72 881.138 2162.77C881.099 2161.89 880.952 2161.41 880.828 2161.09C880.664 2160.67 880.467 2160.37 880.151 2160.06C879.835 2159.74 879.534 2159.54 879.113 2159.38C878.795 2159.26 878.316 2159.11 877.436 2159.07C876.484 2159.03 876.198 2159.02 873.785 2159.02C871.374 2159.02 871.088 2159.03 870.136 2159.07C869.254 2159.11 868.777 2159.26 868.459 2159.38C868.038 2159.54 867.736 2159.74 867.421 2160.06C867.105 2160.37 866.908 2160.67 866.746 2161.09C866.622 2161.41 866.475 2161.89 866.435 2162.77C866.393 2163.72 866.383 2164.01 866.383 2166.42C866.383 2168.83 866.393 2169.12 866.435 2170.07C866.476 2170.95 866.623 2171.43 866.746 2171.75C866.91 2172.17 867.105 2172.47 867.421 2172.79C867.737 2173.1 868.038 2173.3 868.459 2173.46C868.777 2173.59 869.256 2173.74 870.136 2173.77C871.088 2173.82 871.374 2173.83 873.785 2173.83C876.198 2173.83 876.483 2173.82 877.436 2173.77C878.318 2173.74 878.795 2173.59 879.113 2173.46C879.535 2173.3 879.836 2173.1 880.151 2172.79C880.467 2172.47 880.664 2172.17 880.828 2171.75C880.95 2171.43 881.099 2170.95 881.138 2170.07C881.182 2169.12 881.192 2168.83 881.192 2166.42ZM882.819 2166.42C882.819 2168.87 882.809 2169.18 882.764 2170.15C882.72 2171.11 882.568 2171.76 882.345 2172.34C882.114 2172.93 881.805 2173.44 881.304 2173.94C880.801 2174.44 880.297 2174.75 879.703 2174.98C879.128 2175.2 878.472 2175.36 877.511 2175.4C876.548 2175.44 876.24 2175.46 873.787 2175.46C871.333 2175.46 871.025 2175.44 870.062 2175.4C869.1 2175.36 868.444 2175.2 867.87 2174.98C867.275 2174.75 866.771 2174.44 866.27 2173.94C865.767 2173.44 865.459 2172.93 865.227 2172.34C865.004 2171.76 864.852 2171.11 864.808 2170.15C864.764 2169.18 864.753 2168.87 864.753 2166.42C864.753 2163.97 864.763 2163.66 864.808 2162.7C864.852 2161.74 865.004 2161.08 865.227 2160.5C865.458 2159.91 865.767 2159.41 866.27 2158.9C866.773 2158.4 867.275 2158.09 867.87 2157.86C868.445 2157.64 869.102 2157.49 870.062 2157.44C871.025 2157.4 871.333 2157.39 873.787 2157.39C876.24 2157.39 876.548 2157.4 877.511 2157.44C878.472 2157.49 879.13 2157.64 879.703 2157.86C880.297 2158.09 880.801 2158.4 881.304 2158.9C881.806 2159.41 882.114 2159.91 882.345 2160.5C882.568 2161.08 882.72 2161.74 882.764 2162.7C882.808 2163.66 882.819 2163.97 882.819 2166.42Z" fill="#151F28"/>
<path d="M878.425 2166.42C878.425 2168.98 876.348 2171.06 873.786 2171.06C871.224 2171.06 869.146 2168.98 869.146 2166.42C869.146 2163.86 871.223 2161.78 873.786 2161.78C876.348 2161.78 878.425 2163.86 878.425 2166.42ZM870.775 2166.42C870.775 2168.08 872.122 2169.43 873.786 2169.43C875.45 2169.43 876.798 2168.08 876.798 2166.42C876.798 2164.76 875.45 2163.41 873.786 2163.41C872.122 2163.41 870.775 2164.76 870.775 2166.42Z" fill="#151F28"/>
<path d="M878.609 2160.52C878.01 2160.52 877.526 2161 877.526 2161.6C877.526 2162.2 878.012 2162.68 878.609 2162.68C879.208 2162.68 879.694 2162.2 879.694 2161.6C879.694 2161 879.208 2160.52 878.609 2160.52Z" fill="#151F28"/>
<path d="M865.011 2137.51H873.015V2134.82L876.135 2134.42V2137.51H878.127C879.029 2137.51 879.647 2137.26 879.647 2135.96V2134.31H882.438C882.476 2134.59 882.56 2135.57 882.56 2136.72C882.56 2139.1 881.106 2140.73 878.436 2140.73H876.135V2143.42H873.015V2140.73H865.011V2137.51Z" fill="#151F28"/>
<path d="M229.523 1722.71V1546.23L319.154 1574.97V1740.6L229.523 1722.71Z" fill="#3A3D81"/>
<path d="M4.07227 2099.86H240.359V1396.63L4.07227 1198.02V2099.86Z" fill="white"/>
<path d="M215.179 1563.51L143.756 1539.47V1907.11H215.179V1563.51Z" fill="#FFDE9C"/>
<path d="M215.179 1563.51H143.756V1539.47L215.179 1563.51Z" fill="#2A3B46"/>
<path d="M363.973 1964.57H228.684V1691.93H363.973V1964.57Z" fill="#90B0B2"/>
<path d="M215.179 1900.7L143.756 1907.11V1940.99L215.179 1934.58V1900.7Z" fill="#3A3D81"/>
<path d="M207.738 1935.04H228.684V1940.99H143.756L207.738 1935.04Z" fill="#2A3B46"/>
<path d="M143.756 1980.49H228.684V2014.04H143.756H102.293V1980.49H143.756Z" fill="#3A3D81"/>
<path d="M102.293 2019.99H143.756H228.684V2053.54H143.756H102.293H60.8291V2019.99H102.293Z" fill="#3A3D81"/>
<path d="M60.8275 2053.54H102.292H143.754H228.683V2059.49H143.754H102.292H60.8275H19.3633L60.8275 2053.54Z" fill="#2A3B46"/>
<path d="M143.756 1974.54H228.684V1980.49H143.756H102.293L143.756 1974.54Z" fill="#2A3B46"/>
<path d="M102.293 2014.04H143.756H228.684V2019.99H143.756H102.293H60.8291L102.293 2014.04Z" fill="#2A3B46"/>
<path d="M60.8275 2059.49H102.292H143.754H228.683V2093.04H143.754H102.292H60.8275H19.3633V2059.49H60.8275Z" fill="#3A3D81"/>
<path d="M143.756 1940.99H228.684V1974.54H143.756V1940.99Z" fill="#3A3D81"/>
<path d="M60.8275 2098.99H102.292H143.754H228.683V2132.54H143.754H102.292H60.8275H19.3633V2098.99H60.8275Z" fill="#D1DFDD"/>
<path d="M60.8275 2093.04H102.292H143.754H228.683V2098.99H143.754H102.292H60.8275H19.3633V2093.04H60.8275Z" fill="#2A3B46"/>
<path d="M319.153 1844.39H449.817V1618.92H319.153V1844.39Z" fill="#90B0B2"/>
<path d="M244.993 1915.75V1882.21H282.249V1848.67H319.506V1815.13H356.762V1781.59V1677.46H394.018L482.436 1702.09V1781.59V1815.13V1848.67V1882.21V1915.75V2262.25H417.195H356.762H319.506H282.249H244.993H207.737V1915.75H244.993Z" fill="#FFDE9C"/>
<path d="M277.616 1915.75V1882.21H314.871V1848.67H352.126V1815.13H389.383V1781.59V1677.46L449.817 1689.3V1618.92L515.058 1639.45V1702.09V1781.59V1815.13V1848.67V1882.21V1915.75V2262.25H449.817H389.383H352.126H314.871H277.616H240.359V1915.75H277.616Z" fill="white"/>
<path d="M4.07227 2098.99H207.738V2132.54H4.07227V2098.99Z" fill="#3A3D81"/>
<path d="M143.756 1907.11L215.179 1900.7H143.756V1907.11Z" fill="#2A3B46"/>
<path d="M633.384 1722.71V1546.23L723.014 1574.97V1740.6L633.384 1722.71Z" fill="#3A3D81"/>
<path d="M415.305 2099.86H644.22V1039.16H415.305V2099.86Z" fill="white"/>
<path d="M619.038 1563.51L547.616 1539.47V1907.11H619.038V1563.51Z" fill="#FFDE9C"/>
<path d="M619.038 1563.51H547.616V1539.47L619.038 1563.51Z" fill="#2A3B46"/>
<path d="M767.834 1964.57H632.545V1691.93H767.834V1964.57Z" fill="#90B0B2"/>
<path d="M619.038 1900.7L547.616 1907.11V1940.99L619.038 1934.58V1900.7Z" fill="#3A3D81"/>
<path d="M611.599 1935.04H632.545V1940.99H547.616L611.599 1935.04Z" fill="#2A3B46"/>
<path d="M547.616 1980.49H632.545V2014.04H547.616H506.153V1980.49H547.616Z" fill="#3A3D81"/>
<path d="M506.154 2019.99H547.616H632.545V2053.54H547.616H506.154H464.689V2019.99H506.154Z" fill="#3A3D81"/>
<path d="M464.69 2053.54H506.154H547.617H632.545V2059.49H547.617H506.154H464.69H423.226L464.69 2053.54Z" fill="#2A3B46"/>
<path d="M547.616 1974.54H632.545V1980.49H547.616H506.153L547.616 1974.54Z" fill="#2A3B46"/>
<path d="M506.154 2014.04H547.616H632.545V2019.99H547.616H506.154H464.689L506.154 2014.04Z" fill="#2A3B46"/>
<path d="M464.69 2059.49H506.154H547.617H632.545V2093.04H547.617H506.154H464.69H423.226V2059.49H464.69Z" fill="#3A3D81"/>
<path d="M547.616 1940.99H632.545V1974.54H547.616V1940.99Z" fill="#3A3D81"/>
<path d="M464.69 2098.99H506.154H547.617H632.545V2132.54H547.617H506.154H464.69H423.226V2098.99H464.69Z" fill="#D1DFDD"/>
<path d="M464.69 2093.04H506.154H547.617H632.545V2098.99H547.617H506.154H464.69H423.226V2093.04H464.69Z" fill="#2A3B46"/>
<path d="M723.015 1844.39H853.678V1618.92H723.015V1844.39Z" fill="#90B0B2"/>
<path d="M648.854 1915.75V1882.21H686.111V1848.67H723.367V1815.13H760.624V1781.59V1677.46H797.879L886.297 1702.09V1781.59V1815.13V1848.67V1882.21V1915.75V2262.25H821.057H760.624H723.367H686.111H648.854H611.599V1915.75H648.854Z" fill="#FFDE9C"/>
<path d="M681.475 1915.75V1882.21H718.732V1848.67H755.987V1815.13H793.243V1781.59V1677.46L853.678 1689.3V1618.92L918.919 1639.45V1702.09V1781.59V1815.13V1848.67V1882.21V1915.75V2262.25H853.678H793.243H755.987H718.732H681.475H644.22V1915.75H681.475Z" fill="white"/>
<path d="M423.226 2098.99H611.599V2178.99H423.226V2098.99Z" fill="#3A3D81"/>
<path d="M547.616 1907.11L619.038 1900.7H547.616V1907.11Z" fill="#2A3B46"/>
<path d="M419.432 2173.09L487.535 2138.99V2175.51L314.574 2262.11H241.644L419.432 2173.09Z" fill="white"/>
<path d="M393.686 2135.83L486.574 2139.13L418.471 2173.23L240.684 2262.25H4.07227V2158.52V2122L393.686 2135.83Z" fill="#90B0B2"/>
<path d="M415.305 1039.16L319.153 1118.25V1618.92H417.196L415.305 1039.16Z" fill="#FFDE9C"/>
<path d="M901.831 1250.11H856.167V1235.09H901.831V1250.11Z" fill="#12499F"/>
<path d="M123.668 794.9H192.421V779.885H123.668V794.9Z" fill="#FFDE9C"/>
<path d="M210.323 794.9H225.341V779.885H210.323V794.9Z" fill="#FFDE9C"/>
</g>
<defs>
<clipPath id="clip0_89_5520">
<rect width="1920" height="2263" fill="white"/>
</clipPath>
</defs>
</svg>
