<svg width="222" height="222" viewBox="0 0 222 222" fill="none" xmlns="http://www.w3.org/2000/svg">
<path d="M111 222C172.304 222 222 172.304 222 111C222 49.6964 172.304 0 111 0C49.6964 0 0 49.6964 0 111C0 172.304 49.6964 222 111 222Z" fill="#12499F"/>
<mask id="mask0_73_79" style="mask-type:luminance" maskUnits="userSpaceOnUse" x="0" y="0" width="222" height="222">
<path d="M111 222C172.304 222 222 172.304 222 111C222 49.6964 172.304 0 111 0C49.6964 0 0 49.6964 0 111C0 172.304 49.6964 222 111 222Z" fill="white"/>
</mask>
<g mask="url(#mask0_73_79)">
<path d="M120.326 157.028H64.9929V92.8678L120.326 73.5906V157.028Z" fill="#FFDE9C"/>
<path d="M87.4134 138.5L74.2982 142.435V107.065L87.4134 103.152V138.5Z" fill="#12499F"/>
<path d="M76.9629 108.314L87.4134 105.192V103.152L74.2982 107.065V142.435L76.9629 141.623V108.314Z" fill="#051A25"/>
<path d="M120.326 157.028H148.743V90.0158L120.326 73.5906V157.028Z" fill="white"/>
<path d="M182.238 184.882L143.58 163.648V129.153L182.238 161.275V184.882Z" fill="white"/>
<path d="M80.1483 177.159L143.58 163.648V129.153L80.1483 153.552V177.159Z" fill="#84B5BF"/>
<path d="M80.1482 177.159L143.58 163.669L182.238 184.903C127.404 190.649 133.837 193.064 80.1482 177.18V177.159Z" fill="#FFDE9C"/>
<path d="M29.0198 197.747L78.9615 181.114V146.619L29.0198 168.165V197.747Z" fill="#84B5BF"/>
<path d="M73.0285 154.155L33.1833 171.351V179.074L73.0285 161.879V154.155Z" fill="#051A25"/>
<path d="M35.2027 172.641L73.0285 156.32V154.155L33.1833 171.351V179.074L35.2027 178.2V172.641Z" fill="#FFDE9C"/>
<path d="M161.67 210.3L78.9614 181.114V146.619L161.67 186.693V210.3Z" fill="white"/>
<path d="M118.369 198.247V188.879L144.829 183.071L173.661 195.416V204.784L118.369 198.247Z" fill="#FFDE9C"/>
<path d="M144.829 183.071L118.369 188.879V198.247L144.829 201.349V183.071Z" fill="#FFDE9C"/>
<path d="M161.67 210.3L78.9615 181.114L29.0198 197.747C61.8285 204.472 128.175 210.634 161.67 210.3Z" fill="#FFDE9C"/>
<path d="M176.68 221.729V200.308L143.58 187.838V221.729H176.68Z" fill="white"/>
<path d="M143.58 221.729V187.838L66.8247 203.493V221.729H143.58Z" fill="#E96366"/>
<path d="M143.58 221.729V187.838L66.8247 203.493V221.729H143.58Z" fill="#84B5BF"/>
<path d="M88.7874 206.283V217.816L96.6565 217.379V205.138L88.7874 206.283Z" fill="#FFDE9C"/>
<path d="M89.5576 206.97L96.6565 205.95V205.138L88.7874 206.283V217.816L89.5576 217.774V206.97Z" fill="#051A25"/>
<path d="M99.6334 204.721V217.212L108.398 216.712V203.451L99.6334 204.721Z" fill="#FFDE9C"/>
<path d="M100.466 205.429L108.398 204.305V203.451L99.6334 204.721V217.212L100.466 217.17V205.429Z" fill="#051A25"/>
<path d="M111.77 202.973V216.525L121.888 215.963V201.515L111.77 202.973Z" fill="#FFDE9C"/>
<path d="M112.665 203.764L121.888 202.639V201.515L111.77 202.973V216.525L112.665 216.483V203.764Z" fill="#051A25"/>
<path d="M125.843 200.953V215.734L137.646 215.068V199.246L125.843 200.953Z" fill="#FFDE9C"/>
<path d="M127.113 201.994L137.646 200.475V199.246L125.843 200.953V215.734L127.113 215.672V201.994Z" fill="#051A25"/>
<path d="M148.742 197.747V221.729H151.324V198.476L148.742 197.747Z" fill="#051A25"/>
<path d="M153.281 199.017V221.73H155.862V199.746L153.281 199.017Z" fill="#051A25"/>
<path d="M157.819 200.287V221.73H160.38V200.995L157.819 200.287Z" fill="#051A25"/>
<path d="M162.336 201.557V221.729H164.918V202.265L162.336 201.557Z" fill="#051A25"/>
</g>
<path d="M175.722 103.88H167.145V112.457H175.722V103.88Z" fill="#84B5BF"/>
<path d="M175.722 117.412H167.145V125.989H175.722V117.412Z" fill="#84B5BF"/>
<path d="M192.501 103.88H183.924V112.457H192.501V103.88Z" fill="#84B5BF"/>
<path d="M43.8002 112.457H52.3771V103.88H43.8002V112.457Z" fill="#84B5BF"/>
<path d="M43.8002 126.01H52.3771V117.433H43.8002V126.01Z" fill="#84B5BF"/>
<path d="M27.0212 112.457H35.5981V103.88H27.0212V112.457Z" fill="#84B5BF"/>
</svg>
