<svg width="223" height="222" viewBox="0 0 223 222" fill="none" xmlns="http://www.w3.org/2000/svg">
<path d="M222.424 111C222.424 172.305 172.729 222 111.424 222C50.1212 222 0.424316 172.305 0.424316 111C0.424316 49.697 50.1197 0 111.424 0C172.729 0 222.424 49.6955 222.424 111Z" fill="#90B0B2"/>
<path d="M212.766 111.188C212.766 167.184 167.374 212.575 111.379 212.575C55.3833 212.575 9.99194 167.184 9.99194 111.188C9.99194 55.1929 55.3833 9.80151 111.379 9.80151C167.374 9.80151 212.766 55.1929 212.766 111.188Z" fill="#90B0B2" stroke="white" strokeWidth="0.66624" strokeMiterlimit="10"/>
<path d="M159.767 86.87V48.4309L140.243 54.6899V90.7656L159.767 86.87Z" stroke="white" strokeWidth="0.66624" strokeMiterlimit="2.61313"/>
<path d="M194.63 169.017H157.407V20.8452C180.646 32.7162 198.697 53.2919 207.268 78.2704V144.108C204.201 153.04 199.923 161.408 194.63 169.017Z" stroke="white" strokeWidth="0.66624" strokeMiterlimit="2.61313"/>
<path d="M162.891 52.1936L178.447 46.9578V127.033H162.891V52.1936Z" stroke="white" strokeWidth="0.66624" strokeMiterlimit="2.61313"/>
<path d="M162.891 52.1936H178.447V46.9578L162.891 52.1936Z" stroke="white" strokeWidth="0.66624" strokeMiterlimit="2.61313"/>
<path d="M130.48 139.548H159.95V80.1653H130.48V139.548Z" stroke="white" strokeWidth="0.66624" strokeMiterlimit="2.61313"/>
<path d="M162.891 125.638L178.447 127.033V134.413L162.891 133.016V125.638Z" stroke="white" strokeWidth="0.66624" strokeMiterlimit="2.61313"/>
<path d="M164.512 133.116H159.95V134.413H178.448L164.512 133.116Z" stroke="white" strokeWidth="0.66624" strokeMiterlimit="2.61313"/>
<path d="M178.448 134.413H159.949V141.72H178.448V134.413Z" stroke="white" strokeWidth="0.66624" strokeMiterlimit="2.61313"/>
<path d="M140.244 113.372H111.784V64.2651H140.244V113.372Z" stroke="white" strokeWidth="0.66624" strokeMiterlimit="2.61313"/>
<path d="M156.398 129.251V121.909H148.282V114.565H140.168V107.224H132.055V99.8794V77.0801H123.939L104.679 82.4714V99.881V107.225V114.567V121.911V129.252V205.117H118.889H132.055H140.168H148.282H149.574C154.783 202.994 159.779 200.452 164.514 197.531V129.254H156.399L156.398 129.251Z" stroke="white" strokeWidth="0.66624" strokeMiterlimit="2.61313"/>
<path d="M149.291 129.251V121.909H141.176V114.565H133.062V107.224H124.948V99.8795V77.0801L111.783 79.6727V64.2622L97.5732 68.7573V82.47V99.8795V107.224V114.565V121.909V129.251V205.116H111.783H124.948H133.062H141.176H149.291H149.571C152.24 204.028 154.854 202.836 157.405 201.535V129.252H149.291V129.251Z" stroke="white" strokeWidth="0.66624" strokeMiterlimit="2.61313"/>
<path d="M117.507 212.385L103.568 178.298" stroke="white" strokeWidth="0.37728" strokeMiterlimit="10"/>
<path d="M103.568 186.252L114.315 212.529" stroke="white" strokeWidth="0.37728" strokeMiterlimit="10"/>
<path d="M178.448 127.034L162.891 125.638H178.448V127.034Z" stroke="white" strokeWidth="0.66624" strokeMiterlimit="2.61313"/>
<path d="M43.1936 186.251H103.568L145.499 206.674L144.965 206.861H77.7315C64.8258 202.326 53.1118 195.261 43.1936 186.25V186.251Z" stroke="white" strokeWidth="0.66624" strokeMiterlimit="2.61313"/>
<path d="M67.0107 111.768C67.0107 113.994 66.4639 115.747 65.3701 117.026C64.4717 118.081 63.0752 118.867 61.1807 119.385C59.2959 119.902 57.0742 120.161 54.5156 120.161C51.8496 120.161 49.6621 119.927 47.9531 119.458C46.2441 118.989 44.9795 118.203 44.1592 117.1C43.3389 115.996 42.9287 114.497 42.9287 112.603C42.9287 111.733 42.9922 110.757 43.1191 109.673C43.2461 108.589 43.417 107.524 43.6318 106.479L46.4736 106.992C46.3467 107.705 46.2393 108.384 46.1514 109.028C46.0732 109.663 46.0293 110.278 46.0195 110.874C46.0781 111.479 46.4785 111.948 47.2207 112.28C47.9727 112.603 48.959 112.827 50.1797 112.954C51.4102 113.081 52.7822 113.145 54.2959 113.145C55.4287 113.145 56.6055 113.101 57.8262 113.013C59.0566 112.925 60.1797 112.803 61.1953 112.646C62.2109 112.49 62.9775 112.305 63.4951 112.09C63.29 111.338 63.002 110.547 62.6309 109.717C62.2695 108.877 61.8936 108.11 61.5029 107.417L65.9268 104.312C66.2588 105.698 66.5225 107.051 66.7178 108.369C66.9131 109.678 67.0107 110.811 67.0107 111.768ZM51.5566 101.851C52.5625 102.573 53.5 103.403 54.3691 104.341L51.8643 107.197C50.9463 106.23 50.0137 105.405 49.0664 104.722L51.5566 101.851ZM56.7715 101.851C57.7773 102.573 58.7148 103.403 59.584 104.341L57.0791 107.197C56.1611 106.23 55.2285 105.405 54.2812 104.722L56.7715 101.851ZM73.9541 109.951C73.9248 111.094 74.125 111.88 74.5547 112.31C74.9941 112.729 75.79 112.939 76.9424 112.939H76.957V120H76.9424C74.7061 120 73.0215 119.36 71.8887 118.081C70.7656 116.792 70.1113 114.771 69.9258 112.017L68.9883 98.3643L74.3203 95.4492L73.9541 109.951ZM76.957 112.939C78.2363 112.939 79.2373 112.798 79.96 112.515C80.6826 112.231 81.2197 111.729 81.5713 111.006C81.9229 110.273 82.1719 109.243 82.3184 107.915L84.8672 107.71C84.8184 108.442 84.7549 109.126 84.6768 109.761C84.5986 110.396 84.5059 110.986 84.3984 111.533C84.8965 112.051 85.5068 112.417 86.2295 112.632C86.9521 112.837 87.8555 112.939 88.9395 112.939H89.0713V120H88.8955C85.9268 120 84.0469 118.662 83.2559 115.986C82.4551 118.662 80.3555 120 76.957 120C76.6055 120 76.3516 119.727 76.1953 119.18C76.0391 118.623 75.9609 117.72 75.9609 116.47C75.9609 115.229 76.0391 114.331 76.1953 113.774C76.3516 113.218 76.6055 112.939 76.957 112.939ZM76.5469 122.007C77.5527 122.729 78.4902 123.56 79.3594 124.497L76.8545 127.354C75.9365 126.387 75.0039 125.562 74.0566 124.878L76.5469 122.007ZM81.7617 122.007C82.7676 122.729 83.7051 123.56 84.5742 124.497L82.0693 127.354C81.1514 126.387 80.2188 125.562 79.2715 124.878L81.7617 122.007ZM79.1396 126.885C80.0576 127.549 80.917 128.315 81.7178 129.185L79.4326 131.792C78.5928 130.903 77.7383 130.146 76.8691 129.521L79.1396 126.885ZM89.0859 112.939C89.8965 112.939 90.5654 112.886 91.0928 112.778C91.6201 112.661 92.0547 112.437 92.3965 112.104C92.7383 111.763 93.0361 111.27 93.29 110.625C93.5439 109.98 93.8027 109.126 94.0664 108.062L96.4102 108.384C96.2734 109.351 96.1416 110.146 96.0146 110.771C95.8975 111.387 95.7754 111.904 95.6484 112.324C96.3418 112.852 97.25 113.115 98.373 113.115C99.0469 113.115 99.5986 112.993 100.028 112.749C100.458 112.505 100.814 112.075 101.098 111.46C101.381 110.845 101.635 109.98 101.859 108.867L104.291 108.984C104.086 110.537 103.881 111.646 103.676 112.31C104.467 112.856 105.531 113.13 106.869 113.13C107.895 113.13 108.803 112.969 109.594 112.646C109.369 111.924 109.105 111.211 108.803 110.508C108.5 109.795 108.183 109.116 107.851 108.472L111.425 106.084C111.962 108.203 112.23 110.371 112.23 112.588C112.23 115.01 111.767 116.875 110.839 118.184C109.921 119.492 108.612 120.146 106.913 120.146C104.804 120.146 103.314 119.014 102.445 116.748C101.576 119.014 100.209 120.146 98.3438 120.146C97.3086 120.146 96.4541 119.839 95.7803 119.224C95.1162 118.608 94.6182 117.725 94.2861 116.572C93.7686 117.783 93.085 118.657 92.2354 119.194C91.3955 119.731 90.3457 120 89.0859 120C88.7344 120 88.4805 119.727 88.3242 119.18C88.168 118.623 88.0898 117.725 88.0898 116.484C88.0898 115.244 88.168 114.346 88.3242 113.789C88.4805 113.223 88.7344 112.939 89.0859 112.939ZM124.345 119.604C123.681 119.78 122.978 119.917 122.235 120.015C121.503 120.112 120.761 120.161 120.009 120.161C118.192 120.161 116.806 119.761 115.849 118.96C114.901 118.159 114.428 116.992 114.428 115.459C114.428 113.574 114.687 111.865 115.204 110.332C115.731 108.799 116.454 107.578 117.372 106.67C118.29 105.762 119.345 105.308 120.536 105.308C122.167 105.308 123.539 106.006 124.652 107.402C125.775 108.789 126.562 110.635 127.011 112.939H129.047V120H127.23C126.918 122.617 126.049 124.634 124.623 126.05C123.197 127.476 121.205 128.193 118.646 128.203L113.197 126.899L114.032 123.34C116.142 123.379 117.997 123.228 119.599 122.886C121.21 122.544 122.807 122.065 124.389 121.45C124.389 120.835 124.374 120.22 124.345 119.604ZM123.554 113.657C122.841 111.265 121.547 110.068 119.672 110.068C118.832 110.068 118.163 110.332 117.665 110.859C117.177 111.387 116.933 112.051 116.933 112.852C116.933 113.262 117.157 113.56 117.606 113.745C118.065 113.921 118.783 114.009 119.76 114.009C120.414 114.009 121.068 113.979 121.723 113.921C122.377 113.853 122.987 113.765 123.554 113.657ZM129.047 112.939C130.326 112.939 131.327 112.798 132.05 112.515C132.772 112.231 133.31 111.729 133.661 111.006C134.013 110.273 134.262 109.243 134.408 107.915L136.957 107.71C136.908 108.442 136.845 109.126 136.767 109.761C136.688 110.396 136.596 110.986 136.488 111.533C136.986 112.051 137.597 112.417 138.319 112.632C139.042 112.837 139.945 112.939 141.029 112.939H141.161V120H140.985C138.017 120 136.137 118.662 135.346 115.986C134.545 118.662 132.445 120 129.047 120C128.695 120 128.441 119.727 128.285 119.18C128.129 118.623 128.051 117.72 128.051 116.47C128.051 115.229 128.129 114.331 128.285 113.774C128.441 113.218 128.695 112.939 129.047 112.939ZM130.688 99.7998C131.693 100.522 132.631 101.353 133.5 102.29L130.995 105.146C130.077 104.18 129.145 103.354 128.197 102.671L130.688 99.7998ZM135.902 99.7998C136.908 100.522 137.846 101.353 138.715 102.29L136.21 105.146C135.292 104.18 134.359 103.354 133.412 102.671L135.902 99.7998ZM141.176 112.939C142.436 112.939 143.456 112.915 144.237 112.866C145.028 112.808 145.673 112.715 146.171 112.588C145.966 111.699 145.717 110.83 145.424 109.98C145.141 109.131 144.789 108.281 144.369 107.432L148.749 104.297C149.101 105.781 149.369 107.188 149.555 108.516C149.75 109.834 149.848 110.981 149.848 111.958C149.848 114.585 149.203 116.582 147.914 117.949C146.635 119.316 144.76 120 142.289 120H141.176C140.824 120 140.57 119.727 140.414 119.18C140.258 118.623 140.18 117.72 140.18 116.47C140.18 115.229 140.258 114.331 140.414 113.774C140.57 113.218 140.824 112.939 141.176 112.939ZM143.739 97.8369C144.745 98.5596 145.683 99.3896 146.552 100.327L144.047 103.184C143.129 102.217 142.196 101.392 141.249 100.708L143.739 97.8369ZM162.313 119.604C161.649 119.78 160.946 119.917 160.204 120.015C159.472 120.112 158.729 120.161 157.978 120.161C156.161 120.161 154.774 119.761 153.817 118.96C152.87 118.159 152.396 116.992 152.396 115.459C152.396 113.574 152.655 111.865 153.173 110.332C153.7 108.799 154.423 107.578 155.341 106.67C156.259 105.762 157.313 105.308 158.505 105.308C160.136 105.308 161.508 106.006 162.621 107.402C163.744 108.789 164.53 110.635 164.979 112.939H167.016V120H165.199C164.887 122.617 164.018 124.634 162.592 126.05C161.166 127.476 159.174 128.193 156.615 128.203L151.166 126.899L152.001 123.34C154.11 123.379 155.966 123.228 157.567 122.886C159.179 122.544 160.775 122.065 162.357 121.45C162.357 120.835 162.343 120.22 162.313 119.604ZM161.522 113.657C160.81 111.265 159.516 110.068 157.641 110.068C156.801 110.068 156.132 110.332 155.634 110.859C155.146 111.387 154.901 112.051 154.901 112.852C154.901 113.262 155.126 113.56 155.575 113.745C156.034 113.921 156.752 114.009 157.729 114.009C158.383 114.009 159.037 113.979 159.691 113.921C160.346 113.853 160.956 113.765 161.522 113.657ZM167.016 112.939H169.96C171.171 112.939 172.177 112.915 172.978 112.866C173.778 112.817 174.438 112.725 174.955 112.588C174.555 110.791 173.954 109.072 173.153 107.432L177.548 104.297C177.89 105.771 178.153 107.168 178.339 108.486C178.534 109.805 178.632 110.962 178.632 111.958C178.632 114.585 177.992 116.582 176.713 117.949C175.443 119.316 173.603 120 171.19 120H167.016C166.664 120 166.41 119.727 166.254 119.18C166.098 118.623 166.02 117.72 166.02 116.47C166.02 115.22 166.098 114.321 166.254 113.774C166.41 113.218 166.664 112.939 167.016 112.939ZM169.564 122.007C170.57 122.729 171.508 123.56 172.377 124.497L169.872 127.354C168.954 126.387 168.021 125.562 167.074 124.878L169.564 122.007ZM174.779 122.007C175.785 122.729 176.723 123.56 177.592 124.497L175.087 127.354C174.169 126.387 173.236 125.562 172.289 124.878L174.779 122.007ZM172.157 126.885C173.075 127.549 173.935 128.315 174.735 129.185L172.45 131.792C171.61 130.903 170.756 130.146 169.887 129.521L172.157 126.885Z" fill="#3A3D81"/>
</svg>
