<svg width="223" height="222" viewBox="0 0 223 222" fill="none" xmlns="http://www.w3.org/2000/svg">
<path d="M222.188 111C222.188 172.305 172.493 222 111.188 222C49.8857 222 0.188477 172.305 0.188477 111C0.188477 49.697 49.8842 0 111.188 0C172.491 0 222.188 49.6955 222.188 111Z" fill="#90B0B2"/>
<path d="M212.593 111.189C212.593 167.184 167.202 212.575 111.206 212.575C55.2131 212.575 9.82178 167.184 9.82178 111.189C9.82178 55.1943 55.2131 9.80151 111.206 9.80151C167.2 9.80151 212.593 55.1929 212.593 111.189Z" fill="#90B0B2" stroke="white" strokeWidth="0.66624" stroke-miterlimit="10"/>
<path d="M119.716 153.233H69.1865V94.6419L119.716 77.0286V153.233Z" stroke="white" strokeWidth="0.66624" stroke-miterlimit="2.61313"/>
<path d="M89.656 136.315L77.6689 139.903V107.61L89.656 104.021V136.315Z" stroke="white" strokeWidth="0.66624" stroke-miterlimit="2.61313"/>
<path d="M80.1143 108.752L89.656 105.895V104.022L77.6675 107.61V139.903L80.1143 139.172V108.752Z" stroke="white" strokeWidth="0.66624" stroke-miterlimit="2.61313"/>
<path d="M119.716 153.233H145.674V92.0337L119.716 77.0286V153.233Z" stroke="white" strokeWidth="0.66624" stroke-miterlimit="2.61313"/>
<path d="M176.275 178.68L140.97 159.291V127.786L176.275 157.118V178.68Z" stroke="white" strokeWidth="0.66624" stroke-miterlimit="2.61313"/>
<path d="M83.0293 171.618L140.969 159.291V127.786L83.0293 150.056V171.618Z" stroke="white" strokeWidth="0.66624" stroke-miterlimit="2.61313"/>
<path d="M83.0293 171.618L140.968 159.291L176.273 178.68C126.182 183.926 132.064 186.126 83.0293 171.619V171.618Z" stroke="white" strokeWidth="0.66624" stroke-miterlimit="2.61313"/>
<path d="M44.6416 187.66L81.9439 175.24V143.736L36.3184 163.422V179.528C38.9352 182.395 41.7148 185.109 44.6416 187.66Z" stroke="white" strokeWidth="0.66624" stroke-miterlimit="2.61313"/>
<path d="M76.5111 150.615L40.1201 166.316V173.378L76.5111 157.675V150.615Z" stroke="white" strokeWidth="0.66624" stroke-miterlimit="2.61313"/>
<path d="M41.9746 167.493L76.513 152.592V150.615L40.1191 166.316V173.378L41.9746 172.578V167.493Z" stroke="white" strokeWidth="0.66624" stroke-miterlimit="2.61313"/>
<path d="M156.932 201.698L81.9434 175.24V143.737L157.489 180.334V201.418C157.304 201.514 157.117 201.605 156.932 201.698Z" stroke="white" strokeWidth="0.66624" stroke-miterlimit="2.61313"/>
<path d="M117.929 190.882V182.328L142.1 177.033L168.444 188.303V194.879C167.61 195.45 166.77 196.015 165.917 196.562L117.929 190.882Z" stroke="white" strokeWidth="0.66624" stroke-miterlimit="2.61313"/>
<path d="M142.1 177.031L117.929 182.328V190.882L142.1 193.721V177.031Z" stroke="white" strokeWidth="0.66624" stroke-miterlimit="2.61313"/>
<path d="M156.933 201.698L81.9439 175.24L44.6431 187.661C46.8399 189.575 49.1225 191.392 51.4793 193.114C83.2138 198.051 130.268 202.06 156.524 201.902L156.934 201.698H156.933Z" stroke="white" strokeWidth="0.66624" stroke-miterlimit="2.61313"/>
<path d="M171.205 192.916V192.769L140.968 181.379V208.133C151.958 204.761 162.154 199.573 171.205 192.918V192.916Z" stroke="white" strokeWidth="0.66624" stroke-miterlimit="2.61313"/>
<path d="M140.969 208.133V181.379L70.854 195.683V204.219C81.237 208.73 92.5212 211.55 104.363 212.341H118.054C125.975 211.812 133.65 210.378 140.971 208.133H140.969Z" stroke="white" strokeWidth="0.66624" stroke-miterlimit="2.61313"/>
<path d="M140.969 208.133V181.379L70.854 195.683V204.219C81.237 208.73 92.5212 211.55 104.363 212.341H118.054C125.975 211.812 133.65 210.378 140.971 208.133H140.969Z" stroke="white" strokeWidth="0.66624" stroke-miterlimit="2.61313"/>
<path d="M90.9053 198.227V208.769L98.1029 208.366V197.19L90.9053 198.227Z" stroke="white" strokeWidth="0.66624" stroke-miterlimit="2.61313"/>
<path d="M91.6066 198.861L98.1029 197.926V197.191L90.9053 198.228V208.768L91.6066 208.73V198.861Z" stroke="white" strokeWidth="0.66624" stroke-miterlimit="2.61313"/>
<path d="M100.819 196.8V208.212L108.831 207.763V195.648L100.819 196.8Z" stroke="white" strokeWidth="0.66624" stroke-miterlimit="2.61313"/>
<path d="M101.589 197.456L108.832 196.415V195.646L100.819 196.8V208.212L101.589 208.17V197.456Z" stroke="white" strokeWidth="0.66624" stroke-miterlimit="2.61313"/>
<path d="M111.909 195.203V207.59L121.143 207.072V193.875L111.909 195.203Z" stroke="white" strokeWidth="0.66624" stroke-miterlimit="2.61313"/>
<path d="M112.723 195.929L121.143 194.901V193.875L111.909 195.203V207.59L112.723 207.543V195.929Z" stroke="white" strokeWidth="0.66624" stroke-miterlimit="2.61313"/>
<path d="M124.764 193.354V206.868L135.536 206.263V191.803L124.764 193.354Z" stroke="white" strokeWidth="0.66624" stroke-miterlimit="2.61313"/>
<path d="M125.918 194.304L135.536 192.92V191.803L124.764 193.352V206.866L125.918 206.802V194.304Z" stroke="white" strokeWidth="0.66624" stroke-miterlimit="2.61313"/>
<path d="M145.675 190.438V206.562C146.465 206.276 147.249 205.982 148.029 205.678V191.097L145.675 190.438Z" stroke="white" strokeWidth="0.66624" stroke-miterlimit="2.61313"/>
<path d="M149.817 191.595V204.958C150.607 204.632 151.391 204.298 152.171 203.952V192.254L149.817 191.595Z" stroke="white" strokeWidth="0.66624" stroke-miterlimit="2.61313"/>
<path d="M153.959 192.752V203.139C154.75 202.771 155.534 202.394 156.313 202.005V193.409L153.959 192.751V192.752Z" stroke="white" strokeWidth="0.66624" stroke-miterlimit="2.61313"/>
<path d="M158.101 193.909V201.095C158.891 200.682 159.675 200.257 160.452 199.825V194.567L158.101 193.909Z" stroke="white" strokeWidth="0.66624" stroke-miterlimit="2.61313"/>
<path d="M170.326 112.533H162.487V104.692H170.326V112.533Z" stroke="white" strokeWidth="0.66624" stroke-miterlimit="10"/>
<path d="M170.326 124.898H162.487V117.059H170.326V124.898Z" stroke="white" strokeWidth="0.66624" stroke-miterlimit="10"/>
<path d="M185.653 112.533H177.814V104.692H185.653V112.533Z" stroke="white" strokeWidth="0.66624" stroke-miterlimit="10"/>
<path d="M54.5449 128.896C48.5293 128.896 45.5215 126.083 45.5215 120.458C45.5215 119.354 45.6094 118.104 45.7852 116.708C45.9707 115.302 46.249 113.754 46.6201 112.064L49.2861 112.606C49.0615 113.749 48.8857 114.672 48.7588 115.375C48.6416 116.078 48.5586 116.649 48.5098 117.089C48.4707 117.528 48.4512 117.934 48.4512 118.305C48.4512 119.545 48.9639 120.443 49.9893 121C51.0146 121.557 52.626 121.835 54.8232 121.835C56.4248 121.835 57.8359 121.664 59.0566 121.322C60.2871 120.98 61.166 120.458 61.6934 119.755C61.5273 118.876 61.1953 117.875 60.6973 116.752C60.1992 115.629 59.4814 114.164 58.5439 112.357L62.6455 108.402L64.0078 111.581C64.4082 112.519 64.8184 113.168 65.2383 113.529C65.6582 113.891 66.2539 114.071 67.0254 114.071C67.9336 114.071 68.6367 113.773 69.1348 113.178C69.6426 112.582 70.0771 111.469 70.4385 109.838L72.8701 109.999C72.665 111.522 72.4697 112.587 72.2842 113.192C72.9189 113.817 73.9736 114.13 75.4482 114.13C76.5322 114.13 77.4844 113.974 78.3047 113.661C78.0996 112.978 77.8408 112.274 77.5283 111.552C77.2256 110.819 76.9082 110.121 76.5762 109.457L80.1797 107.113C80.6973 109.271 80.9561 111.386 80.9561 113.456C80.9561 115.966 80.502 117.875 79.5938 119.184C78.6953 120.492 77.3721 121.146 75.624 121.146C73.3096 121.146 71.7129 120.004 70.834 117.719C70.0039 120.004 68.7197 121.146 66.9814 121.146C65.8486 121.146 64.9014 120.731 64.1396 119.901C64.1689 122.792 63.373 125.014 61.752 126.566C60.1406 128.119 57.7383 128.896 54.5449 128.896ZM70.6143 97.2402C71.5322 97.9043 72.3916 98.6709 73.1924 99.54L70.9072 102.147C70.0674 101.269 69.2129 100.512 68.3438 99.877L70.6143 97.2402ZM68.0068 101.693C69.0127 102.416 69.9502 103.246 70.8193 104.184L68.3145 107.04C67.3965 106.073 66.4639 105.248 65.5166 104.564L68.0068 101.693ZM73.2217 101.693C74.2275 102.416 75.165 103.246 76.0342 104.184L73.5293 107.04C72.6113 106.073 71.6787 105.248 70.7314 104.564L73.2217 101.693ZM93.2021 120.604C92.5381 120.78 91.835 120.917 91.0928 121.015C90.3604 121.112 89.6182 121.161 88.8662 121.161C87.0498 121.161 85.6631 120.761 84.7061 119.96C83.7588 119.159 83.2852 117.992 83.2852 116.459C83.2852 114.574 83.5439 112.865 84.0615 111.332C84.5889 109.799 85.3115 108.578 86.2295 107.67C87.1475 106.762 88.2021 106.308 89.3936 106.308C91.0244 106.308 92.3965 107.006 93.5098 108.402C94.6328 109.789 95.4189 111.635 95.8682 113.939H97.9043V121H96.0879C95.7754 123.617 94.9062 125.634 93.4805 127.05C92.0547 128.476 90.0625 129.193 87.5039 129.203L82.0547 127.899L82.8896 124.34C84.999 124.379 86.8545 124.228 88.4561 123.886C90.0674 123.544 91.6641 123.065 93.2461 122.45C93.2461 121.835 93.2314 121.22 93.2021 120.604ZM92.4111 114.657C91.6982 112.265 90.4043 111.068 88.5293 111.068C87.6895 111.068 87.0205 111.332 86.5225 111.859C86.0342 112.387 85.79 113.051 85.79 113.852C85.79 114.262 86.0146 114.56 86.4639 114.745C86.9229 114.921 87.6406 115.009 88.6172 115.009C89.2715 115.009 89.9258 114.979 90.5801 114.921C91.2344 114.853 91.8447 114.765 92.4111 114.657ZM97.9043 113.939H100.849C102.06 113.939 103.065 113.915 103.866 113.866C104.667 113.817 105.326 113.725 105.844 113.588C105.443 111.791 104.843 110.072 104.042 108.432L108.437 105.297C108.778 106.771 109.042 108.168 109.228 109.486C109.423 110.805 109.521 111.962 109.521 112.958C109.521 115.585 108.881 117.582 107.602 118.949C106.332 120.316 104.491 121 102.079 121H97.9043C97.5527 121 97.2988 120.727 97.1426 120.18C96.9863 119.623 96.9082 118.72 96.9082 117.47C96.9082 116.22 96.9863 115.321 97.1426 114.774C97.2988 114.218 97.5527 113.939 97.9043 113.939ZM100.453 123.007C101.459 123.729 102.396 124.56 103.266 125.497L100.761 128.354C99.8428 127.387 98.9102 126.562 97.9629 125.878L100.453 123.007ZM105.668 123.007C106.674 123.729 107.611 124.56 108.48 125.497L105.976 128.354C105.058 127.387 104.125 126.562 103.178 125.878L105.668 123.007ZM103.046 127.885C103.964 128.549 104.823 129.315 105.624 130.185L103.339 132.792C102.499 131.903 101.645 131.146 100.775 130.521L103.046 127.885ZM121.972 120.604C121.308 120.78 120.604 120.917 119.862 121.015C119.13 121.112 118.388 121.161 117.636 121.161C115.819 121.161 114.433 120.761 113.476 119.96C112.528 119.159 112.055 117.992 112.055 116.459C112.055 114.574 112.313 112.865 112.831 111.332C113.358 109.799 114.081 108.578 114.999 107.67C115.917 106.762 116.972 106.308 118.163 106.308C119.794 106.308 121.166 107.006 122.279 108.402C123.402 109.789 124.188 111.635 124.638 113.939H126.674V121H124.857C124.545 123.617 123.676 125.634 122.25 127.05C120.824 128.476 118.832 129.193 116.273 129.203L110.824 127.899L111.659 124.34C113.769 124.379 115.624 124.228 117.226 123.886C118.837 123.544 120.434 123.065 122.016 122.45C122.016 121.835 122.001 121.22 121.972 120.604ZM121.181 114.657C120.468 112.265 119.174 111.068 117.299 111.068C116.459 111.068 115.79 111.332 115.292 111.859C114.804 112.387 114.56 113.051 114.56 113.852C114.56 114.262 114.784 114.56 115.233 114.745C115.692 114.921 116.41 115.009 117.387 115.009C118.041 115.009 118.695 114.979 119.35 114.921C120.004 114.853 120.614 114.765 121.181 114.657ZM126.674 113.939C127.953 113.939 128.954 113.798 129.677 113.515C130.399 113.231 130.937 112.729 131.288 112.006C131.64 111.273 131.889 110.243 132.035 108.915L134.584 108.71C134.535 109.442 134.472 110.126 134.394 110.761C134.315 111.396 134.223 111.986 134.115 112.533C134.613 113.051 135.224 113.417 135.946 113.632C136.669 113.837 137.572 113.939 138.656 113.939H138.788V121H138.612C135.644 121 133.764 119.662 132.973 116.986C132.172 119.662 130.072 121 126.674 121C126.322 121 126.068 120.727 125.912 120.18C125.756 119.623 125.678 118.72 125.678 117.47C125.678 116.229 125.756 115.331 125.912 114.774C126.068 114.218 126.322 113.939 126.674 113.939ZM128.314 100.8C129.32 101.522 130.258 102.353 131.127 103.29L128.622 106.146C127.704 105.18 126.771 104.354 125.824 103.671L128.314 100.8ZM133.529 100.8C134.535 101.522 135.473 102.353 136.342 103.29L133.837 106.146C132.919 105.18 131.986 104.354 131.039 103.671L133.529 100.8ZM138.803 113.939C140.062 113.939 141.083 113.915 141.864 113.866C142.655 113.808 143.3 113.715 143.798 113.588C143.593 112.699 143.344 111.83 143.051 110.98C142.768 110.131 142.416 109.281 141.996 108.432L146.376 105.297C146.728 106.781 146.996 108.188 147.182 109.516C147.377 110.834 147.475 111.981 147.475 112.958C147.475 115.585 146.83 117.582 145.541 118.949C144.262 120.316 142.387 121 139.916 121H138.803C138.451 121 138.197 120.727 138.041 120.18C137.885 119.623 137.807 118.72 137.807 117.47C137.807 116.229 137.885 115.331 138.041 114.774C138.197 114.218 138.451 113.939 138.803 113.939ZM141.366 98.8369C142.372 99.5596 143.31 100.39 144.179 101.327L141.674 104.184C140.756 103.217 139.823 102.392 138.876 101.708L141.366 98.8369ZM159.94 120.604C159.276 120.78 158.573 120.917 157.831 121.015C157.099 121.112 156.356 121.161 155.604 121.161C153.788 121.161 152.401 120.761 151.444 119.96C150.497 119.159 150.023 117.992 150.023 116.459C150.023 114.574 150.282 112.865 150.8 111.332C151.327 109.799 152.05 108.578 152.968 107.67C153.886 106.762 154.94 106.308 156.132 106.308C157.763 106.308 159.135 107.006 160.248 108.402C161.371 109.789 162.157 111.635 162.606 113.939H164.643V121H162.826C162.514 123.617 161.645 125.634 160.219 127.05C158.793 128.476 156.801 129.193 154.242 129.203L148.793 127.899L149.628 124.34C151.737 124.379 153.593 124.228 155.194 123.886C156.806 123.544 158.402 123.065 159.984 122.45C159.984 121.835 159.97 121.22 159.94 120.604ZM159.149 114.657C158.437 112.265 157.143 111.068 155.268 111.068C154.428 111.068 153.759 111.332 153.261 111.859C152.772 112.387 152.528 113.051 152.528 113.852C152.528 114.262 152.753 114.56 153.202 114.745C153.661 114.921 154.379 115.009 155.355 115.009C156.01 115.009 156.664 114.979 157.318 114.921C157.973 114.853 158.583 114.765 159.149 114.657ZM164.643 113.939H167.587C168.798 113.939 169.804 113.915 170.604 113.866C171.405 113.817 172.064 113.725 172.582 113.588C172.182 111.791 171.581 110.072 170.78 108.432L175.175 105.297C175.517 106.771 175.78 108.168 175.966 109.486C176.161 110.805 176.259 111.962 176.259 112.958C176.259 115.585 175.619 117.582 174.34 118.949C173.07 120.316 171.229 121 168.817 121H164.643C164.291 121 164.037 120.727 163.881 120.18C163.725 119.623 163.646 118.72 163.646 117.47C163.646 116.22 163.725 115.321 163.881 114.774C164.037 114.218 164.291 113.939 164.643 113.939ZM167.191 123.007C168.197 123.729 169.135 124.56 170.004 125.497L167.499 128.354C166.581 127.387 165.648 126.562 164.701 125.878L167.191 123.007ZM172.406 123.007C173.412 123.729 174.35 124.56 175.219 125.497L172.714 128.354C171.796 127.387 170.863 126.562 169.916 125.878L172.406 123.007ZM169.784 127.885C170.702 128.549 171.562 129.315 172.362 130.185L170.077 132.792C169.237 131.903 168.383 131.146 167.514 130.521L169.784 127.885Z" fill="#3A3D81"/>
</svg>
