<svg xmlns="http://www.w3.org/2000/svg" xmlns:xlink="http://www.w3.org/1999/xlink" version="1.1" width="220pt" height="90pt" viewBox="0 0 220 90">
<g id="layer_1" data-name="Layer 1">
<path transform="matrix(1,0,0,-1,0,90)" d="M40 40H29.9999V50H40V60.0001H19.9998V20.0001H29.9999V29.9999H49.9997V50H40Z" fill="#11499b"/>
<path transform="matrix(1,0,0,-1,0,90)" d="M45 50.2702C47.6118 50.2702 49.7299 52.3879 49.7299 55.0001 49.7299 57.6125 47.6118 59.7297 45 59.7297 42.3879 59.7297 40.2701 57.6125 40.2701 55.0001 40.2701 52.3879 42.3879 50.2702 45 50.2702" fill="#11499b"/>
<path transform="matrix(1,0,0,-1,0,90)" d="M69.9999 60.0001H59.9998V40H69.9999Z" fill="#11499b"/>
<path transform="matrix(1,0,0,-1,0,90)" d="M79.9999 40H69.9999V29.9999H90V60.0001H79.9999Z" fill="#11499b"/>
<path transform="matrix(1,0,0,-1,0,90)" d="M64.9998 39.7298C62.3877 39.7298 60.2702 37.6121 60.2702 34.9999 60.2702 32.3878 62.3877 30.2703 64.9998 30.2703 67.612 30.2703 69.7294 32.3878 69.7294 34.9999 69.7294 37.6121 67.612 39.7298 64.9998 39.7298" fill="#11499b"/>
<path transform="matrix(1,0,0,-1,0,90)" d="M99.9998 60.0001V29.9999H109.9998V50H119.9999V60.0001Z" fill="#11499b"/>
<path transform="matrix(1,0,0,-1,0,90)" d="M119.9999 29.9999H130V50H119.9999Z" fill="#11499b"/>
<path transform="matrix(1,0,0,-1,0,90)" d="M124.9999 50.2702C127.6118 50.2702 129.729 52.3879 129.729 55.0001 129.729 57.6125 127.6118 59.7297 124.9999 59.7297 122.3878 59.7297 120.2698 57.6125 120.2698 55.0001 120.2698 52.3879 122.3878 50.2702 124.9999 50.2702" fill="#11499b"/>
<path transform="matrix(1,0,0,-1,0,90)" d="M149.9998 69.9999H139.9997V40H149.9998V50H159.9999V60.0001H149.9998Z" fill="#11499b"/>
<path transform="matrix(1,0,0,-1,0,90)" d="M159.9999 29.9999V40H149.9998V29.9999Z" fill="#11499b"/>
<path transform="matrix(1,0,0,-1,0,90)" d="M144.9998 39.7298C142.3879 39.7298 140.2699 37.6121 140.2699 34.9999 140.2699 32.3878 142.3879 30.2703 144.9998 30.2703 147.6119 30.2703 149.7288 32.3878 149.7288 34.9999 149.7288 37.6121 147.6119 39.7298 144.9998 39.7298" fill="#11499b"/>
<path transform="matrix(1,0,0,-1,0,90)" d="M189.9998 60.0001H180V50H189.9998Z" fill="#11499b"/>
<path transform="matrix(1,0,0,-1,0,90)" d="M169.9999 50V40H180V50Z" fill="#11499b"/>
<path transform="matrix(1,0,0,-1,0,90)" d="M175 39.7298C172.3878 39.7298 170.2709 37.6121 170.2709 34.9999 170.2709 32.3878 172.3878 30.2703 175 30.2703 177.6118 30.2703 179.7287 32.3878 179.7287 34.9999 179.7287 37.6121 177.6118 39.7298 175 39.7298" fill="#11499b"/>
<path transform="matrix(1,0,0,-1,0,90)" d="M175 50.2702C177.6118 50.2702 179.7287 52.3879 179.7287 55.0001 179.7287 57.6125 177.6118 59.7297 175 59.7297 172.3878 59.7297 170.2709 57.6125 170.2709 55.0001 170.2709 52.3879 172.3878 50.2702 175 50.2702" fill="#11499b"/>
<path transform="matrix(1,0,0,-1,0,90)" d="M194.9998 50.2702C197.6119 50.2702 199.7289 52.3879 199.7289 55.0001 199.7289 57.6125 197.6119 59.7297 194.9998 59.7297 192.388 59.7297 190.2708 57.6125 190.2708 55.0001 190.2708 52.3879 192.388 50.2702 194.9998 50.2702" fill="#11499b"/>
<path transform="matrix(1,0,0,-1,0,90)" d="M189.9998 40H180V29.9999H189.9998Z" fill="#12499a"/>
<path transform="matrix(1,0,0,-1,0,90)" d="M199.9996 50H189.9998V40H199.9996Z" fill="#12499a"/>
<path transform="matrix(1,0,0,-1,0,90)" d="M194.9987 39.7307C192.3866 39.7307 190.2696 37.6129 190.2696 35.0008 190.2696 32.3887 192.3866 30.2712 194.9987 30.2712 197.6105 30.2712 199.7274 32.3887 199.7274 35.0008 199.7274 37.6129 197.6105 39.7307 194.9987 39.7307" fill="#12499a"/>
</g>
</svg>
