<svg width="24" height="24" viewBox="0 0 24 24" fill="none" xmlns="http://www.w3.org/2000/svg">
<g clip-path="url(#clip0_2087_1320)">
<path d="M13.9983 8C15.1029 8 15.9983 7.10457 15.9983 6C15.9983 4.89543 15.1029 4 13.9983 4C12.8937 4 11.9983 4.89543 11.9983 6C11.9983 7.10457 12.8937 8 13.9983 8Z" fill="#12499F" stroke="#12499F" strokeWidth="1.5" stroke-linecap="round" stroke-linejoin="round"/>
<path d="M4.00226 5.99902H12.0023" stroke="#12499F" strokeWidth="1.5" stroke-linecap="round" stroke-linejoin="round"/>
<path d="M16.0005 5.99902H20.0006" stroke="#12499F" strokeWidth="1.5" stroke-linecap="round" stroke-linejoin="round"/>
<path d="M8.00342 13.999C9.10799 13.999 10.0034 13.1036 10.0034 11.999C10.0034 10.8945 9.10799 9.99902 8.00342 9.99902C6.89885 9.99902 6.00342 10.8945 6.00342 11.999C6.00342 13.1036 6.89885 13.999 8.00342 13.999Z" stroke="#12499F" strokeWidth="1.5" stroke-linecap="round" stroke-linejoin="round"/>
<path d="M4.00226 12H6.00226" stroke="#12499F" strokeWidth="1.5" stroke-linecap="round" stroke-linejoin="round"/>
<path d="M9.99713 12H19.9971" stroke="#12499F" strokeWidth="1.5" stroke-linecap="round" stroke-linejoin="round"/>
<path d="M17 20.001C18.1046 20.001 19 19.1055 19 18.001C19 16.8964 18.1046 16.001 17 16.001C15.8954 16.001 15 16.8964 15 18.001C15 19.1055 15.8954 20.001 17 20.001Z" stroke="#12499F" strokeWidth="1.5" stroke-linecap="round" stroke-linejoin="round"/>
<path d="M4.00226 18H15.0023" stroke="#12499F" strokeWidth="1.5" stroke-linecap="round" stroke-linejoin="round"/>
<path d="M19.0023 18H20.0023" stroke="#12499F" strokeWidth="1.5" stroke-linecap="round" stroke-linejoin="round"/>
</g>
<defs>
<clipPath id="clip0_2087_1320">
<rect width="24" height="24" fill="white"/>
</clipPath>
</defs>
</svg>
