<svg width="24" height="25" viewBox="0 0 24 25" fill="none" xmlns="http://www.w3.org/2000/svg">
<path d="M12 2.5C9.38 2.5 7.25 4.63 7.25 7.25C7.25 9.82 9.26 11.9 11.88 11.99C11.96 11.98 12.04 11.98 12.1 11.99C12.12 11.99 12.13 11.99 12.15 11.99C12.16 11.99 12.16 11.99 12.17 11.99C14.73 11.9 16.74 9.82 16.75 7.25C16.75 4.63 14.62 2.5 12 2.5Z" fill="#F2F4F8"/>
<path d="M17.08 14.6499C14.29 12.7899 9.73996 12.7899 6.92996 14.6499C5.65996 15.4999 4.95996 16.6499 4.95996 17.8799C4.95996 19.1099 5.65996 20.2499 6.91996 21.0899C8.31996 22.0299 10.16 22.4999 12 22.4999C13.84 22.4999 15.68 22.0299 17.08 21.0899C18.34 20.2399 19.04 19.0999 19.04 17.8599C19.03 16.6299 18.34 15.4899 17.08 14.6499ZM14 18.6299H12.75V19.8799C12.75 20.2899 12.41 20.6299 12 20.6299C11.59 20.6299 11.25 20.2899 11.25 19.8799V18.6299H9.99996C9.58996 18.6299 9.24996 18.2899 9.24996 17.8799C9.24996 17.4699 9.58996 17.1299 9.99996 17.1299H11.25V15.8799C11.25 15.4699 11.59 15.1299 12 15.1299C12.41 15.1299 12.75 15.4699 12.75 15.8799V17.1299H14C14.41 17.1299 14.75 17.4699 14.75 17.8799C14.75 18.2899 14.41 18.6299 14 18.6299Z" fill="#F2F4F8"/>
</svg>
