<svg width="24" height="24" viewBox="0 0 24 24" fill="none" xmlns="http://www.w3.org/2000/svg">
<path d="M12.2202 22.5703H9.22021C3.79022 22.5703 1.47021 20.2503 1.47021 14.8203V11.8203C1.47021 6.39031 3.79022 4.07031 9.22021 4.07031H12.2202C17.6502 4.07031 19.9702 6.39031 19.9702 11.8203V14.8203C19.9702 20.2503 17.6502 22.5703 12.2202 22.5703ZM9.22021 5.57031C4.61021 5.57031 2.97021 7.21031 2.97021 11.8203V14.8203C2.97021 19.4303 4.61021 21.0703 9.22021 21.0703H12.2202C16.8302 21.0703 18.4702 19.4303 18.4702 14.8203V11.8203C18.4702 7.21031 16.8302 5.57031 12.2202 5.57031H9.22021Z" fill="#F2F4F8"/>
<path d="M6.44022 10.9996C5.36022 10.9996 4.47021 10.1196 4.47021 9.02957C4.47021 7.93957 5.35022 7.05957 6.44022 7.05957C7.53022 7.05957 8.41021 7.93957 8.41021 9.02957C8.41021 10.1196 7.53022 10.9996 6.44022 10.9996ZM6.44022 8.13957C5.95022 8.13957 5.55022 8.53957 5.55022 9.02957C5.55022 9.51957 5.95022 9.91957 6.44022 9.91957C6.93022 9.91957 7.33021 9.51957 7.33021 9.02957C7.33021 8.53957 6.93022 8.13957 6.44022 8.13957Z" fill="#F2F4F8"/>
<path d="M2.77993 17.5204C2.56993 17.5204 2.36993 17.4204 2.23993 17.2404C2.03993 16.9504 2.11993 16.5504 2.41993 16.3504L6.63993 13.5204C7.56993 12.9004 8.84993 12.9704 9.67993 13.6804L9.96993 13.9204C10.3999 14.2904 11.1199 14.2904 11.5499 13.9204L15.1199 10.8604C16.0299 10.0804 17.4599 10.0804 18.3799 10.8604L19.7799 12.0604C19.9999 12.0004 19.9999 13.0004 19.8499 12.9704C19.4999 12.8904 19.2099 13.2704 18.9399 13.0404L17.5399 11.8404C17.1099 11.4704 16.3899 11.4704 15.9599 11.8404L12.3899 14.9004C11.4799 15.6804 10.0499 15.6804 9.12993 14.9004L8.83993 14.6604C8.44993 14.3204 7.78993 14.2904 7.34993 14.5904L3.12993 17.4204C3.01993 17.4904 2.89993 17.5304 2.76993 17.5304L2.77993 17.5204Z" fill="#F2F4F8"/>
<mask id="mask0_2180_4612" style="mask-type:luminance" maskUnits="userSpaceOnUse" x="2" y="0" width="22" height="21">
<path d="M2 5H15L18 7L19 21L24 19L23.43 0H3L2 5Z" fill="white"/>
</mask>
<g mask="url(#mask0_2180_4612)">
<path d="M15.2202 19.5703H12.2202C6.79022 19.5703 4.47021 17.2503 4.47021 11.8203V8.82031C4.47021 3.39031 6.79022 1.07031 12.2202 1.07031H15.2202C20.6502 1.07031 22.9702 3.39031 22.9702 8.82031V11.8203C22.9702 17.2503 20.6502 19.5703 15.2202 19.5703ZM12.2202 2.57031C7.61022 2.57031 5.97021 4.21031 5.97021 8.82031V11.8203C5.97021 16.4303 7.61022 18.0703 12.2202 18.0703H15.2202C19.8302 18.0703 21.4702 16.4303 21.4702 11.8203V8.82031C21.4702 4.21031 19.8302 2.57031 15.2202 2.57031H12.2202Z" fill="#F2F4F8"/>
</g>
</svg>
