<svg width="24" height="25" viewBox="0 0 24 25" fill="none" xmlns="http://www.w3.org/2000/svg">
<path d="M20.3601 13.2296C19.9901 13.2296 19.6801 12.9496 19.6401 12.5796C19.4001 10.3796 18.2201 8.39958 16.4001 7.13958C16.0701 6.90958 15.9901 6.45958 16.2201 6.12958C16.4501 5.79958 16.9001 5.71958 17.2301 5.94958C19.4001 7.45958 20.8001 9.81958 21.0901 12.4296C21.1301 12.8296 20.8401 13.1896 20.4401 13.2296C20.4101 13.2296 20.3901 13.2296 20.3601 13.2296Z" fill="#12499F"/>
<path d="M3.7398 13.2802C3.7198 13.2802 3.6898 13.2802 3.6698 13.2802C3.2698 13.2402 2.9798 12.8802 3.0198 12.4802C3.2898 9.8702 4.6698 7.5102 6.8198 5.9902C7.1398 5.7602 7.5998 5.8402 7.8298 6.1602C8.0598 6.4902 7.9798 6.9402 7.6598 7.1702C5.8598 8.4502 4.6898 10.4302 4.4698 12.6202C4.4298 13.0002 4.1098 13.2802 3.7398 13.2802Z" fill="#12499F"/>
<path d="M15.9901 21.6003C14.7601 22.1903 13.4401 22.4903 12.0601 22.4903C10.6201 22.4903 9.2501 22.1703 7.9701 21.5203C7.6101 21.3503 7.4701 20.9103 7.6501 20.5503C7.8201 20.1903 8.2601 20.0503 8.6201 20.2203C9.2501 20.5403 9.9201 20.7603 10.6001 20.8903C11.5201 21.0703 12.4601 21.0803 13.3801 20.9203C14.0601 20.8003 14.7301 20.5903 15.3501 20.2903C15.7201 20.1203 16.1601 20.2603 16.3201 20.6303C16.5001 20.9903 16.3601 21.4303 15.9901 21.6003Z" fill="#12499F"/>
<path d="M12.05 2.50977C10.5 2.50977 9.22998 3.76977 9.22998 5.32977C9.22998 6.88977 10.49 8.14977 12.05 8.14977C13.61 8.14977 14.87 6.88977 14.87 5.32977C14.87 3.76977 13.61 2.50977 12.05 2.50977Z" fill="#12499F"/>
<path d="M5.04998 14.3701C3.49998 14.3701 2.22998 15.6301 2.22998 17.1901C2.22998 18.7501 3.48998 20.0101 5.04998 20.0101C6.60998 20.0101 7.86998 18.7501 7.86998 17.1901C7.86998 15.6301 6.59998 14.3701 5.04998 14.3701Z" fill="#12499F"/>
<path d="M18.9499 14.3701C17.3999 14.3701 16.1299 15.6301 16.1299 17.1901C16.1299 18.7501 17.3899 20.0101 18.9499 20.0101C20.5099 20.0101 21.7699 18.7501 21.7699 17.1901C21.7699 15.6301 20.5099 14.3701 18.9499 14.3701Z" fill="#12499F"/>
</svg>
