<svg width="10" height="11" viewBox="0 0 10 11" fill="none" xmlns="http://www.w3.org/2000/svg">
<path d="M4.51771 1.10996C4.68851 0.699318 5.27023 0.699318 5.44103 1.10996L6.44911 3.53367C6.52111 3.70679 6.68392 3.82508 6.87081 3.84006L9.48741 4.04983C9.93074 4.08537 10.1105 4.63863 9.77273 4.92796L7.77916 6.63567C7.63676 6.75764 7.57458 6.94903 7.61808 7.13141L8.22715 9.68477C8.33035 10.1174 7.85972 10.4593 7.48017 10.2275L5.24 8.85919C5.07999 8.76146 4.87875 8.76146 4.71874 8.85919L2.47857 10.2275C2.09902 10.4593 1.62839 10.1174 1.73159 9.68476L2.34066 7.13141C2.38416 6.94903 2.32197 6.75764 2.17958 6.63567L0.186008 4.92796C-0.15176 4.63863 0.0280038 4.08537 0.471331 4.04983L3.08793 3.84006C3.27482 3.82508 3.43763 3.70679 3.50963 3.53367L4.51771 1.10996Z" fill="#FFC107"/>
</svg>
