<svg width="20" height="21" viewBox="0 0 20 21" fill="none" xmlns="http://www.w3.org/2000/svg">
<path d="M10 5.15625C9.45 5.15625 9 5.60625 9 6.15625V9.15625H6C5.45 9.15625 5 9.60625 5 10.1562C5 10.7063 5.45 11.1562 6 11.1562H9V14.1562C9 14.7063 9.45 15.1562 10 15.1562C10.55 15.1562 11 14.7063 11 14.1562V11.1562H14C14.55 11.1562 15 10.7063 15 10.1562C15 9.60625 14.55 9.15625 14 9.15625H11V6.15625C11 5.60625 10.55 5.15625 10 5.15625ZM10 0.15625C4.48 0.15625 0 4.63625 0 10.1562C0 15.6763 4.48 20.1562 10 20.1562C15.52 20.1562 20 15.6763 20 10.1562C20 4.63625 15.52 0.15625 10 0.15625ZM10 18.1562C5.59 18.1562 2 14.5662 2 10.1562C2 5.74625 5.59 2.15625 10 2.15625C14.41 2.15625 18 5.74625 18 10.1562C18 14.5662 14.41 18.1562 10 18.1562Z" fill="#757575"/>
</svg>
