<svg width="15" height="8" viewBox="0 0 15 8" fill="none" xmlns="http://www.w3.org/2000/svg">
<path d="M11.3333 6.66732H3.66667C2.19333 6.66732 1 5.47398 1 4.00065C1 2.52732 2.19333 1.33398 3.66667 1.33398H12C12.92 1.33398 13.6667 2.08065 13.6667 3.00065C13.6667 3.92065 12.92 4.66732 12 4.66732H5C4.63333 4.66732 4.33333 4.36732 4.33333 4.00065C4.33333 3.63398 4.63333 3.33398 5 3.33398H11.3333V2.33398H5C4.08 2.33398 3.33333 3.08065 3.33333 4.00065C3.33333 4.92065 4.08 5.66732 5 5.66732H12C13.4733 5.66732 14.6667 4.47398 14.6667 3.00065C14.6667 1.52732 13.4733 0.333984 12 0.333984H3.66667C1.64 0.333984 0 1.97398 0 4.00065C0 6.02732 1.64 7.66732 3.66667 7.66732H11.3333V6.66732Z" fill="#616161"/>
</svg>
