<svg width="23" height="22" viewBox="0 0 23 22" fill="none" xmlns="http://www.w3.org/2000/svg">
<path d="M21.3329 15.92V18.92C21.3341 19.1985 21.277 19.4741 21.1655 19.7293C21.0539 19.9845 20.8902 20.2136 20.685 20.4018C20.4798 20.5901 20.2375 20.7335 19.9737 20.8227C19.7099 20.9119 19.4303 20.945 19.1529 20.92C16.0758 20.5856 13.1199 19.5341 10.5229 17.85C8.10677 16.3146 6.05828 14.2661 4.52294 11.85C2.83292 9.24118 1.78118 6.27097 1.45294 3.17997C1.42795 2.90344 1.46082 2.62474 1.54944 2.3616C1.63807 2.09846 1.78051 1.85666 1.96771 1.6516C2.1549 1.44653 2.38275 1.28268 2.63673 1.1705C2.89072 1.05831 3.16528 1.00024 3.44294 0.999975H6.44294C6.92825 0.995198 7.39873 1.16705 7.7667 1.48351C8.13467 1.79996 8.37502 2.23942 8.44294 2.71997C8.56956 3.68004 8.80439 4.6227 9.14294 5.52997C9.27748 5.8879 9.3066 6.27689 9.22685 6.65086C9.14709 7.02482 8.9618 7.36809 8.69294 7.63998L7.42294 8.90997C8.8465 11.4135 10.9194 13.4864 13.4229 14.91L14.6929 13.64C14.9648 13.3711 15.3081 13.1858 15.6821 13.1061C16.056 13.0263 16.445 13.0554 16.8029 13.19C17.7102 13.5285 18.6529 13.7634 19.6129 13.89C20.0987 13.9585 20.5423 14.2032 20.8595 14.5775C21.1766 14.9518 21.3451 15.4296 21.3329 15.92Z" stroke="#2196F3" strokeWidth="2" stroke-linecap="round" stroke-linejoin="round"/>
</svg>
