<svg width="24" height="24" viewBox="0 0 24 24" fill="none" xmlns="http://www.w3.org/2000/svg">
<path opacity="0.4" d="M12 22C17.5228 22 22 17.5228 22 12C22 6.47715 17.5228 2 12 2C6.47715 2 2 6.47715 2 12C2 17.5228 6.47715 22 12 22Z" fill="#292D32"/>
<path d="M13.0604 12.0004L15.3604 9.70035C15.6504 9.41035 15.6504 8.93035 15.3604 8.64035C15.0704 8.35035 14.5904 8.35035 14.3004 8.64035L12.0004 10.9404L9.70035 8.64035C9.41035 8.35035 8.93035 8.35035 8.64035 8.64035C8.35035 8.93035 8.35035 9.41035 8.64035 9.70035L10.9404 12.0004L8.64035 14.3004C8.35035 14.5904 8.35035 15.0704 8.64035 15.3604C8.79035 15.5104 8.98035 15.5804 9.17035 15.5804C9.36035 15.5804 9.55035 15.5104 9.70035 15.3604L12.0004 13.0604L14.3004 15.3604C14.4504 15.5104 14.6404 15.5804 14.8304 15.5804C15.0204 15.5804 15.2104 15.5104 15.3604 15.3604C15.6504 15.0704 15.6504 14.5904 15.3604 14.3004L13.0604 12.0004Z" fill="#292D32"/>
</svg>
