<svg width="48" height="48" viewBox="0 0 48 48" fill="none" xmlns="http://www.w3.org/2000/svg">
<circle cx="24" cy="24" r="24" fill="#F5F5F5"/>
<mask id="mask0_113_17482" style="mask-type:alpha" maskUnits="userSpaceOnUse" x="0" y="0" width="48" height="48">
<circle cx="24" cy="24" r="24" fill="#C4C4C4"/>
</mask>
<g mask="url(#mask0_113_17482)">
</g>
<g clip-path="url(#clip0_113_17482)">
<g opacity="0.3">
<path opacity="0.3" d="M18.1055 28.5C18.2405 28.155 18.3005 27.915 19.4705 27.465C20.9255 26.895 22.4555 26.625 24.0005 26.625C25.5455 26.625 27.0755 26.895 28.5305 27.465C29.6855 27.915 29.7455 28.155 29.8955 28.5H18.1055ZM24.0005 16.5C24.8255 16.5 25.5005 17.175 25.5005 18C25.5005 18.825 24.8255 19.5 24.0005 19.5C23.1755 19.5 22.5005 18.825 22.5005 18C22.5005 17.175 23.1755 16.5 24.0005 16.5Z" fill="#616161"/>
</g>
<path d="M12 24C13.65 24 15 22.65 15 21C15 19.35 13.65 18 12 18C10.35 18 9 19.35 9 21C9 22.65 10.35 24 12 24ZM13.695 25.65C13.14 25.56 12.585 25.5 12 25.5C10.515 25.5 9.105 25.815 7.83 26.37C6.72 26.85 6 27.93 6 29.145V31.5H12.75V29.085C12.75 27.84 13.095 26.67 13.695 25.65ZM36 24C37.65 24 39 22.65 39 21C39 19.35 37.65 18 36 18C34.35 18 33 19.35 33 21C33 22.65 34.35 24 36 24ZM42 29.145C42 27.93 41.28 26.85 40.17 26.37C38.895 25.815 37.485 25.5 36 25.5C35.415 25.5 34.86 25.56 34.305 25.65C34.905 26.67 35.25 27.84 35.25 29.085V31.5H42V29.145ZM30.36 24.975C28.605 24.195 26.445 23.625 24 23.625C21.555 23.625 19.395 24.21 17.64 24.975C16.02 25.695 15 27.315 15 29.085V31.5H33V29.085C33 27.315 31.98 25.695 30.36 24.975ZM18.105 28.5C18.24 28.155 18.3 27.915 19.47 27.465C20.925 26.895 22.455 26.625 24 26.625C25.545 26.625 27.075 26.895 28.53 27.465C29.685 27.915 29.745 28.155 29.895 28.5H18.105ZM24 16.5C24.825 16.5 25.5 17.175 25.5 18C25.5 18.825 24.825 19.5 24 19.5C23.175 19.5 22.5 18.825 22.5 18C22.5 17.175 23.175 16.5 24 16.5ZM24 13.5C21.51 13.5 19.5 15.51 19.5 18C19.5 20.49 21.51 22.5 24 22.5C26.49 22.5 28.5 20.49 28.5 18C28.5 15.51 26.49 13.5 24 13.5Z" fill="#616161"/>
</g>
<defs>
<clipPath id="clip0_113_17482">
<rect width="36" height="36" fill="white" transform="translate(6 4.5)"/>
</clipPath>
</defs>
</svg>
