<svg width="24" height="25" viewBox="0 0 24 25" fill="none" xmlns="http://www.w3.org/2000/svg">
<g clip-path="url(#clip0_277_4883)">
<path d="M11.998 15.0818C13.1026 15.0818 13.998 14.1864 13.998 13.0818C13.998 11.9772 13.1026 11.0818 11.998 11.0818C10.8935 11.0818 9.99805 11.9772 9.99805 13.0818C9.99805 14.1864 10.8935 15.0818 11.998 15.0818Z" fill="white" stroke="white" strokeWidth="1.5" stroke-linecap="round" stroke-linejoin="round"/>
<path d="M13.4492 11.632L15.4992 9.58203" stroke="white" strokeWidth="1.5" stroke-linecap="round" stroke-linejoin="round"/>
<path d="M6.40195 20.0822C4.9401 18.9203 3.87587 17.3324 3.35673 15.5386C2.8376 13.7449 2.88927 11.8341 3.5046 10.071C4.11992 8.30792 5.26842 6.77989 6.79094 5.69868C8.31346 4.61747 10.1346 4.03662 12.002 4.03662C13.8693 4.03662 15.6905 4.61747 17.213 5.69868C18.7355 6.77989 19.884 8.30792 20.4993 10.071C21.1146 11.8341 21.1663 13.7449 20.6472 15.5386C20.128 17.3324 19.0638 18.9203 17.602 20.0822H6.40195Z" stroke="white" strokeWidth="1.5" stroke-linecap="round" stroke-linejoin="round"/>
</g>
<defs>
<clipPath id="clip0_277_4883">
<rect width="24" height="24" fill="white" transform="translate(0 0.0820312)"/>
</clipPath>
</defs>
</svg>
