<svg width="79" height="79" viewBox="0 0 79 79" fill="none" xmlns="http://www.w3.org/2000/svg">
<rect width="79" height="78.9976" rx="39.4988" fill="#E3F2FD"/>
<path opacity="0.3" d="M46.7405 34.5377L44.2493 32.0464L25.833 50.4626V53.1647H28.5351L46.9513 34.7485L46.7405 34.5377Z" fill="#2196F3"/>
<path opacity="0.3" d="M37.0049 33.8671L34.7053 31.5675L32.4248 33.848L29.7036 31.1267L31.9841 28.8654L29.5503 26.4125L25.9092 30.0536L33.3638 37.5082L37.0049 33.8671Z" fill="#2196F3"/>
<path opacity="0.3" d="M47.43 44.3109L45.1303 41.9921L41.4893 45.6332L48.9439 53.0878L52.585 49.4467L50.1512 47.0129L47.8707 49.2934L45.1495 46.5913L47.43 44.3109Z" fill="#2196F3"/>
<path opacity="0.3" d="M49.6632 26.6114L46.9531 29.3215L49.6632 32.0317L52.3734 29.3215L49.6632 26.6114Z" fill="#2196F3"/>
<path d="M56.437 27.9838L51.0137 22.5605C50.2664 21.8132 49.059 21.8132 48.3117 22.5605L39.7072 31.165L32.2525 23.7104C30.7578 22.2156 28.324 22.2156 26.8292 23.7104L23.1881 27.3514C21.6934 28.8462 21.6934 31.28 23.1881 32.7747L30.6428 40.2294L22 48.8722V56.9976H30.1254L38.7873 48.3356L46.242 55.7903C48.0625 57.6108 50.5155 56.9401 51.6653 55.7903L55.3064 52.1492C56.8012 50.6544 56.8012 48.2206 55.3064 46.7259L47.8517 39.2712L56.4562 30.6668C57.1844 29.9385 57.1844 28.7312 56.437 27.9838ZM25.9094 30.0535L29.5313 26.4124L31.9651 28.8462L29.7038 31.1267L32.4059 33.8287L34.6863 31.5483L36.986 33.8479L33.3449 37.489L25.9094 30.0535ZM28.5348 53.1649H25.8327V50.4628L44.249 32.0465L46.7402 34.5378L46.951 34.7486L28.5348 53.1649ZM47.8709 49.2938L50.1514 47.0133L52.5852 49.4471L48.9441 53.0882L41.4894 45.6335L45.1305 41.9925L47.4301 44.2921L45.1497 46.5726L47.8709 49.2938ZM49.6723 32.0465L46.9702 29.3445L49.6723 26.6424L52.3744 29.3445L49.6723 32.0465Z" fill="#2196F3"/>
</svg>
