<svg width="20" height="20" viewBox="0 0 20 20" fill="none" xmlns="http://www.w3.org/2000/svg">
<path d="M14.1672 1.66632H16.3922C16.8638 1.65798 17.3221 1.8231 17.68 2.13033C18.038 2.43757 18.2706 2.86553 18.3338 3.33298V9.16632C18.2706 9.63377 18.038 10.0617 17.68 10.369C17.3221 10.6762 16.8638 10.8413 16.3922 10.833H14.1672M8.33385 12.4997V15.833C8.33385 16.496 8.59724 17.1319 9.06608 17.6008C9.53492 18.0696 10.1708 18.333 10.8338 18.333L14.1672 10.833V1.66632H4.76718C4.36524 1.66177 3.9752 1.80265 3.66893 2.06298C3.36265 2.32331 3.16078 2.68556 3.10051 3.08298L1.95051 10.583C1.91426 10.8219 1.93037 11.0657 1.99773 11.2978C2.06509 11.5298 2.1821 11.7444 2.34063 11.9267C2.49917 12.109 2.69545 12.2547 2.91587 12.3536C3.13629 12.4526 3.37559 12.5024 3.61718 12.4997H8.33385Z" stroke="#101828" strokeWidth="2" stroke-linecap="round" stroke-linejoin="round"/>
</svg>
