<svg width="20" height="19" viewBox="0 0 20 19" fill="none" xmlns="http://www.w3.org/2000/svg">
<path opacity="0.3" d="M10 1.93555C5.59 1.93555 2 5.33023 2 9.50031C2 13.6704 5.59 17.0651 10 17.0651C14.41 17.0651 18 13.6704 18 9.50031C18 5.33023 14.41 1.93555 10 1.93555ZM9 7.60912V3.82674H11V7.60912H14L10 11.3915L6 7.60912H9ZM15 14.2283H5V12.3371H15V14.2283Z" fill="white"/>
<path d="M14 7.6105H11V3.82812H9V7.6105H6L10 11.3929L14 7.6105Z" fill="white"/>
<path d="M15 12.3379H5V14.2291H15V12.3379Z" fill="white"/>
<path d="M10 0.0449219C4.49 0.0449219 0 4.29064 0 9.50087C0 14.7111 4.49 18.9568 10 18.9568C15.51 18.9568 20 14.7111 20 9.50087C20 4.29064 15.51 0.0449219 10 0.0449219ZM10 17.0656C5.59 17.0656 2 13.6709 2 9.50087C2 5.3308 5.59 1.93611 10 1.93611C14.41 1.93611 18 5.3308 18 9.50087C18 13.6709 14.41 17.0656 10 17.0656Z" fill="white"/>
</svg>
