<svg width="82" height="82" viewBox="0 0 82 82" fill="none" xmlns="http://www.w3.org/2000/svg">
<g id="add_photo_alternate" clip-path="url(#clip0_2562_27363)">
<path id="Vector" d="M34.8835 57.5032L28.1868 49.4399L18.791 61.5007H56.3744L44.2794 45.4082L34.8835 57.5032Z" fill="#2196F3"/>
<path id="Vector_2" opacity="0.3" d="M56.3743 61.5H18.791L28.1868 49.4392L34.8835 57.5025L44.2793 45.4075L56.3743 61.5ZM58.0827 23.9167H47.8327V20.5H13.666V68.3333H61.4993V34.1667H58.0827V23.9167Z" fill="#2196F3"/>
<path id="Vector_3" d="M68.334 13.667V3.41699H61.5007V13.667H51.2507V20.5003H61.5007V30.7162H68.334V20.5003H78.584V13.667H68.334ZM61.5007 68.3337H13.6673V20.5003H47.834V13.667H13.6673C9.90898 13.667 6.83398 16.742 6.83398 20.5003V68.3337C6.83398 72.092 9.90898 75.167 13.6673 75.167H61.5007C65.259 75.167 68.334 72.092 68.334 68.3337V34.167H61.5007V68.3337Z" fill="#2196F3"/>
</g>
<defs>
<clipPath id="clip0_2562_27363">
<rect width="82" height="82" fill="white"/>
</clipPath>
</defs>
</svg>
