<svg width="14" height="12" viewBox="0 0 14 12" fill="none" xmlns="http://www.w3.org/2000/svg">
<path d="M6.49409 11.7784L6.87303 11.4522C6.12421 10.5823 5.15804 9.80486 4.26528 9.08649L4.23346 9.06088L4.23326 9.06072C3.26043 8.2787 2.32417 7.52347 1.62426 6.6674C0.933995 5.8231 0.5 4.91125 0.5 3.82062C0.5 2.81872 0.854973 1.99615 1.43919 1.42407C2.02418 0.851256 2.86951 0.5 3.90218 0.5C5.01841 0.5 6.02927 1.29685 6.64052 1.92453L6.99873 2.29237L7.35694 1.92453C7.96779 1.29725 8.98131 0.5 10.0985 0.5C11.1308 0.5 11.9759 0.851233 12.5609 1.42405C13.145 1.99613 13.5 2.81872 13.5 3.82062C13.5 4.91151 13.0657 5.8235 12.3752 6.6678C11.6751 7.5239 10.7387 8.27897 9.76611 9.06071L9.75734 9.06776C8.85704 9.79112 7.88189 10.5746 7.12556 11.4516C7.09971 11.4814 7.06035 11.5 7.01782 11.5H6.98091C6.93787 11.5 6.89805 11.4811 6.87219 11.4512L6.49409 11.7784ZM6.49409 11.7784C6.61564 11.9188 6.79382 12 6.98091 12H7.01782C7.20555 12 7.38309 11.9182 7.504 11.7784L6.72121 1.30544C6.06526 0.700164 5.05729 0 3.90218 0C1.60427 0 0 1.57132 0 3.82062C0 6.29903 1.99245 7.90095 3.92 9.45042L3.93318 9.46103C4.83909 10.19 5.7753 10.9434 6.49409 11.7784Z" stroke="white"/>
</svg>
