<svg width="24" height="24" viewBox="0 0 24 24" fill="none" xmlns="http://www.w3.org/2000/svg">
<g clip-path="url(#clip0_277_14576)">
<path d="M13.998 8.00012C15.1026 8.00012 15.998 7.10469 15.998 6.00012C15.998 4.89555 15.1026 4.00012 13.998 4.00012C12.8935 4.00012 11.998 4.89555 11.998 6.00012C11.998 7.10469 12.8935 8.00012 13.998 8.00012Z" fill="#2196F3" stroke="#616161" strokeWidth="1.5" stroke-linecap="round" stroke-linejoin="round"/>
<path d="M4.00195 5.99915H12.002" stroke="#616161" strokeWidth="1.5" stroke-linecap="round" stroke-linejoin="round"/>
<path d="M16 5.99915H20" stroke="#616161" strokeWidth="1.5" stroke-linecap="round" stroke-linejoin="round"/>
<path d="M8.00391 13.9993C9.10848 13.9993 10.0039 13.1038 10.0039 11.9993C10.0039 10.8947 9.10848 9.99927 8.00391 9.99927C6.89934 9.99927 6.00391 10.8947 6.00391 11.9993C6.00391 13.1038 6.89934 13.9993 8.00391 13.9993Z" stroke="#616161" strokeWidth="1.5" stroke-linecap="round" stroke-linejoin="round"/>
<path d="M4.00195 12.0004H6.00195" stroke="#616161" strokeWidth="1.5" stroke-linecap="round" stroke-linejoin="round"/>
<path d="M9.99805 12.0004H19.998" stroke="#616161" strokeWidth="1.5" stroke-linecap="round" stroke-linejoin="round"/>
<path d="M17 20.0006C18.1046 20.0006 19 19.1051 19 18.0006C19 16.896 18.1046 16.0005 17 16.0005C15.8954 16.0005 15 16.896 15 18.0006C15 19.1051 15.8954 20.0006 17 20.0006Z" stroke="#616161" strokeWidth="1.5" stroke-linecap="round" stroke-linejoin="round"/>
<path d="M4.00195 17.9996H15.002" stroke="#616161" strokeWidth="1.5" stroke-linecap="round" stroke-linejoin="round"/>
<path d="M19.002 17.9996H20.002" stroke="#616161" strokeWidth="1.5" stroke-linecap="round" stroke-linejoin="round"/>
</g>
<defs>
<clipPath id="clip0_277_14576">
<rect width="24" height="24" fill="white"/>
</clipPath>
</defs>
</svg>
