<svg width="17" height="17" viewBox="0 0 17 17" fill="none" xmlns="http://www.w3.org/2000/svg">
<path d="M8.49935 4.45768C8.04102 4.45768 7.66602 4.83268 7.66602 5.29102V7.79102H5.16602C4.70768 7.79102 4.33268 8.16602 4.33268 8.62435C4.33268 9.08268 4.70768 9.45768 5.16602 9.45768H7.66602V11.9577C7.66602 12.416 8.04102 12.791 8.49935 12.791C8.95768 12.791 9.33268 12.416 9.33268 11.9577V9.45768H11.8327C12.291 9.45768 12.666 9.08268 12.666 8.62435C12.666 8.16602 12.291 7.79102 11.8327 7.79102H9.33268V5.29102C9.33268 4.83268 8.95768 4.45768 8.49935 4.45768ZM8.49935 0.291016C3.89935 0.291016 0.166016 4.02435 0.166016 8.62435C0.166016 13.2243 3.89935 16.9577 8.49935 16.9577C13.0993 16.9577 16.8327 13.2243 16.8327 8.62435C16.8327 4.02435 13.0993 0.291016 8.49935 0.291016ZM8.49935 15.291C4.82435 15.291 1.83268 12.2993 1.83268 8.62435C1.83268 4.94935 4.82435 1.95768 8.49935 1.95768C12.1743 1.95768 15.166 4.94935 15.166 8.62435C15.166 12.2993 12.1743 15.291 8.49935 15.291Z" fill="#2196F3"/>
</svg>
