<svg width="22" height="22" viewBox="0 0 22 22" fill="none" xmlns="http://www.w3.org/2000/svg">
<path d="M5.05995 13.2251L4.31736 15.9972L1.60324 16.0547C0.792115 14.5502 0.332031 12.8289 0.332031 10.9997C0.332031 9.23095 0.762198 7.56295 1.5247 6.09424H1.52528L3.94161 6.53724L5.00011 8.93907C4.77857 9.58495 4.65782 10.2783 4.65782 10.9997C4.65791 11.7827 4.79974 12.5329 5.05995 13.2251Z" fill="#FBBB00"/>
<path d="M21.4802 9.00684C21.6027 9.65209 21.6665 10.3185 21.6665 10.9995C21.6665 11.7632 21.5863 12.5081 21.4333 13.2266C20.914 15.6718 19.5573 17.8068 17.6777 19.3178L17.6771 19.3172L14.6336 19.1619L14.2029 16.4729C15.45 15.7415 16.4247 14.5969 16.9381 13.2266H11.2344V9.00684H17.0213H21.4802Z" fill="#518EF8"/>
<path d="M17.6742 19.3174L17.6748 19.318C15.8469 20.7873 13.5248 21.6664 10.997 21.6664C6.9349 21.6664 3.40319 19.3959 1.60156 16.0547L5.05827 13.2251C5.95906 15.6292 8.27819 17.3406 10.997 17.3406C12.1656 17.3406 13.2605 17.0246 14.1999 16.4731L17.6742 19.3174Z" fill="#28B446"/>
<path d="M17.8059 2.78867L14.3504 5.61767C13.3781 5.00992 12.2288 4.65884 10.9974 4.65884C8.21706 4.65884 5.85456 6.44872 4.9989 8.93901L1.52402 6.09417H1.52344C3.29869 2.67147 6.87494 0.333008 10.9974 0.333008C13.5856 0.333008 15.9586 1.25492 17.8059 2.78867Z" fill="#F14336"/>
</svg>
