<svg width="15" height="15" viewBox="0 0 15 15" fill="none" xmlns="http://www.w3.org/2000/svg">
<path d="M11.6673 8.6666C11.4905 8.6666 11.3209 8.73683 11.1959 8.86186C11.0709 8.98688 11.0007 9.15645 11.0007 9.33326V9.5866L10.014 8.59993C9.6656 8.25429 9.19474 8.06035 8.70399 8.06035C8.21323 8.06035 7.74237 8.25429 7.39398 8.59993L6.92732 9.0666L5.27398 7.41326C4.92073 7.077 4.4517 6.88945 3.96398 6.88945C3.47627 6.88945 3.00724 7.077 2.65398 7.41326L1.66732 8.39993V4.6666C1.66732 4.48979 1.73756 4.32022 1.86258 4.19519C1.9876 4.07017 2.15717 3.99993 2.33398 3.99993H7.00065C7.17746 3.99993 7.34703 3.92969 7.47206 3.80467C7.59708 3.67964 7.66732 3.51008 7.66732 3.33326C7.66732 3.15645 7.59708 2.98688 7.47206 2.86186C7.34703 2.73684 7.17746 2.6666 7.00065 2.6666H2.33398C1.80355 2.6666 1.29484 2.87731 0.919771 3.25238C0.544698 3.62746 0.333984 4.13616 0.333984 4.6666V12.6666C0.333984 13.197 0.544698 13.7057 0.919771 14.0808C1.29484 14.4559 1.80355 14.6666 2.33398 14.6666H10.334C10.8644 14.6666 11.3731 14.4559 11.7482 14.0808C12.1233 13.7057 12.334 13.197 12.334 12.6666V9.33326C12.334 9.15645 12.2637 8.98688 12.1387 8.86186C12.0137 8.73683 11.8441 8.6666 11.6673 8.6666ZM2.33398 13.3333C2.15717 13.3333 1.9876 13.263 1.86258 13.138C1.73756 13.013 1.66732 12.8434 1.66732 12.6666V10.2866L3.60065 8.35326C3.69859 8.25993 3.82869 8.20787 3.96398 8.20787C4.09928 8.20787 4.22938 8.25993 4.32732 8.35326L6.44065 10.4666L9.30732 13.3333H2.33398ZM11.0007 12.6666C10.9997 12.7942 10.9576 12.9181 10.8807 13.0199L7.87398 9.99993L8.34065 9.53326C8.38845 9.48448 8.4455 9.44573 8.50846 9.41927C8.57142 9.39282 8.63902 9.37919 8.70732 9.37919C8.77561 9.37919 8.84322 9.39282 8.90618 9.41927C8.96914 9.44573 9.02619 9.48448 9.07398 9.53326L11.0007 11.4733V12.6666ZM14.1407 2.85993L12.1407 0.859931C12.0772 0.799237 12.0025 0.75166 11.9207 0.719931C11.7583 0.653252 11.5763 0.653252 11.414 0.719931C11.3322 0.75166 11.2574 0.799237 11.194 0.859931L9.19398 2.85993C9.13183 2.92209 9.08252 2.99588 9.04888 3.0771C9.01524 3.15831 8.99792 3.24536 8.99792 3.33326C8.99792 3.5108 9.06845 3.68106 9.19398 3.8066C9.31952 3.93213 9.48978 4.00266 9.66732 4.00266C9.84485 4.00266 10.0151 3.93213 10.1407 3.8066L11.0007 2.93993V6.6666C11.0007 6.84341 11.0709 7.01298 11.1959 7.138C11.3209 7.26303 11.4905 7.33326 11.6673 7.33326C11.8441 7.33326 12.0137 7.26303 12.1387 7.138C12.2637 7.01298 12.334 6.84341 12.334 6.6666V2.93993L13.194 3.8066C13.256 3.86908 13.3297 3.91868 13.4109 3.95252C13.4922 3.98637 13.5793 4.0038 13.6673 4.0038C13.7553 4.0038 13.8425 3.98637 13.9237 3.95252C14.0049 3.91868 14.0787 3.86908 14.1407 3.8066C14.2031 3.74462 14.2527 3.67089 14.2866 3.58965C14.3204 3.50841 14.3379 3.42127 14.3379 3.33326C14.3379 3.24526 14.3204 3.15812 14.2866 3.07688C14.2527 2.99564 14.2031 2.92191 14.1407 2.85993Z" fill="#616161"/>
</svg>
