<svg width="24" height="24" viewBox="0 0 24 24" fill="none" xmlns="http://www.w3.org/2000/svg">
<path d="M11.9995 2C6.48951 2 1.99951 6.49 1.99951 12C1.99951 17.51 6.48951 22 11.9995 22C17.5095 22 21.9995 17.51 21.9995 12C21.9995 6.49 17.5095 2 11.9995 2ZM11.2495 8C11.2495 7.59 11.5895 7.25 11.9995 7.25C12.4095 7.25 12.7495 7.59 12.7495 8V13C12.7495 13.41 12.4095 13.75 11.9995 13.75C11.5895 13.75 11.2495 13.41 11.2495 13V8ZM12.9195 16.38C12.8695 16.51 12.7995 16.61 12.7095 16.71C12.6095 16.8 12.4995 16.87 12.3795 16.92C12.2595 16.97 12.1295 17 11.9995 17C11.8695 17 11.7395 16.97 11.6195 16.92C11.4995 16.87 11.3895 16.8 11.2895 16.71C11.1995 16.61 11.1295 16.51 11.0795 16.38C11.0295 16.26 10.9995 16.13 10.9995 16C10.9995 15.87 11.0295 15.74 11.0795 15.62C11.1295 15.5 11.1995 15.39 11.2895 15.29C11.3895 15.2 11.4995 15.13 11.6195 15.08C11.8595 14.98 12.1395 14.98 12.3795 15.08C12.4995 15.13 12.6095 15.2 12.7095 15.29C12.7995 15.39 12.8695 15.5 12.9195 15.62C12.9695 15.74 12.9995 15.87 12.9995 16C12.9995 16.13 12.9695 16.26 12.9195 16.38Z" fill="#343A3F"/>
</svg>
