<svg width="20" height="20" viewBox="0 0 20 20" fill="none" xmlns="http://www.w3.org/2000/svg">
<path d="M5.83268 18.3327H3.33268C2.89065 18.3327 2.46673 18.1571 2.15417 17.8445C1.84161 17.532 1.66602 17.108 1.66602 16.666V10.8327C1.66602 10.3907 1.84161 9.96673 2.15417 9.65417C2.46673 9.34161 2.89065 9.16602 3.33268 9.16602H5.83268M11.666 7.49935V4.16602C11.666 3.50297 11.4026 2.86709 10.9338 2.39825C10.4649 1.92941 9.82906 1.66602 9.16602 1.66602L5.83268 9.16602V18.3327H15.2327C15.6346 18.3372 16.0247 18.1964 16.3309 17.936C16.6372 17.6757 16.8391 17.3134 16.8993 16.916L18.0493 9.41602C18.0856 9.17715 18.0695 8.93325 18.0021 8.70122C17.9348 8.4692 17.8178 8.25459 17.6592 8.07228C17.5007 7.88996 17.3044 7.74429 17.084 7.64536C16.8636 7.54644 16.6243 7.49661 16.3827 7.49935H11.666Z" stroke="#101828" strokeWidth="2" stroke-linecap="round" stroke-linejoin="round"/>
</svg>
