<svg width="21" height="24" viewBox="0 0 21 24" fill="none" xmlns="http://www.w3.org/2000/svg">
<path d="M19.3335 10C19.3335 17 10.3335 23 10.3335 23C10.3335 23 1.3335 17 1.3335 10C1.3335 7.61305 2.28171 5.32387 3.96953 3.63604C5.65736 1.94821 7.94655 1 10.3335 1C12.7204 1 15.0096 1.94821 16.6975 3.63604C18.3853 5.32387 19.3335 7.61305 19.3335 10Z" stroke="#2196F3" strokeWidth="2" stroke-linecap="round" stroke-linejoin="round"/>
<path d="M10.3335 13C11.9904 13 13.3335 11.6569 13.3335 10C13.3335 8.34315 11.9904 7 10.3335 7C8.67664 7 7.3335 8.34315 7.3335 10C7.3335 11.6569 8.67664 13 10.3335 13Z" stroke="#2196F3" strokeWidth="2" stroke-linecap="round" stroke-linejoin="round"/>
</svg>
