<svg width="24" height="20" viewBox="0 0 83 84" fill="none" xmlns="http://www.w3.org/2000/svg">
<path d="M45.4769 0C33.9689 0 24.6409 9.3281 24.6409 20.836C24.6409 23.1368 26.5081 25.0001 28.8089 25.0001C31.1097 25.0001 32.9769 23.1368 32.9769 20.836C32.9769 13.9298 38.5707 8.336 45.4769 8.336H62.1409C69.0471 8.336 74.6409 13.9298 74.6409 20.836V62.5C74.6409 69.4062 69.0471 75 62.1409 75H45.4769C38.5707 75 32.9769 69.4062 32.9769 62.5C32.9769 60.1992 31.1097 58.3359 28.8089 58.3359C26.5081 58.3359 24.6409 60.1992 24.6409 62.5C24.6409 74.008 33.969 83.336 45.4769 83.336H62.1409C73.6489 83.336 82.9769 74.0079 82.9769 62.5V20.836C82.9769 9.328 73.6488 0 62.1409 0H45.4769Z" fill="#616161"/>
<path d="M49.6409 37.5C51.9417 37.5 53.8089 39.3672 53.8089 41.668C53.8089 43.9688 51.9417 45.836 49.6409 45.836V37.5Z" fill="#616161"/>
<path d="M15.1328 37.4999C15.5039 37.0429 15.8594 36.6015 16.1953 36.1757C17.2187 34.8866 18.0859 33.7538 18.6953 32.9413C19.0039 32.535 19.2461 32.2069 19.4141 31.9804L19.6055 31.7147L19.6602 31.6444L19.6758 31.621C19.6758 31.621 19.6797 31.6171 16.3086 29.1679L19.6758 31.621C21.0313 29.7577 20.6211 27.1483 18.7578 25.7968C16.8945 24.4452 14.289 24.8554 12.9375 26.7187L12.9258 26.7343L12.8829 26.7929L12.711 27.0312C12.5547 27.2382 12.3282 27.5429 12.0391 27.9296C11.461 28.6991 10.6368 29.7734 9.6641 30.9999C7.7032 33.4765 5.2149 36.453 2.9453 38.7226L0 41.6679L2.9453 44.6132C5.2148 46.8827 7.7031 49.8593 9.6641 52.3359C10.6368 53.5625 11.461 54.6406 12.0391 55.4062C12.3282 55.7929 12.5547 56.0976 12.711 56.3046L12.8829 56.5429L12.9258 56.6015L12.9375 56.6132C14.2891 58.4765 16.8945 58.8905 18.7578 57.539C20.6211 56.1874 21.0312 53.582 19.6797 51.7187L19.6602 51.6914L19.6055 51.6211L19.4141 51.3554C19.2461 51.1289 19.0039 50.8007 18.6953 50.3945C18.086 49.582 17.2187 48.4492 16.1953 47.1601C15.8594 46.7343 15.5039 46.2929 15.1328 45.8359H49.6408V37.5L15.1328 37.4999Z" fill="#616161"/>
</svg>
