<svg width="10" height="13" viewBox="0 0 10 13" fill="none" xmlns="http://www.w3.org/2000/svg">
<path d="M5.00065 8.33398C6.10732 8.33398 7.00065 7.44065 7.00065 6.33398V2.33398C7.00065 1.22732 6.10732 0.333984 5.00065 0.333984C3.89398 0.333984 3.00065 1.22732 3.00065 2.33398V6.33398C3.00065 7.44065 3.89398 8.33398 5.00065 8.33398ZM4.33398 2.33398C4.33398 1.96732 4.63398 1.66732 5.00065 1.66732C5.36732 1.66732 5.66732 1.96732 5.66732 2.33398V6.33398C5.66732 6.70065 5.36732 7.00065 5.00065 7.00065C4.63398 7.00065 4.33398 6.70065 4.33398 6.33398V2.33398ZM8.33398 6.33398C8.33398 8.17398 6.84065 9.66732 5.00065 9.66732C3.16065 9.66732 1.66732 8.17398 1.66732 6.33398H0.333984C0.333984 8.68732 2.07398 10.6207 4.33398 10.9473V13.0007H5.66732V10.9473C7.92732 10.6207 9.66732 8.68732 9.66732 6.33398H8.33398Z" fill="#616161"/>
</svg>
