<svg width="20" height="18" viewBox="0 0 20 18" fill="none" xmlns="http://www.w3.org/2000/svg">
<path d="M7.4987 17.5H14.9987C15.6904 17.5 16.282 17.0834 16.532 16.4834L19.0487 10.6084C19.1237 10.4167 19.1654 10.2167 19.1654 10V8.33337C19.1654 7.41671 18.4154 6.66671 17.4987 6.66671H12.2404L13.032 2.85837L13.057 2.59171C13.057 2.25004 12.9154 1.93337 12.6904 1.70837L11.807 0.833374L6.31536 6.32504C6.01536 6.62504 5.83203 7.04171 5.83203 7.50004V15.8334C5.83203 16.75 6.58203 17.5 7.4987 17.5ZM7.4987 7.50004L11.1154 3.88337L9.9987 8.33337H17.4987V10L14.9987 15.8334H7.4987V7.50004ZM0.832031 7.50004H4.16536V17.5H0.832031V7.50004Z" fill="#673AB7"/>
</svg>
