<svg width="18" height="19" viewBox="0 0 18 19" fill="none" xmlns="http://www.w3.org/2000/svg">
<path d="M1 18.5C0.450001 18.5 0 18.05 0 17.5V14.01C0 13.46 0.450001 13.01 1 13.01C2.24 13.01 3.45 12.81 4.57 12.44C4.67 12.4 4.78 12.39 4.88 12.39C5.14 12.39 5.39 12.49 5.59 12.68L7.79 14.88C10.62 13.43 12.94 11.12 14.38 8.29L12.18 6.09C11.9 5.81 11.82 5.42 11.93 5.07C12.3 3.95 12.5 2.75 12.5 1.5C12.5 0.95 12.95 0.5 13.5 0.5H17C17.55 0.5 18 0.95 18 1.5C18 10.89 10.39 18.5 1 18.5ZM4.6 14.52C3.75 14.76 2.88 14.91 2 14.97V16.46C3.32 16.37 4.59 16.11 5.8 15.71L4.6 14.52ZM15.97 2.5H14.47C14.4 3.39 14.25 4.26 14.01 5.09L15.21 6.29C15.62 5.09 15.88 3.82 15.97 2.5Z" fill="white"/>
</svg>
