<?xml version="1.0" encoding="iso-8859-1"?>
<!-- Generator: Adobe Illustrator 26.0.3, SVG Export Plug-In . SVG Version: 6.00 Build 0)  -->
<svg version="1.1" id="Layer_1" xmlns="http://www.w3.org/2000/svg" xmlns:xlink="http://www.w3.org/1999/xlink" x="0px" y="0px"
	 viewBox="0 0 1080 1080" style="enable-background:new 0 0 1080 1080;" xml:space="preserve">
<g>
	<path style="stroke:#000000;stroke-width:29;strokeMiterlimit:10;" d="M648.825,636.095H431.173
		c-138.393,0-250.985,112.594-250.985,250.987c0,26.448,21.519,47.967,47.967,47.967h623.687c26.453,0,47.971-21.519,47.971-47.967
		C899.812,748.689,787.218,636.095,648.825,636.095z M851.841,902.955H228.154c-8.751,0-15.873-7.119-15.873-15.872
		c0-120.698,98.195-218.893,218.891-218.893h217.653c120.698,0,218.893,98.195,218.893,218.893
		C867.718,895.836,860.595,902.955,851.841,902.955z"/>
	<path style="stroke:#000000;stroke-width:29;strokeMiterlimit:10;" d="M532.898,555.322c109.543,0,198.662-89.119,198.662-198.662
		S642.44,157.997,532.898,157.997s-198.664,89.121-198.664,198.664S423.355,555.322,532.898,555.322z M532.898,190.091
		c91.843,0,166.567,74.724,166.567,166.57c0,91.843-74.724,166.567-166.567,166.567c-91.846,0-166.57-74.724-166.57-166.567
		C366.328,264.815,441.052,190.091,532.898,190.091z"/>
</g>
</svg>
