<?xml version="1.0" encoding="iso-8859-1"?>
<!-- Generator: Adobe Illustrator 26.0.3, SVG Export Plug-In . SVG Version: 6.00 Build 0)  -->
<svg version="1.1" id="Layer_1" xmlns="http://www.w3.org/2000/svg" xmlns:xlink="http://www.w3.org/1999/xlink" x="0px" y="0px"
	 viewBox="0 0 1080 1080" style="enable-background:new 0 0 1080 1080;" xml:space="preserve">
<path style="fill:none;stroke:#000000;stroke-width:65;stroke-linecap:round;stroke-linejoin:round;stroke-miterlimit:10;" d="
	M764.353,975.06H315.647c-47.842,0-86.626-38.784-86.626-86.626V191.566c0-47.842,38.784-86.626,86.626-86.626h448.706
	c47.842,0,86.626,38.784,86.626,86.626v696.869C850.979,936.276,812.195,975.06,764.353,975.06z"/>
<path style="fill:none;stroke:#000000;stroke-width:65;stroke-linecap:round;stroke-linejoin:round;stroke-miterlimit:10;" d="
	M672.436,249.596H407.564c-24.436,0-44.245-19.809-44.245-44.245V104.94h353.362v100.411
	C716.681,229.787,696.872,249.596,672.436,249.596z"/>
<rect x="335.383" y="383.055" style="fill:none;stroke:#000000;stroke-width:20;stroke-linecap:round;stroke-linejoin:round;stroke-miterlimit:10;" width="106.213" height="106.213"/>
<rect x="335.383" y="540" style="fill:none;stroke:#000000;stroke-width:20;stroke-linecap:round;stroke-linejoin:round;stroke-miterlimit:10;" width="106.213" height="106.213"/>
<rect x="335.383" y="696.945" style="fill:none;stroke:#000000;stroke-width:20;stroke-linecap:round;stroke-linejoin:round;stroke-miterlimit:10;" width="106.213" height="106.213"/>
<line style="fill:none;stroke:#000000;stroke-width:20;stroke-linecap:round;stroke-linejoin:round;stroke-miterlimit:10;" x1="511.043" y1="436.161" x2="737.766" y2="436.161"/>
<line style="fill:none;stroke:#000000;stroke-width:20;stroke-linecap:round;stroke-linejoin:round;stroke-miterlimit:10;" x1="511.043" y1="593.106" x2="737.766" y2="593.106"/>
<line style="fill:none;stroke:#000000;stroke-width:20;stroke-linecap:round;stroke-linejoin:round;stroke-miterlimit:10;" x1="511.043" y1="750.052" x2="737.766" y2="750.052"/>
<polyline style="fill:none;stroke:#000000;stroke-width:28;stroke-linecap:round;stroke-linejoin:round;stroke-miterlimit:10;" points="
	369.138,423.032 397.989,451.883 498.277,351.596 "/>
<polyline style="fill:none;stroke:#000000;stroke-width:28;stroke-linecap:round;stroke-linejoin:round;stroke-miterlimit:10;" points="
	369.138,576.615 397.989,605.466 498.277,505.179 "/>
<polyline style="fill:none;stroke:#000000;stroke-width:28;stroke-linecap:round;stroke-linejoin:round;stroke-miterlimit:10;" points="
	369.138,739.626 397.989,768.477 498.277,668.189 "/>
</svg>
