<svg width="18" height="18" viewBox="0 0 18 18" fill="none" xmlns="http://www.w3.org/2000/svg">
<path d="M5.49937 11H6.28937L6.56937 10.73C5.36937 9.33002 4.74937 7.42002 5.08937 5.39002C5.55937 2.61002 7.87937 0.390015 10.6794 0.0500152C14.9094 -0.469985 18.4694 3.09001 17.9494 7.32001C17.6094 10.12 15.3894 12.44 12.6094 12.91C10.5794 13.25 8.66937 12.63 7.26937 11.43L6.99937 11.71V12.5L2.74937 16.75C2.33937 17.16 1.66937 17.16 1.25937 16.75C0.849375 16.34 0.849375 15.67 1.25937 15.26L5.49937 11ZM11.4994 11C13.9894 11 15.9994 8.99002 15.9994 6.50002C15.9994 4.01002 13.9894 2.00002 11.4994 2.00002C9.00937 2.00002 6.99937 4.01002 6.99937 6.50002C6.99937 8.99002 9.00937 11 11.4994 11Z" fill="white"/>
</svg>
