<svg width="24" height="24" viewBox="0 0 24 24" fill="none" xmlns="http://www.w3.org/2000/svg">
<path d="M20.6201 13.07C20.2401 13.07 19.9201 12.78 19.8701 12.4C19.6301 10.14 18.4101 8.08998 16.5301 6.78998C16.1901 6.54998 16.1101 6.08998 16.3401 5.74998C16.5801 5.40998 17.0501 5.32998 17.3801 5.55998C19.6201 7.10998 21.0601 9.54998 21.3501 12.24C21.3901 12.65 21.1001 13.02 20.6801 13.07C20.6701 13.07 20.6401 13.07 20.6201 13.07Z" fill="#2196F3"/>
<path d="M3.48991 13.12C3.45991 13.12 3.43991 13.12 3.40991 13.12C2.99991 13.07 2.69991 12.7 2.73991 12.29C3.00991 9.60001 4.43991 7.17001 6.64991 5.60001C6.98991 5.36001 7.45991 5.44001 7.69991 5.78001C7.93991 6.12001 7.85991 6.59001 7.51991 6.83001C5.65991 8.14001 4.45991 10.19 4.22991 12.45C4.19991 12.83 3.86991 13.12 3.48991 13.12Z" fill="#2196F3"/>
<path d="M12.06 22.61C10.58 22.61 9.16997 22.27 7.84997 21.61C7.47997 21.42 7.32997 20.97 7.51997 20.6C7.70997 20.23 8.15997 20.08 8.52997 20.27C10.69 21.36 13.29 21.38 15.47 20.33C15.84 20.15 16.29 20.31 16.47 20.68C16.65 21.05 16.49 21.5 16.12 21.68C14.84 22.3 13.48 22.61 12.06 22.61Z" fill="#2196F3"/>
<path d="M12.0598 8.44C10.1098 8.44 8.52979 6.86 8.52979 4.91C8.52979 2.96 10.1098 1.38 12.0598 1.38C14.0098 1.38 15.5898 2.96 15.5898 4.91C15.5898 6.86 13.9998 8.44 12.0598 8.44ZM12.0598 2.89C10.9398 2.89 10.0298 3.8 10.0298 4.92C10.0298 6.04 10.9398 6.95 12.0598 6.95C13.1798 6.95 14.0898 6.04 14.0898 4.92C14.0898 3.8 13.1698 2.89 12.0598 2.89Z" fill="#2196F3"/>
<path d="M4.8298 20.67C2.8798 20.67 1.2998 19.09 1.2998 17.14C1.2998 15.2 2.8798 13.61 4.8298 13.61C6.7798 13.61 8.3598 15.19 8.3598 17.14C8.3598 19.08 6.7798 20.67 4.8298 20.67ZM4.8298 15.11C3.7098 15.11 2.7998 16.02 2.7998 17.14C2.7998 18.26 3.7098 19.17 4.8298 19.17C5.9498 19.17 6.85981 18.26 6.85981 17.14C6.85981 16.02 5.9498 15.11 4.8298 15.11Z" fill="#2196F3"/>
<path d="M19.1701 20.67C17.2201 20.67 15.6401 19.09 15.6401 17.14C15.6401 15.2 17.2201 13.61 19.1701 13.61C21.1201 13.61 22.7001 15.19 22.7001 17.14C22.6901 19.08 21.1101 20.67 19.1701 20.67ZM19.1701 15.11C18.0501 15.11 17.1401 16.02 17.1401 17.14C17.1401 18.26 18.0501 19.17 19.1701 19.17C20.2901 19.17 21.2001 18.26 21.2001 17.14C21.1901 16.02 20.2901 15.11 19.1701 15.11Z" fill="#2196F3"/>
</svg>
