<svg width="12" height="14" viewBox="0 0 12 14" fill="none" xmlns="http://www.w3.org/2000/svg">
<path d="M9.71643 9.72016C9.22888 9.72016 8.79265 9.92016 8.45907 10.2335L3.88509 7.46683C3.91716 7.3135 3.94282 7.16016 3.94282 7.00016C3.94282 6.84016 3.91716 6.68683 3.88509 6.5335L8.40775 3.7935C8.75416 4.12683 9.20963 4.3335 9.71643 4.3335C10.7813 4.3335 11.641 3.44016 11.641 2.3335C11.641 1.22683 10.7813 0.333496 9.71643 0.333496C8.65152 0.333496 7.79189 1.22683 7.79189 2.3335C7.79189 2.4935 7.81755 2.64683 7.84963 2.80016L3.32697 5.54016C2.98055 5.20683 2.52508 5.00016 2.01829 5.00016C0.953376 5.00016 0.09375 5.8935 0.09375 7.00016C0.09375 8.10683 0.953376 9.00016 2.01829 9.00016C2.52508 9.00016 2.98055 8.7935 3.32697 8.46016L7.89454 11.2335C7.86246 11.3735 7.84321 11.5202 7.84321 11.6668C7.84321 12.7402 8.6836 13.6135 9.71643 13.6135C10.7493 13.6135 11.5896 12.7402 11.5896 11.6668C11.5896 10.5935 10.7493 9.72016 9.71643 9.72016ZM9.71643 1.66683C10.0693 1.66683 10.3579 1.96683 10.3579 2.3335C10.3579 2.70016 10.0693 3.00016 9.71643 3.00016C9.3636 3.00016 9.07492 2.70016 9.07492 2.3335C9.07492 1.96683 9.3636 1.66683 9.71643 1.66683ZM2.01829 7.66683C1.66545 7.66683 1.37677 7.36683 1.37677 7.00016C1.37677 6.6335 1.66545 6.3335 2.01829 6.3335C2.37112 6.3335 2.6598 6.6335 2.6598 7.00016C2.6598 7.36683 2.37112 7.66683 2.01829 7.66683ZM9.71643 12.3468C9.3636 12.3468 9.07492 12.0468 9.07492 11.6802C9.07492 11.3135 9.3636 11.0135 9.71643 11.0135C10.0693 11.0135 10.3579 11.3135 10.3579 11.6802C10.3579 12.0468 10.0693 12.3468 9.71643 12.3468Z" fill="#616161"/>
</svg>
