<svg width="16" height="10" viewBox="0 0 16 10" fill="none" xmlns="http://www.w3.org/2000/svg">
<path d="M8.0013 0C4.66797 0 1.8213 2.07333 0.667969 5C1.8213 7.92667 4.66797 10 8.0013 10C11.3346 10 14.1813 7.92667 15.3346 5C14.1813 2.07333 11.3346 0 8.0013 0ZM8.0013 8.66667C5.47464 8.66667 3.2213 7.24667 2.1213 5C3.2213 2.75333 5.47464 1.33333 8.0013 1.33333C10.528 1.33333 12.7813 2.75333 13.8813 5C12.7813 7.24667 10.528 8.66667 8.0013 8.66667ZM8.0013 2C6.34797 2 5.0013 3.34667 5.0013 5C5.0013 6.65333 6.34797 8 8.0013 8C9.65463 8 11.0013 6.65333 11.0013 5C11.0013 3.34667 9.65463 2 8.0013 2ZM8.0013 6.66667C7.0813 6.66667 6.33464 5.92 6.33464 5C6.33464 4.08 7.0813 3.33333 8.0013 3.33333C8.9213 3.33333 9.66797 4.08 9.66797 5C9.66797 5.92 8.9213 6.66667 8.0013 6.66667Z" fill="white"/>
</svg>
