<svg width="21" height="19" viewBox="0 0 21 19" fill="none" xmlns="http://www.w3.org/2000/svg">
<path d="M12.8496 6.82511L12.9673 7.10272L13.2677 7.12821L19.2769 7.63803L14.7126 11.5921L14.4845 11.7897L14.5531 12.0836L15.9239 17.9596L10.7584 14.8419L10.5 14.686L10.2416 14.8419L5.07613 17.9596L6.44693 12.0836L6.51549 11.7897L6.28739 11.5921L1.72308 7.63803L7.73227 7.12821L8.0327 7.10272L8.15036 6.82511L10.5 1.2813L12.8496 6.82511ZM13.577 12.3068L13.577 12.3067L13.3753 11.4401L14.0575 10.8478L14.0578 10.8476L15.9375 9.21778L16.8322 8.44211L15.6524 8.3418L13.1824 8.1318L13.1815 8.13173L12.2826 8.05682L11.9304 7.22504L11.9304 7.22498L10.9604 4.93498L10.502 3.85282L10.0402 4.93353L9.07022 7.20353L9.06957 7.20504L8.71738 8.03682L7.81848 8.11173L7.81764 8.1118L5.34764 8.3218L4.16782 8.42211L5.06246 9.19778L6.94222 10.8276L6.94246 10.8278L7.62568 11.4209L7.42298 12.3068L7.4226 12.3085L6.86298 14.7168L6.59505 15.8699L7.60843 15.258L9.72786 13.9784L9.72843 13.978L10.5 13.5136L11.2716 13.978L11.2721 13.9784L13.3916 15.258L14.405 15.8699L14.137 14.7168L13.577 12.3068Z" fill="white" stroke="white"/>
</svg>
