<svg width="21" height="20" viewBox="0 0 21 20" fill="none" xmlns="http://www.w3.org/2000/svg">
<path d="M7.00195 9.15625C9.21109 9.15625 11.002 7.36539 11.002 5.15625C11.002 2.94711 9.21109 1.15625 7.00195 1.15625C4.79281 1.15625 3.00195 2.94711 3.00195 5.15625C3.00195 7.36539 4.79281 9.15625 7.00195 9.15625Z" stroke="#616161" strokeWidth="1.5" stroke-linecap="round" stroke-linejoin="round"/>
<path d="M1 19.1562V17.1562C1 16.0954 1.42143 15.078 2.17157 14.3278C2.92172 13.5777 3.93913 13.1563 5 13.1562H9C10.0609 13.1563 11.0783 13.5777 11.8284 14.3278C12.5786 15.078 13 16.0954 13 17.1562V19.1562" stroke="#616161" strokeWidth="1.5" stroke-linecap="round" stroke-linejoin="round"/>
<path d="M14 9.15625L16 11.1562L20 7.15625" fill="#616161"/>
<path d="M14 9.15625L16 11.1562L20 7.15625" stroke="#616161" strokeWidth="1.5" stroke-linecap="round" stroke-linejoin="round"/>
</svg>
