<svg width="28" height="28" viewBox="0 0 28 28" fill="none" xmlns="http://www.w3.org/2000/svg">
<path d="M13.9993 0.666016C6.66602 0.666016 0.666016 6.66602 0.666016 13.9993C0.666016 21.3327 6.66602 27.3327 13.9993 27.3327C21.3327 27.3327 27.3327 21.3327 27.3327 13.9993C27.3327 6.66602 21.3327 0.666016 13.9993 0.666016ZM19.5993 11.7327L13.1993 18.1327C12.666 18.666 11.866 18.666 11.3327 18.1327L8.39935 15.1993C7.86602 14.666 7.86602 13.866 8.39935 13.3327C8.93268 12.7993 9.73268 12.7993 10.266 13.3327L12.266 15.3327L17.7327 9.86601C18.266 9.33268 19.066 9.33268 19.5993 9.86601C20.1327 10.3993 20.1327 11.1993 19.5993 11.7327Z" fill="#2196F3"/>
</svg>
