<svg width="22" height="15" viewBox="0 0 22 15" fill="none" xmlns="http://www.w3.org/2000/svg">
<path d="M20 1.15625V13.1562C20 13.7063 20.45 14.1562 21 14.1562C21.55 14.1562 22 13.7063 22 13.1562V1.15625C22 0.60625 21.55 0.15625 21 0.15625C20.45 0.15625 20 0.60625 20 1.15625ZM17 14.1562C17.55 14.1562 18 13.7063 18 13.1562V1.15625C18 0.60625 17.55 0.15625 17 0.15625C16.45 0.15625 16 0.60625 16 1.15625V13.1562C16 13.7063 16.45 14.1562 17 14.1562ZM13 0.15625H1C0.45 0.15625 0 0.60625 0 1.15625V13.1562C0 13.7063 0.45 14.1562 1 14.1562H13C13.55 14.1562 14 13.7063 14 13.1562V1.15625C14 0.60625 13.55 0.15625 13 0.15625ZM7 2.90625C8.24 2.90625 9.25 3.91625 9.25 5.15625C9.25 6.39625 8.24 7.40625 7 7.40625C5.76 7.40625 4.75 6.39625 4.75 5.15625C4.75 3.91625 5.76 2.90625 7 2.90625ZM11.5 12.1562H2.5V11.4062C2.5 9.90625 5.5 9.15625 7 9.15625C8.5 9.15625 11.5 9.90625 11.5 11.4062V12.1562Z" fill="#616161"/>
</svg>
