<svg width="32" height="30" viewBox="0 0 32 30" fill="none" xmlns="http://www.w3.org/2000/svg">
<path d="M16.1078 0.668579C7.69462 0.668579 0.838867 7.2165 0.838867 15.2519C0.838867 23.2873 7.69462 29.8352 16.1078 29.8352C18.2149 29.8352 19.9251 28.2019 19.9251 26.1894C19.9251 25.2998 19.5739 24.4248 18.9478 23.754C18.8257 23.6227 18.7493 23.4477 18.7493 23.2727C18.7493 22.8644 19.0853 22.5436 19.5128 22.5436H22.2154C27.2694 22.5436 31.3768 18.6207 31.3768 13.7936C31.3768 6.56025 24.521 0.668579 16.1078 0.668579ZM22.2154 19.6269H19.5128C17.4057 19.6269 15.6956 21.2602 15.6956 23.2727C15.6956 24.1623 16.0315 25.0082 16.6575 25.679C16.7491 25.7811 16.8713 25.9561 16.8713 26.1894C16.8713 26.5977 16.5353 26.9186 16.1078 26.9186C9.37421 26.9186 3.89266 21.6832 3.89266 15.2519C3.89266 8.82066 9.37421 3.58525 16.1078 3.58525C22.8414 3.58525 28.323 8.16441 28.323 13.7936C28.323 17.0165 25.5898 19.6269 22.2154 19.6269Z" fill="#2196F3"/>
</svg>
