<svg width="79" height="79" viewBox="0 0 79 79" fill="none" xmlns="http://www.w3.org/2000/svg">
<rect width="79" height="79" rx="39.5" fill="#E3F2FD"/>
<g clip-path="url(#clip0_113_29119)">
<path opacity="0.3" d="M39.5002 31.4791C33.9731 31.4791 29.0439 34.5854 26.6377 39.5C29.0439 44.4145 33.9585 47.5208 39.5002 47.5208C45.0419 47.5208 49.9564 44.4145 52.3627 39.5C49.9564 34.5854 45.0273 31.4791 39.5002 31.4791ZM39.5002 46.0625C35.8835 46.0625 32.9377 43.1166 32.9377 39.5C32.9377 35.8833 35.8835 32.9375 39.5002 32.9375C43.1169 32.9375 46.0627 35.8833 46.0627 39.5C46.0627 43.1166 43.1169 46.0625 39.5002 46.0625Z" fill="#2196F3"/>
<path d="M39.4997 28.5625C32.208 28.5625 25.9809 33.0979 23.458 39.5C25.9809 45.9021 32.208 50.4375 39.4997 50.4375C46.7913 50.4375 53.0184 45.9021 55.5413 39.5C53.0184 33.0979 46.7913 28.5625 39.4997 28.5625ZM39.4997 47.5208C33.9726 47.5208 29.0434 44.4146 26.6372 39.5C29.0434 34.5854 33.9726 31.4792 39.4997 31.4792C45.0268 31.4792 49.9559 34.5854 52.3622 39.5C49.9559 44.4146 45.0268 47.5208 39.4997 47.5208ZM39.4997 32.9375C35.883 32.9375 32.9372 35.8833 32.9372 39.5C32.9372 43.1167 35.883 46.0625 39.4997 46.0625C43.1163 46.0625 46.0622 43.1167 46.0622 39.5C46.0622 35.8833 43.1163 32.9375 39.4997 32.9375ZM39.4997 43.1458C37.4872 43.1458 35.8538 41.5125 35.8538 39.5C35.8538 37.4875 37.4872 35.8542 39.4997 35.8542C41.5122 35.8542 43.1455 37.4875 43.1455 39.5C43.1455 41.5125 41.5122 43.1458 39.4997 43.1458Z" fill="#2196F3"/>
</g>
<defs>
<clipPath id="clip0_113_29119">
<rect width="35" height="35" fill="white" transform="translate(22 22)"/>
</clipPath>
</defs>
</svg>
