<svg width="20" height="19" viewBox="0 0 20 19" fill="none" xmlns="http://www.w3.org/2000/svg">
<path d="M14.4264 0.501953C12.5209 0.501953 10.8927 1.90098 9.99818 2.8655C9.10364 1.90098 7.47909 0.501953 5.57455 0.501953C2.29182 0.501953 0 2.85894 0 6.23289C0 9.9505 2.84636 12.3534 5.6 14.6776C6.9 15.776 8.24545 16.911 9.27727 18.1695C9.45091 18.3802 9.70545 18.502 9.97273 18.502H10.0255C10.2936 18.502 10.5473 18.3793 10.72 18.1695C11.7536 16.911 13.0982 15.7751 14.3991 14.6776C17.1518 12.3543 20 9.95144 20 6.23289C20 2.85894 17.7082 0.501953 14.4264 0.501953Z" fill="white"/>
</svg>
