<svg width="54" height="54" viewBox="0 0 54 54" fill="none" xmlns="http://www.w3.org/2000/svg">
<path d="M33.9073 16.334L27.0007 23.2407L20.094 16.334L16.334 20.094L23.2407 27.0007L16.334 33.9073L20.094 37.6673L27.0007 30.7607L33.9073 37.6673L37.6673 33.9073L30.7607 27.0007L37.6673 20.094L33.9073 16.334ZM27.0007 0.333984C12.254 0.333984 0.333984 12.254 0.333984 27.0007C0.333984 41.7473 12.254 53.6673 27.0007 53.6673C41.7473 53.6673 53.6673 41.7473 53.6673 27.0007C53.6673 12.254 41.7473 0.333984 27.0007 0.333984ZM27.0007 48.334C15.2407 48.334 5.66732 38.7607 5.66732 27.0007C5.66732 15.2407 15.2407 5.66732 27.0007 5.66732C38.7607 5.66732 48.334 15.2407 48.334 27.0007C48.334 38.7607 38.7607 48.334 27.0007 48.334Z" fill="#616161"/>
</svg>
