<?xml version="1.0" encoding="UTF-8"?>
<svg xmlns="http://www.w3.org/2000/svg" width="500" height="500" viewBox="0 0 500 500">
  <defs>
    <style>
      .cls-1 {
        fill: #e8e8e8;
      }

      .cls-2 {
        fill: #686868;
      }
    </style>
  </defs>
  <g id="BACKGROUND"/>
  <g id="OBJECTS">
    <g>
      <g>
        <g>
          <path class="cls-2" d="M345.04,152.75l-5.94-28.96c-3.04-14.81-16.07-25.01-30.62-25.01-2.08,0-4.2,.21-6.32,.64l-162.57,33.33c-16.93,3.47-27.84,20.01-24.37,36.94l22.91,111.74c1.24,6.06,4.18,11.33,8.19,15.46v1.13c0,17.28,14.01,31.29,31.29,31.29h165.95c17.28,0,31.29-14.01,31.29-31.29v-114.06c0-16.79-13.23-30.44-29.82-31.22Zm-1.47,9.31c1.17,0,2.32,.12,3.44,.3,10.45,1.66,18.46,10.7,18.46,21.61v87.52c-11.36-22.49-37.01-69.49-53.01-69.63-16.6-.14-53.27,43.58-74.64,71.03-12.92-25.57-29.31-53.89-38.55-53.89-12.97,0-34.38,33.23-43.55,48.54v-83.56c0-12.08,9.83-21.9,21.9-21.9h165.95Zm-197.24,112.58l-21.91-106.83c-2.43-11.83,5.23-23.43,17.06-25.86l162.57-33.33c1.47-.3,2.96-.45,4.43-.45,10.33,0,19.34,7.36,21.42,17.51l5.54,27H177.63c-17.28,0-31.29,14.01-31.29,31.29v90.67Z"/>
          <circle class="cls-2" cx="233.34" cy="190.09" r="20.31" transform="translate(-4.28 5.38) rotate(-1.31)"/>
        </g>
        <path class="cls-1" d="M177.63,320.14h165.95c1.17,0,2.32-.12,3.44-.3,10.45-1.66,18.46-10.7,18.46-21.61l-.04-20.03c-.81-1.67-1.72-3.44-2.76-5.31-22.88-41.32-40.37-67.82-50.3-67.91-5.33,0-23.02,6.8-72.09,69.82l-3.03,3.9-2.23-4.41c-25.08-49.66-34.19-52.18-35.76-52.18-7.83,0-23.49,18.02-40.86,47.02l-2.65,4.43-.03,24.67c0,12.08,9.83,21.9,21.9,21.9Z"/>
        <circle class="cls-1" cx="233.34" cy="190.09" r="17.18" transform="translate(-4.71 5.93) rotate(-1.44)"/>
        <g>
          <g>
            <path class="cls-2" d="M339.6,246.09c-.2,0-.41-.08-.56-.22-.14-.17-.22-.36-.22-.56s.08-.41,.22-.56c.3-.3,.83-.28,1.11,.02,.14,.14,.24,.34,.24,.55s-.08,.39-.24,.55c-.14,.14-.34,.23-.55,.23Z"/>
            <path class="cls-2" d="M338.82,306.44c0-.42,.34-.78,.78-.78h0c.42,0,.78,.36,.78,.78h0c0,.44-.36,.8-.78,.8h0c-.44,0-.78-.36-.78-.8Zm0-7.63c0-.44,.34-.78,.78-.78h0c.42,0,.78,.34,.78,.78h0c0,.44-.36,.78-.78,.78h0c-.44,0-.78-.34-.78-.78Zm0-7.63c0-.44,.34-.8,.78-.8h0c.42,0,.78,.36,.78,.8h0c0,.42-.36,.78-.78,.78h0c-.44,0-.78-.36-.78-.78Zm0-7.65c0-.44,.34-.78,.78-.78h0c.42,0,.78,.35,.78,.78h0c0,.44-.36,.78-.78,.78h0c-.44,0-.78-.34-.78-.78Zm0-7.63c0-.44,.34-.78,.78-.78h0c.42,0,.78,.35,.78,.78h0c0,.42-.36,.78-.78,.78h0c-.44,0-.78-.36-.78-.78Zm0-7.65c0-.44,.34-.78,.78-.78h0c.42,0,.78,.34,.78,.78h0c0,.44-.36,.78-.78,.78h0c-.44,0-.78-.34-.78-.78Zm0-7.63c0-.44,.34-.78,.78-.78h0c.42,0,.78,.34,.78,.78h0c0,.42-.36,.78-.78,.78h0c-.44,0-.78-.36-.78-.78Zm0-7.65c0-.42,.34-.78,.78-.78h0c.42,0,.78,.36,.78,.78h0c0,.44-.36,.78-.78,.78h0c-.44,0-.78-.34-.78-.78Z"/>
            <path class="cls-2" d="M339.6,314.87c-.2,0-.41-.08-.55-.22-.16-.16-.23-.36-.23-.56s.08-.41,.22-.56c.31-.28,.83-.28,1.11,.02,.14,.14,.24,.34,.24,.55s-.09,.39-.24,.55c-.16,.16-.34,.23-.55,.23Z"/>
          </g>
          <g>
            <path class="cls-2" d="M348.3,256.95c-.2,0-.41-.08-.55-.22-.16-.16-.24-.36-.24-.56,0-.22,.08-.42,.24-.56,.28-.28,.81-.28,1.1,.02,.16,.14,.23,.35,.23,.55s-.08,.41-.22,.55c-.16,.16-.36,.24-.56,.24Z"/>
            <path class="cls-2" d="M347.51,305.81c0-.44,.35-.78,.78-.78h0c.42,0,.78,.35,.78,.78h0c0,.44-.36,.78-.78,.78h0c-.44,0-.78-.34-.78-.78Zm0-8.28c0-.42,.35-.78,.78-.78h0c.42,0,.78,.36,.78,.78h0c0,.44-.36,.78-.78,.78h0c-.44,0-.78-.34-.78-.78Zm0-8.28c0-.42,.35-.78,.78-.78h0c.42,0,.78,.36,.78,.78h0c0,.44-.36,.78-.78,.78h0c-.44,0-.78-.34-.78-.78Zm0-8.26c0-.44,.35-.78,.78-.78h0c.42,0,.78,.34,.78,.78h0c0,.42-.36,.78-.78,.78h0c-.44,0-.78-.36-.78-.78Zm0-8.28c0-.44,.35-.78,.78-.78h0c.42,0,.78,.34,.78,.78h0c0,.42-.36,.78-.78,.78h0c-.44,0-.78-.36-.78-.78Zm0-8.28c0-.44,.35-.78,.78-.78h0c.42,0,.78,.34,.78,.78h0c0,.42-.36,.78-.78,.78h0c-.44,0-.78-.36-.78-.78Z"/>
            <path class="cls-2" d="M348.3,314.87c-.2,0-.41-.08-.55-.22-.16-.16-.24-.36-.24-.56s.08-.41,.22-.55c.31-.31,.83-.3,1.11-.02,.16,.16,.23,.36,.23,.56s-.08,.41-.22,.55c-.16,.16-.36,.23-.56,.23Z"/>
          </g>
          <g>
            <path class="cls-2" d="M357,278.15c-.2,0-.41-.08-.55-.22-.14-.14-.23-.35-.23-.56,0-.2,.09-.41,.23-.55,.28-.3,.83-.28,1.11,0,.14,.16,.22,.36,.22,.55,0,.2-.08,.42-.22,.56-.16,.14-.34,.22-.56,.22Z"/>
            <path class="cls-2" d="M356.21,302.38c0-.42,.36-.78,.78-.78h0c.44,0,.78,.36,.78,.78h0c0,.44-.35,.78-.78,.78h0c-.42,0-.78-.34-.78-.78Zm0-8.34c0-.42,.36-.78,.78-.78h0c.44,0,.78,.36,.78,.78h0c0,.44-.35,.78-.78,.78h0c-.42,0-.78-.34-.78-.78Zm0-8.34c0-.42,.36-.78,.78-.78h0c.44,0,.78,.36,.78,.78h0c0,.44-.35,.78-.78,.78h0c-.42,0-.78-.34-.78-.78Z"/>
            <path class="cls-2" d="M357,311.5c-.2,0-.41-.08-.55-.22-.14-.16-.23-.36-.23-.56s.09-.41,.23-.55c.3-.3,.81-.3,1.11,0,.14,.16,.22,.35,.22,.55s-.08,.41-.22,.55c-.16,.16-.36,.24-.56,.24Z"/>
          </g>
          <g>
            <path class="cls-2" d="M330.88,270.92c-.2,0-.39-.09-.55-.23-.16-.16-.24-.35-.24-.55s.08-.41,.22-.55c.34-.33,.83-.3,1.11-.02,.16,.16,.23,.36,.23,.56s-.08,.39-.23,.55c-.14,.14-.35,.23-.55,.23Z"/>
            <path class="cls-2" d="M330.1,306.76c0-.44,.36-.78,.78-.78h0c.44,0,.78,.34,.78,.78h0c0,.42-.34,.78-.78,.78h0c-.42,0-.78-.36-.78-.78Zm0-7.34c0-.42,.36-.77,.78-.77h0c.44,0,.78,.34,.78,.77h0c0,.44-.34,.8-.78,.8h0c-.42,0-.78-.36-.78-.8Zm0-7.32c0-.44,.36-.78,.78-.78h0c.44,0,.78,.34,.78,.78h0c0,.44-.34,.78-.78,.78h0c-.42,0-.78-.34-.78-.78Zm0-7.32c0-.44,.36-.78,.78-.78h0c.44,0,.78,.34,.78,.78h0c0,.42-.34,.78-.78,.78h0c-.42,0-.78-.36-.78-.78Zm0-7.32c0-.44,.36-.78,.78-.78h0c.44,0,.78,.35,.78,.78h0c0,.42-.34,.78-.78,.78h0c-.42,0-.78-.36-.78-.78Z"/>
            <path class="cls-2" d="M330.88,314.87c-.2,0-.39-.08-.55-.22-.16-.17-.24-.36-.24-.56s.08-.41,.22-.55c.33-.31,.83-.3,1.11,0,.16,.14,.23,.34,.23,.55s-.08,.39-.22,.55c-.16,.16-.36,.23-.56,.23Z"/>
          </g>
          <path class="cls-2" d="M240.5,195.79c0-.44,.36-.78,.78-.78h0c.44,0,.78,.34,.78,.78h0c0,.44-.35,.78-.78,.78h0c-.42,0-.78-.34-.78-.78Zm0-7.82c0-.44,.36-.78,.78-.78h0c.44,0,.78,.34,.78,.78h0c0,.44-.35,.78-.78,.78h0c-.42,0-.78-.34-.78-.78Zm0-7.82c0-.44,.36-.78,.78-.78h0c.44,0,.78,.34,.78,.78h0c0,.44-.35,.78-.78,.78h0c-.42,0-.78-.34-.78-.78Z"/>
          <path class="cls-2" d="M246.07,190.82c0-.44,.34-.78,.78-.78h0c.42,0,.78,.34,.78,.78h0c0,.42-.36,.78-.78,.78h0c-.44,0-.78-.36-.78-.78Zm0-7.82c0-.44,.34-.78,.78-.78h0c.42,0,.78,.34,.78,.78h0c0,.42-.36,.78-.78,.78h0c-.44,0-.78-.36-.78-.78Z"/>
          <path class="cls-2" d="M234.95,200.97c0-.44,.35-.8,.78-.8h0c.44,0,.78,.36,.78,.8h0c0,.42-.34,.78-.78,.78h0c-.44,0-.78-.36-.78-.78Zm0-7.84c0-.42,.35-.77,.78-.77h0c.44,0,.78,.34,.78,.77h0c0,.44-.34,.78-.78,.78h0c-.44,0-.78-.34-.78-.78Zm0-7.82c0-.42,.35-.78,.78-.78h0c.44,0,.78,.36,.78,.78h0c0,.44-.34,.8-.78,.8h0c-.44,0-.78-.36-.78-.8Z"/>
        </g>
      </g>
      <path class="cls-2" d="M251.87,28.25c-105.34,0-190.73,85.39-190.73,190.73s85.39,190.73,190.73,190.73,190.73-85.39,190.73-190.73S357.21,28.25,251.87,28.25Zm-118.58,72.15c31.67-31.67,73.79-49.12,118.58-49.12s86.91,17.44,118.58,49.12c.46,.46,.92,.94,1.37,1.41L106.13,302.08c-14.32-25.03-21.96-53.48-21.96-83.09,0-44.79,17.44-86.91,49.12-118.58Zm237.16,237.16c-31.67,31.68-73.79,49.12-118.58,49.12s-86.91-17.44-118.58-49.12c-5.17-5.16-9.95-10.61-14.34-16.3L386.81,119.36c21.26,28.68,32.76,63.27,32.76,99.63,0,44.79-17.44,86.91-49.12,118.58Z"/>
    </g>
    <g>
      <path class="cls-2" d="M100.11,457.85h-2.34l-8.9-13.62v13.62h-2.34v-17.67h2.34l8.92,13.67v-13.67h2.31v17.67Z"/>
      <path class="cls-2" d="M104.02,447.75c.49-1.02,1.18-1.82,2.09-2.4,.9-.58,1.95-.87,3.14-.87s2.22,.28,3.13,.84c.91,.56,1.62,1.35,2.11,2.37,.5,1.02,.75,2.21,.75,3.57v.17c0,1.33-.26,2.49-.77,3.49-.51,1-1.22,1.78-2.12,2.34-.9,.56-1.93,.83-3.07,.83s-2.22-.28-3.12-.84c-.9-.56-1.61-1.36-2.11-2.38s-.76-2.21-.76-3.55v-.15c0-1.26,.24-2.4,.73-3.42Zm1.99,6.22c.31,.73,.74,1.29,1.3,1.69,.56,.4,1.22,.6,1.96,.6s1.4-.2,1.95-.58c.55-.39,.99-.95,1.3-1.68,.31-.73,.47-1.61,.47-2.63v-.2c0-.96-.15-1.81-.46-2.54-.31-.73-.75-1.3-1.32-1.7-.57-.41-1.23-.61-1.98-.61s-1.37,.19-1.91,.57c-.55,.38-.98,.94-1.29,1.69-.31,.75-.48,1.63-.5,2.66v.2c0,.96,.15,1.81,.46,2.53Z"/>
      <path class="cls-2" d="M137.23,454.92c-.41,1.01-1.01,1.79-1.78,2.35-.77,.56-1.67,.83-2.7,.83-.79,0-1.5-.12-2.12-.37-.62-.25-1.16-.63-1.63-1.14v6.31h-2.26v-18.16h2.06l.1,1.44c.46-.56,1.01-.99,1.65-1.27,.64-.28,1.36-.42,2.17-.42,1.59,0,2.84,.59,3.75,1.78,.91,1.18,1.37,2.84,1.37,4.96v.22c0,1.31-.21,2.47-.62,3.48Zm-2.57-7.24c-.64-.85-1.5-1.28-2.6-1.28-.68,0-1.28,.15-1.79,.45-.51,.3-.94,.75-1.27,1.34v6.29c.33,.6,.75,1.04,1.27,1.34,.51,.3,1.12,.45,1.81,.45,1.08,0,1.93-.42,2.55-1.25,.62-.84,.94-2.06,.96-3.67v-.17c.02-1.47-.29-2.64-.93-3.49Z"/>
      <path class="cls-2" d="M144.66,444.94c.65-.31,1.37-.46,2.16-.46,1.37,0,2.41,.39,3.12,1.18,.7,.79,1.06,1.96,1.08,3.52v8.67h-2.24v-8.7c-.02-.94-.24-1.64-.66-2.09s-1.08-.67-1.98-.67c-.73,0-1.37,.19-1.93,.56-.56,.37-.98,.89-1.28,1.55v9.34h-2.26v-18.64h2.26v7.11c.5-.61,1.07-1.07,1.71-1.38Z"/>
      <path class="cls-2" d="M154.51,447.75c.49-1.02,1.18-1.82,2.09-2.4,.9-.58,1.95-.87,3.14-.87s2.22,.28,3.13,.84c.91,.56,1.62,1.35,2.11,2.37,.5,1.02,.75,2.21,.75,3.57v.17c0,1.33-.26,2.49-.77,3.49-.51,1-1.22,1.78-2.12,2.34-.9,.56-1.93,.83-3.07,.83s-2.22-.28-3.12-.84c-.9-.56-1.61-1.36-2.11-2.38s-.76-2.21-.76-3.55v-.15c0-1.26,.24-2.4,.73-3.42Zm1.99,6.22c.31,.73,.74,1.29,1.3,1.69,.56,.4,1.22,.6,1.96,.6s1.4-.2,1.95-.58c.55-.39,.99-.95,1.3-1.68,.31-.73,.47-1.61,.47-2.63v-.2c0-.96-.15-1.81-.46-2.54-.31-.73-.75-1.3-1.32-1.7-.57-.41-1.23-.61-1.98-.61s-1.37,.19-1.91,.57c-.55,.38-.98,.94-1.29,1.69-.31,.75-.48,1.63-.5,2.66v.2c0,.96,.15,1.81,.46,2.53Z"/>
      <path class="cls-2" d="M171.59,441.55v3.18h2.46v1.74h-2.46v8.12c0,.55,.11,.95,.34,1.21s.59,.38,1.11,.38c.26,0,.62-.05,1.07-.15v1.81c-.56,.17-1.13,.25-1.71,.25-.99,0-1.75-.3-2.26-.89-.51-.6-.77-1.47-.77-2.61v-8.12h-2.41v-1.74h2.41v-3.18h2.24Z"/>
      <path class="cls-2" d="M176.5,447.75c.49-1.02,1.18-1.82,2.09-2.4,.9-.58,1.95-.87,3.14-.87s2.22,.28,3.13,.84c.91,.56,1.62,1.35,2.11,2.37,.5,1.02,.75,2.21,.75,3.57v.17c0,1.33-.26,2.49-.77,3.49-.51,1-1.22,1.78-2.12,2.34-.9,.56-1.93,.83-3.07,.83s-2.22-.28-3.12-.84c-.9-.56-1.61-1.36-2.11-2.38s-.76-2.21-.76-3.55v-.15c0-1.26,.24-2.4,.73-3.42Zm1.99,6.22c.31,.73,.74,1.29,1.3,1.69,.56,.4,1.22,.6,1.96,.6s1.4-.2,1.95-.58c.55-.39,.99-.95,1.3-1.68,.31-.73,.47-1.61,.47-2.63v-.2c0-.96-.15-1.81-.46-2.54-.31-.73-.75-1.3-1.32-1.7-.57-.41-1.23-.61-1.98-.61s-1.37,.19-1.91,.57c-.55,.38-.98,.94-1.29,1.69-.31,.75-.48,1.63-.5,2.66v.2c0,.96,.15,1.81,.46,2.53Z"/>
      <path class="cls-2" d="M203.2,444.94c.65-.31,1.37-.46,2.16-.46,1.37,0,2.41,.39,3.12,1.18,.7,.79,1.06,1.96,1.08,3.52v8.67h-2.24v-8.7c-.02-.94-.24-1.64-.66-2.09s-1.08-.67-1.98-.67c-.73,0-1.37,.19-1.93,.56-.56,.37-.98,.89-1.28,1.55v9.34h-2.26v-18.64h2.26v7.11c.5-.61,1.07-1.07,1.71-1.38Z"/>
      <path class="cls-2" d="M220.71,456.46c-.53,.55-1.11,.96-1.73,1.23-.62,.27-1.3,.41-2.02,.41-.84,0-1.6-.17-2.27-.51-.67-.34-1.2-.8-1.58-1.39s-.57-1.25-.57-1.98c0-1.38,.52-2.44,1.55-3.19s2.5-1.13,4.39-1.13h2.19v-1.04c0-.79-.24-1.42-.71-1.88-.47-.46-1.16-.68-2.05-.68-.53,0-1.01,.09-1.44,.27-.43,.18-.77,.43-1.02,.75s-.37,.66-.37,1.04h-2.26c0-.65,.23-1.27,.68-1.86,.46-.6,1.08-1.08,1.88-1.45,.8-.37,1.68-.56,2.66-.56,1.51,0,2.69,.38,3.55,1.13s1.31,1.79,1.34,3.12v6.04c0,1.19,.15,2.15,.45,2.88v.2h-2.34c-.15-.33-.26-.79-.32-1.39Zm-1.42-.87c.63-.36,1.08-.84,1.37-1.42v-2.68h-1.74c-1.38,0-2.41,.2-3.09,.6-.69,.4-1.03,1-1.03,1.81,0,.7,.23,1.24,.68,1.64s1.06,.6,1.83,.6c.7,0,1.36-.18,1.99-.55Z"/>
      <path class="cls-2" d="M233.41,452.95c-.45-.33-1.24-.62-2.39-.87-1.62-.35-2.81-.82-3.57-1.42-.75-.6-1.13-1.38-1.13-2.34,0-.71,.21-1.36,.62-1.95s.99-1.05,1.74-1.39c.75-.34,1.58-.51,2.51-.51,.98,0,1.84,.17,2.6,.52,.75,.35,1.34,.83,1.76,1.45,.42,.62,.63,1.33,.63,2.12h-2.24c0-.61-.27-1.14-.8-1.59s-1.18-.67-1.96-.67c-.83,0-1.47,.17-1.93,.52-.46,.35-.68,.82-.68,1.42s.25,1.03,.76,1.29c.5,.26,1.2,.5,2.07,.7,.05,0,.1,0,.15,.03,1.64,.36,2.84,.85,3.6,1.45,.76,.61,1.14,1.44,1.14,2.5,0,.76-.21,1.44-.63,2.03-.42,.59-1.02,1.04-1.79,1.37-.77,.32-1.64,.48-2.62,.48-1.08,0-2.03-.2-2.85-.6-.82-.4-1.45-.92-1.89-1.58-.44-.65-.66-1.36-.66-2.12h2.26c.03,.76,.33,1.36,.89,1.8,.56,.44,1.31,.66,2.24,.66,.56,0,1.06-.08,1.48-.22,.42-.15,.75-.37,.98-.66,.23-.29,.35-.62,.35-1.01,0-.61-.22-1.08-.67-1.42Z"/>
      <path class="cls-2" d="M258.45,454.93c-.42,1-1.02,1.78-1.79,2.34-.77,.56-1.66,.83-2.67,.83-.83,0-1.57-.15-2.21-.45-.65-.3-1.19-.74-1.64-1.32l-.12,1.52h-2.06v-18.64h2.26v6.96c.45-.56,.98-.99,1.6-1.27s1.34-.42,2.15-.42c1.59,0,2.84,.6,3.75,1.8,.91,1.2,1.37,2.85,1.37,4.96v.2c0,1.33-.21,2.49-.63,3.49Zm-2.51-7.29c-.59-.83-1.44-1.24-2.55-1.24-.73,0-1.36,.17-1.89,.52-.53,.35-.96,.86-1.29,1.54v5.67c.33,.68,.77,1.19,1.3,1.54s1.17,.52,1.9,.52c1.09,0,1.93-.42,2.52-1.25,.59-.84,.88-2.09,.88-3.76,0-1.52-.29-2.7-.88-3.53Z"/>
      <path class="cls-2" d="M264.2,457.3c-.91-.53-1.62-1.28-2.12-2.26-.51-.98-.76-2.11-.76-3.4v-.4c0-1.21,.23-2.33,.7-3.35,.46-1.03,1.13-1.85,2-2.47,.87-.62,1.88-.93,3.04-.93s2.1,.25,2.91,.76c.81,.51,1.43,1.25,1.86,2.22,.43,.98,.65,2.15,.65,3.53v.94h-8.9v.08c.02,.83,.2,1.57,.53,2.21,.34,.65,.8,1.15,1.38,1.5,.58,.36,1.23,.53,1.96,.53s1.42-.15,1.99-.46,1.06-.74,1.49-1.3l1.37,1.07c-.56,.84-1.25,1.48-2.07,1.9-.82,.42-1.78,.63-2.87,.63-1.19,0-2.25-.26-3.16-.79Zm1.24-10.54c-.48,.3-.88,.73-1.19,1.29-.31,.56-.51,1.23-.6,2.01h6.56v-.15c-.03-.76-.18-1.41-.45-1.95-.27-.54-.63-.95-1.08-1.23-.46-.28-1-.42-1.63-.42-.6,0-1.13,.15-1.61,.45Z"/>
      <path class="cls-2" d="M277.37,457.3c-.91-.53-1.62-1.28-2.12-2.26-.51-.98-.76-2.11-.76-3.4v-.4c0-1.21,.23-2.33,.7-3.35,.46-1.03,1.13-1.85,2-2.47,.87-.62,1.88-.93,3.04-.93s2.1,.25,2.91,.76c.81,.51,1.43,1.25,1.86,2.22,.43,.98,.65,2.15,.65,3.53v.94h-8.9v.08c.02,.83,.2,1.57,.53,2.21,.34,.65,.8,1.15,1.38,1.5,.58,.36,1.23,.53,1.96,.53s1.42-.15,1.99-.46,1.06-.74,1.49-1.3l1.37,1.07c-.56,.84-1.25,1.48-2.07,1.9-.82,.42-1.78,.63-2.87,.63-1.19,0-2.25-.26-3.16-.79Zm1.24-10.54c-.48,.3-.88,.73-1.19,1.29-.31,.56-.51,1.23-.6,2.01h6.56v-.15c-.03-.76-.18-1.41-.45-1.95-.27-.54-.63-.95-1.08-1.23-.46-.28-1-.42-1.63-.42-.6,0-1.13,.15-1.61,.45Z"/>
      <path class="cls-2" d="M290.36,444.73l.08,1.64c.5-.63,1.07-1.1,1.73-1.42s1.39-.47,2.2-.47c1.38,0,2.41,.39,3.12,1.18s1.06,1.96,1.08,3.52v8.67h-2.24v-8.7c-.02-.94-.24-1.64-.66-2.09-.42-.45-1.08-.67-1.98-.67-.73,0-1.37,.19-1.93,.56-.56,.37-.98,.89-1.28,1.55v9.34h-2.26v-13.12h2.14Z"/>
      <path class="cls-2" d="M318.44,456.46c-.53,.55-1.11,.96-1.73,1.23-.62,.27-1.3,.41-2.03,.41-.84,0-1.6-.17-2.27-.51-.67-.34-1.2-.8-1.58-1.39-.38-.59-.57-1.25-.57-1.98,0-1.38,.52-2.44,1.55-3.19,1.04-.75,2.5-1.13,4.39-1.13h2.19v-1.04c0-.79-.24-1.42-.71-1.88-.47-.46-1.16-.68-2.05-.68-.53,0-1.01,.09-1.44,.27-.43,.18-.77,.43-1.02,.75-.25,.31-.37,.66-.37,1.04h-2.26c0-.65,.23-1.27,.68-1.86,.46-.6,1.08-1.08,1.88-1.45,.79-.37,1.68-.56,2.66-.56,1.51,0,2.69,.38,3.55,1.13s1.31,1.79,1.34,3.12v6.04c0,1.19,.15,2.15,.45,2.88v.2h-2.34c-.15-.33-.26-.79-.32-1.39Zm-1.42-.87c.63-.36,1.08-.84,1.37-1.42v-2.68h-1.74c-1.38,0-2.41,.2-3.09,.6-.69,.4-1.03,1-1.03,1.81,0,.7,.23,1.24,.68,1.64,.46,.4,1.06,.6,1.83,.6,.7,0,1.36-.18,1.99-.55Z"/>
      <path class="cls-2" d="M324.27,447.66c.44-1.01,1.05-1.79,1.84-2.35,.79-.55,1.68-.83,2.7-.83,.78,0,1.47,.13,2.08,.39,.6,.26,1.13,.65,1.58,1.18v-6.83h2.24v18.64h-2.06l-.1-1.42c-.45,.56-.98,.98-1.6,1.25-.62,.27-1.34,.41-2.15,.41-1.01,0-1.91-.29-2.68-.86-.78-.57-1.39-1.38-1.83-2.44-.44-1.05-.66-2.26-.66-3.64s.22-2.49,.66-3.5Zm1.6,3.78c0,1.49,.31,2.65,.92,3.49,.61,.84,1.46,1.25,2.53,1.25,.71,0,1.33-.16,1.85-.48s.95-.8,1.28-1.43v-6.04c-.68-1.23-1.71-1.84-3.11-1.84-1.08,0-1.93,.41-2.55,1.23s-.93,1.97-.93,3.44v.37Z"/>
      <path class="cls-2" d="M338.28,447.66c.44-1.01,1.05-1.79,1.84-2.35,.79-.55,1.68-.83,2.7-.83,.78,0,1.47,.13,2.08,.39,.6,.26,1.13,.65,1.58,1.18v-6.83h2.24v18.64h-2.06l-.1-1.42c-.45,.56-.98,.98-1.6,1.25-.62,.27-1.34,.41-2.15,.41-1.01,0-1.91-.29-2.68-.86-.78-.57-1.39-1.38-1.83-2.44-.44-1.05-.66-2.26-.66-3.64s.22-2.49,.66-3.5Zm1.6,3.78c0,1.49,.31,2.65,.92,3.49,.61,.84,1.46,1.25,2.53,1.25,.71,0,1.33-.16,1.85-.48s.95-.8,1.28-1.43v-6.04c-.68-1.23-1.71-1.84-3.11-1.84-1.08,0-1.93,.41-2.55,1.23s-.93,1.97-.93,3.44v.37Z"/>
      <path class="cls-2" d="M354.49,457.3c-.91-.53-1.62-1.28-2.12-2.26-.51-.98-.76-2.11-.76-3.4v-.4c0-1.21,.23-2.33,.7-3.35,.46-1.03,1.13-1.85,2-2.47,.87-.62,1.88-.93,3.04-.93s2.1,.25,2.91,.76c.81,.51,1.43,1.25,1.86,2.22,.43,.98,.65,2.15,.65,3.53v.94h-8.9v.08c.02,.83,.2,1.57,.53,2.21,.34,.65,.8,1.15,1.38,1.5,.58,.36,1.23,.53,1.96,.53s1.42-.15,1.99-.46,1.06-.74,1.49-1.3l1.37,1.07c-.56,.84-1.25,1.48-2.07,1.9-.82,.42-1.78,.63-2.87,.63-1.19,0-2.25-.26-3.16-.79Zm1.24-10.54c-.48,.3-.88,.73-1.19,1.29-.31,.56-.51,1.23-.6,2.01h6.56v-.15c-.03-.76-.18-1.41-.45-1.95-.27-.54-.63-.95-1.08-1.23-.46-.28-1-.42-1.63-.42-.6,0-1.13,.15-1.61,.45Z"/>
      <path class="cls-2" d="M365.46,447.66c.44-1.01,1.05-1.79,1.84-2.35,.79-.55,1.68-.83,2.7-.83,.78,0,1.47,.13,2.08,.39,.6,.26,1.13,.65,1.58,1.18v-6.83h2.24v18.64h-2.06l-.1-1.42c-.45,.56-.98,.98-1.6,1.25-.62,.27-1.34,.41-2.15,.41-1.01,0-1.91-.29-2.68-.86-.78-.57-1.39-1.38-1.83-2.44-.44-1.05-.66-2.26-.66-3.64s.22-2.49,.66-3.5Zm1.6,3.78c0,1.49,.31,2.65,.92,3.49,.61,.84,1.46,1.25,2.53,1.25,.71,0,1.33-.16,1.85-.48s.95-.8,1.28-1.43v-6.04c-.68-1.23-1.71-1.84-3.11-1.84-1.08,0-1.93,.41-2.55,1.23s-.93,1.97-.93,3.44v.37Z"/>
      <path class="cls-2" d="M392.36,454.57l.2-.62,2.86-9.22h2.41l-5.27,15.16-.22,.55c-.38,.91-.88,1.59-1.5,2.04s-1.35,.67-2.17,.67c-.41-.05-.84-.11-1.27-.17v-1.84c.2,.02,.4,.03,.6,.05,.75,.07,1.34-.07,1.78-.41,.44-.34,.79-.92,1.06-1.73l.5-1.34-4.67-12.97h2.43l3.28,9.84Z"/>
      <path class="cls-2" d="M401.97,457.3c-.91-.53-1.62-1.28-2.12-2.26-.51-.98-.76-2.11-.76-3.4v-.4c0-1.21,.23-2.33,.7-3.35,.46-1.03,1.13-1.85,2-2.47,.87-.62,1.88-.93,3.04-.93s2.1,.25,2.91,.76c.81,.51,1.43,1.25,1.86,2.22,.43,.98,.65,2.15,.65,3.53v.94h-8.9v.08c.02,.83,.2,1.57,.53,2.21,.34,.65,.8,1.15,1.38,1.5,.58,.36,1.23,.53,1.96,.53s1.42-.15,1.99-.46,1.06-.74,1.49-1.3l1.37,1.07c-.56,.84-1.25,1.48-2.07,1.9-.82,.42-1.78,.63-2.87,.63-1.19,0-2.25-.26-3.16-.79Zm1.24-10.54c-.48,.3-.88,.73-1.19,1.29-.31,.56-.51,1.23-.6,2.01h6.56v-.15c-.03-.76-.18-1.41-.45-1.95-.27-.54-.63-.95-1.08-1.23-.46-.28-1-.42-1.63-.42-.6,0-1.13,.15-1.61,.45Z"/>
      <path class="cls-2" d="M415.89,441.55v3.18h2.46v1.74h-2.46v8.12c0,.55,.11,.95,.33,1.21s.59,.38,1.11,.38c.27,0,.62-.05,1.07-.15v1.81c-.56,.17-1.14,.25-1.71,.25-.99,0-1.75-.3-2.26-.89-.51-.6-.77-1.47-.77-2.61v-8.12h-2.41v-1.74h2.41v-3.18h2.24Z"/>
    </g>
  </g>
</svg>