<svg width="15" height="27" viewBox="0 0 15 27" fill="none" xmlns="http://www.w3.org/2000/svg">
<path d="M9.17053 0.420654V4.4812H7.05139V0.420654H9.17053ZM8.91077 22.7468V26.4109H6.8053V22.7468H8.91077ZM10.6881 18.2898C10.6881 17.7703 10.5878 17.3191 10.3873 16.9363C10.1959 16.5535 9.87236 16.2117 9.41663 15.9109C8.97001 15.6101 8.36845 15.323 7.61194 15.0496C6.43616 14.6212 5.40621 14.1518 4.52209 13.6414C3.63798 13.1218 2.94983 12.4792 2.45764 11.7136C1.97457 10.948 1.73303 9.98185 1.73303 8.81519C1.73303 7.69409 1.9928 6.72339 2.51233 5.90308C3.04097 5.07365 3.7747 4.43563 4.7135 3.98901C5.6523 3.53328 6.7415 3.30542 7.98108 3.30542C8.94722 3.30542 9.81311 3.45125 10.5787 3.74292C11.3535 4.02547 12.0143 4.44019 12.5612 4.98706C13.1171 5.53394 13.541 6.20841 13.8326 7.0105C14.1334 7.80347 14.2838 8.71037 14.2838 9.7312H10.6744C10.6744 9.1661 10.6106 8.66479 10.483 8.22729C10.3554 7.78979 10.1731 7.42065 9.93616 7.11987C9.69918 6.80998 9.41207 6.57756 9.07483 6.42261C8.7467 6.26766 8.37301 6.19019 7.95374 6.19019C7.35217 6.19019 6.85543 6.30412 6.4635 6.53198C6.08069 6.75985 5.79814 7.06974 5.61584 7.46167C5.44267 7.8536 5.35608 8.30477 5.35608 8.81519C5.35608 9.30737 5.44722 9.74032 5.62952 10.114C5.82092 10.4786 6.13993 10.8113 6.58655 11.1121C7.04228 11.4128 7.66663 11.7182 8.45959 12.0281C9.64449 12.4656 10.6744 12.9486 11.5494 13.4773C12.4244 13.9968 13.1035 14.6348 13.5865 15.3914C14.0696 16.1479 14.3112 17.1049 14.3112 18.2625C14.3112 19.4473 14.0377 20.45 13.4908 21.2703C12.9531 22.0906 12.1966 22.7149 11.2213 23.1433C10.2461 23.5717 9.11129 23.7859 7.81702 23.7859C6.98759 23.7859 6.16728 23.6765 5.35608 23.4578C4.54488 23.239 3.8066 22.8835 3.14124 22.3914C2.48499 21.8901 1.9609 21.2292 1.56897 20.4089C1.17704 19.5795 0.981079 18.5632 0.981079 17.3601H4.60413C4.60413 18.0528 4.69527 18.627 4.87756 19.0828C5.05986 19.5385 5.30595 19.9031 5.61584 20.1765C5.92574 20.4408 6.27209 20.6277 6.65491 20.7371C7.03772 20.8464 7.42509 20.9011 7.81702 20.9011C8.45504 20.9011 8.98368 20.7917 9.40295 20.573C9.83134 20.3542 10.1503 20.0489 10.36 19.657C10.5787 19.2559 10.6881 18.8002 10.6881 18.2898Z" fill="#616161"/>
</svg>
