<svg width="26" height="26" viewBox="0 0 26 26" fill="none" xmlns="http://www.w3.org/2000/svg">
<path d="M7.79181 10.9165V18.2082M11.9585 14.0415V18.2082M11.9585 14.0415C11.9585 13.6311 12.0393 13.2248 12.1964 12.8456C12.3534 12.4665 12.5836 12.122 12.8738 11.8318C13.164 11.5416 13.5085 11.3114 13.8876 11.1544C14.2667 10.9973 14.6731 10.9165 15.0835 10.9165C15.4939 10.9165 15.9002 10.9973 16.2794 11.1544C16.6585 11.3114 17.003 11.5416 17.2932 11.8318C17.5834 12.122 17.8136 12.4665 17.9706 12.8456C18.1276 13.2248 18.2085 13.6311 18.2085 14.0415V18.2082M11.9585 14.0415V10.9165M7.80015 7.7915H7.79077" stroke="#12499F" strokeWidth="1.5625" stroke-linecap="round" stroke-linejoin="round"/>
<path d="M3.10425 12.9998C3.10425 8.33525 3.10425 6.00192 4.55321 4.55296C6.00216 3.104 8.33446 3.104 13.0001 3.104C17.6647 3.104 19.998 3.104 21.447 4.55296C22.8959 6.00192 22.8959 8.33421 22.8959 12.9998C22.8959 17.6644 22.8959 19.9978 21.447 21.4467C19.998 22.8957 17.6657 22.8957 13.0001 22.8957C8.3355 22.8957 6.00216 22.8957 4.55321 21.4467C3.10425 19.9978 3.10425 17.6655 3.10425 12.9998Z" stroke="#12499F" strokeWidth="1.5625" stroke-linecap="round" stroke-linejoin="round"/>
</svg>
